<?xml version="1.0" encoding="utf-8" standalone="no"?>
<!DOCTYPE svg PUBLIC "-//W3C//DTD SVG 1.1//EN"
  "http://www.w3.org/Graphics/SVG/1.1/DTD/svg11.dtd">
<svg height="206.48pt" version="1.1" viewBox="0 0 608.5 206.48" width="608.5pt" xmlns="http://www.w3.org/2000/svg" xmlns:xlink="http://www.w3.org/1999/xlink">
 <metadata>
  <rdf:RDF xmlns:cc="http://creativecommons.org/ns#" xmlns:dc="http://purl.org/dc/elements/1.1/" xmlns:rdf="http://www.w3.org/1999/02/22-rdf-syntax-ns#">
   <cc:Work>
    <dc:type rdf:resource="http://purl.org/dc/dcmitype/StillImage"/>
    <dc:date>2021-09-06T13:42:36.563724</dc:date>
    <dc:format>image/svg+xml</dc:format>
    <dc:creator>
     <cc:Agent>
      <dc:title>Matplotlib v3.4.3, https://matplotlib.org/</dc:title>
     </cc:Agent>
    </dc:creator>
   </cc:Work>
  </rdf:RDF>
 </metadata>
 <defs>
  <style type="text/css">*{stroke-linecap:butt;stroke-linejoin:round;}</style>
 </defs>
 <g id="figure_1">
  <g id="patch_1">
   <path d="M 0 206.48 
L 608.5 206.48 
L 608.5 0 
L 0 0 
z
" style="fill:none;"/>
  </g>
  <g id="axes_1">
   <g id="patch_2">
    <path d="M 43.3 170.28 
L 296.936364 170.28 
L 296.936364 7.2 
L 43.3 7.2 
z
" style="fill:#ffffff;"/>
   </g>
   <g id="matplotlib.axis_1">
    <g id="xtick_1">
     <g id="line2d_1">
      <defs>
       <path d="M 0 0 
L 0 3.5 
" id="m6fc44ffd56" style="stroke:#000000;stroke-width:0.8;"/>
      </defs>
      <g>
       <use style="stroke:#000000;stroke-width:0.8;" x="93.258678" xlink:href="#m6fc44ffd56" y="170.28"/>
      </g>
     </g>
     <g id="text_1">
      <!-- 20 -->
      <g transform="translate(88.258678 184.109688)scale(0.1 -0.1)">
       <defs>
        <path d="M 3034 877 
L 2688 0 
L 186 0 
L 186 77 
L 1325 1286 
Q 1773 1754 1965 2144 
Q 2157 2534 2157 2950 
Q 2157 3379 1920 3616 
Q 1683 3853 1267 3853 
Q 922 3853 720 3673 
Q 518 3494 326 3021 
L 192 3053 
Q 301 3648 630 3987 
Q 960 4326 1523 4326 
Q 2054 4326 2380 4006 
Q 2707 3686 2707 3200 
Q 2707 2477 1888 1613 
L 832 486 
L 2330 486 
Q 2541 486 2665 569 
Q 2790 653 2944 915 
L 3034 877 
z
" id="STIXGeneral-Regular-32" transform="scale(0.015625)"/>
        <path d="M 3046 2112 
Q 3046 1683 2963 1302 
Q 2880 922 2717 602 
Q 2554 282 2266 96 
Q 1978 -90 1600 -90 
Q 1210 -90 915 108 
Q 621 307 461 640 
Q 301 973 227 1350 
Q 154 1728 154 2150 
Q 154 2746 301 3222 
Q 448 3699 790 4012 
Q 1133 4326 1626 4326 
Q 2253 4326 2649 3712 
Q 3046 3098 3046 2112 
z
M 2432 2080 
Q 2432 3091 2217 3625 
Q 2003 4160 1587 4160 
Q 1190 4160 979 3622 
Q 768 3085 768 2106 
Q 768 1120 979 598 
Q 1190 77 1600 77 
Q 2003 77 2217 598 
Q 2432 1120 2432 2080 
z
" id="STIXGeneral-Regular-30" transform="scale(0.015625)"/>
       </defs>
       <use xlink:href="#STIXGeneral-Regular-32"/>
       <use x="49.999985" xlink:href="#STIXGeneral-Regular-30"/>
      </g>
     </g>
    </g>
    <g id="xtick_2">
     <g id="line2d_2">
      <g>
       <use style="stroke:#000000;stroke-width:0.8;" x="144.498347" xlink:href="#m6fc44ffd56" y="170.28"/>
      </g>
     </g>
     <g id="text_2">
      <!-- 40 -->
      <g transform="translate(139.498347 184.109688)scale(0.1 -0.1)">
       <defs>
        <path d="M 3027 1069 
L 2368 1069 
L 2368 0 
L 1869 0 
L 1869 1069 
L 77 1069 
L 77 1478 
L 2086 4326 
L 2368 4326 
L 2368 1478 
L 3027 1478 
L 3027 1069 
z
M 1869 1478 
L 1869 3674 
L 333 1478 
L 1869 1478 
z
" id="STIXGeneral-Regular-34" transform="scale(0.015625)"/>
       </defs>
       <use xlink:href="#STIXGeneral-Regular-34"/>
       <use x="49.999985" xlink:href="#STIXGeneral-Regular-30"/>
      </g>
     </g>
    </g>
    <g id="xtick_3">
     <g id="line2d_3">
      <g>
       <use style="stroke:#000000;stroke-width:0.8;" x="195.738017" xlink:href="#m6fc44ffd56" y="170.28"/>
      </g>
     </g>
     <g id="text_3">
      <!-- 60 -->
      <g transform="translate(190.738017 184.109688)scale(0.1 -0.1)">
       <defs>
        <path d="M 2854 4378 
L 2867 4275 
Q 2112 4154 1606 3664 
Q 1101 3174 973 2451 
Q 1344 2739 1786 2739 
Q 2349 2739 2672 2380 
Q 2995 2022 2995 1402 
Q 2995 774 2669 378 
Q 2291 -90 1651 -90 
Q 870 -90 518 557 
Q 218 1107 218 1786 
Q 218 2835 915 3552 
Q 1312 3962 1731 4131 
Q 2150 4301 2854 4378 
z
M 2419 1203 
Q 2419 2445 1555 2445 
Q 1235 2445 1024 2275 
Q 813 2106 813 1702 
Q 813 954 1046 522 
Q 1280 90 1722 90 
Q 2061 90 2240 394 
Q 2419 698 2419 1203 
z
" id="STIXGeneral-Regular-36" transform="scale(0.015625)"/>
       </defs>
       <use xlink:href="#STIXGeneral-Regular-36"/>
       <use x="49.999985" xlink:href="#STIXGeneral-Regular-30"/>
      </g>
     </g>
    </g>
    <g id="xtick_4">
     <g id="line2d_4">
      <g>
       <use style="stroke:#000000;stroke-width:0.8;" x="246.977686" xlink:href="#m6fc44ffd56" y="170.28"/>
      </g>
     </g>
     <g id="text_4">
      <!-- 80 -->
      <g transform="translate(241.977686 184.109688)scale(0.1 -0.1)">
       <defs>
        <path d="M 2848 992 
Q 2848 499 2505 204 
Q 2163 -90 1587 -90 
Q 1050 -90 704 204 
Q 358 499 358 954 
Q 358 1293 524 1533 
Q 691 1773 1190 2125 
Q 710 2522 553 2765 
Q 397 3008 397 3328 
Q 397 3782 745 4054 
Q 1094 4326 1638 4326 
Q 2106 4326 2410 4060 
Q 2714 3795 2714 3411 
Q 2714 3059 2531 2848 
Q 2349 2637 1856 2374 
Q 2432 1990 2640 1689 
Q 2848 1389 2848 992 
z
M 2272 3411 
Q 2272 3744 2086 3945 
Q 1901 4147 1574 4147 
Q 1248 4147 1059 3977 
Q 870 3808 870 3513 
Q 870 3219 1059 2979 
Q 1248 2739 1670 2490 
Q 1997 2682 2134 2896 
Q 2272 3110 2272 3411 
z
M 1734 1741 
L 1357 1997 
Q 1075 1766 960 1545 
Q 845 1325 845 1011 
Q 845 576 1065 333 
Q 1286 90 1658 90 
Q 1971 90 2166 285 
Q 2362 480 2362 794 
Q 2362 1082 2214 1299 
Q 2067 1517 1734 1741 
z
" id="STIXGeneral-Regular-38" transform="scale(0.015625)"/>
       </defs>
       <use xlink:href="#STIXGeneral-Regular-38"/>
       <use x="49.999985" xlink:href="#STIXGeneral-Regular-30"/>
      </g>
     </g>
    </g>
    <g id="text_5">
     <!-- $\varepsilon_r$ -->
     <g transform="translate(166.268182 197.109688)scale(0.1 -0.1)">
      <defs>
       <path d="M 2304 627 
L 2406 563 
Q 1907 -70 1133 -70 
Q 192 -70 192 640 
Q 192 928 403 1158 
Q 614 1389 934 1472 
Q 774 1498 684 1616 
Q 595 1734 595 1882 
Q 602 2266 995 2544 
Q 1389 2822 2029 2822 
Q 2336 2822 2528 2672 
Q 2720 2522 2720 2291 
Q 2720 2163 2617 2080 
Q 2515 1997 2413 1997 
Q 2298 1997 2230 2067 
Q 2163 2138 2163 2253 
Q 2163 2317 2211 2409 
Q 2259 2502 2259 2560 
Q 2259 2688 2022 2688 
Q 1683 2688 1401 2496 
Q 1120 2304 1120 1907 
Q 1120 1741 1251 1654 
Q 1382 1568 1594 1568 
Q 1613 1568 1728 1590 
Q 1843 1613 1932 1613 
Q 2022 1613 2086 1574 
Q 2150 1536 2150 1478 
Q 2150 1306 1862 1306 
Q 1805 1306 1721 1334 
Q 1638 1363 1568 1363 
Q 1286 1363 1014 1184 
Q 742 1005 742 678 
Q 742 410 908 285 
Q 1075 160 1312 160 
Q 1869 160 2304 627 
z
" id="STIXGeneral-Italic-3b5" transform="scale(0.015625)"/>
       <path d="M 1126 1427 
L 1229 1651 
Q 1446 2131 1830 2534 
Q 2106 2822 2336 2822 
Q 2470 2822 2553 2732 
Q 2637 2643 2637 2496 
Q 2637 2349 2557 2249 
Q 2477 2150 2336 2150 
Q 2214 2150 2112 2317 
Q 2061 2406 2010 2406 
Q 1837 2406 1485 1805 
Q 1267 1434 1136 1104 
Q 1005 774 774 0 
L 288 0 
L 806 1869 
Q 909 2246 909 2394 
Q 909 2560 666 2560 
Q 614 2560 467 2541 
L 467 2650 
L 1459 2822 
L 1478 2810 
L 1126 1427 
z
" id="STIXGeneral-Italic-72" transform="scale(0.015625)"/>
      </defs>
      <use transform="translate(0 0.90625)" xlink:href="#STIXGeneral-Italic-3b5"/>
      <use transform="translate(44.399994 -12.321875)scale(0.7)" xlink:href="#STIXGeneral-Italic-72"/>
     </g>
    </g>
   </g>
   <g id="matplotlib.axis_2">
    <g id="ytick_1">
     <g id="line2d_5">
      <defs>
       <path d="M 0 0 
L -3.5 0 
" id="mf66be33edc" style="stroke:#000000;stroke-width:0.8;"/>
      </defs>
      <g>
       <use style="stroke:#000000;stroke-width:0.8;" x="43.3" xlink:href="#mf66be33edc" y="170.28"/>
      </g>
     </g>
     <g id="text_6">
      <!-- 0 -->
      <g transform="translate(31.3 173.694844)scale(0.1 -0.1)">
       <use xlink:href="#STIXGeneral-Regular-30"/>
      </g>
     </g>
    </g>
    <g id="ytick_2">
     <g id="line2d_6">
      <g>
       <use style="stroke:#000000;stroke-width:0.8;" x="43.3" xlink:href="#mf66be33edc" y="145.190769"/>
      </g>
     </g>
     <g id="text_7">
      <!-- 20 -->
      <g transform="translate(26.3 148.605613)scale(0.1 -0.1)">
       <use xlink:href="#STIXGeneral-Regular-32"/>
       <use x="49.999985" xlink:href="#STIXGeneral-Regular-30"/>
      </g>
     </g>
    </g>
    <g id="ytick_3">
     <g id="line2d_7">
      <g>
       <use style="stroke:#000000;stroke-width:0.8;" x="43.3" xlink:href="#mf66be33edc" y="120.101538"/>
      </g>
     </g>
     <g id="text_8">
      <!-- 40 -->
      <g transform="translate(26.3 123.516382)scale(0.1 -0.1)">
       <use xlink:href="#STIXGeneral-Regular-34"/>
       <use x="49.999985" xlink:href="#STIXGeneral-Regular-30"/>
      </g>
     </g>
    </g>
    <g id="ytick_4">
     <g id="line2d_8">
      <g>
       <use style="stroke:#000000;stroke-width:0.8;" x="43.3" xlink:href="#mf66be33edc" y="95.012308"/>
      </g>
     </g>
     <g id="text_9">
      <!-- 60 -->
      <g transform="translate(26.3 98.427151)scale(0.1 -0.1)">
       <use xlink:href="#STIXGeneral-Regular-36"/>
       <use x="49.999985" xlink:href="#STIXGeneral-Regular-30"/>
      </g>
     </g>
    </g>
    <g id="ytick_5">
     <g id="line2d_9">
      <g>
       <use style="stroke:#000000;stroke-width:0.8;" x="43.3" xlink:href="#mf66be33edc" y="69.923077"/>
      </g>
     </g>
     <g id="text_10">
      <!-- 80 -->
      <g transform="translate(26.3 73.337921)scale(0.1 -0.1)">
       <use xlink:href="#STIXGeneral-Regular-38"/>
       <use x="49.999985" xlink:href="#STIXGeneral-Regular-30"/>
      </g>
     </g>
    </g>
    <g id="ytick_6">
     <g id="line2d_10">
      <g>
       <use style="stroke:#000000;stroke-width:0.8;" x="43.3" xlink:href="#mf66be33edc" y="44.833846"/>
      </g>
     </g>
     <g id="text_11">
      <!-- 100 -->
      <g transform="translate(21.3 48.24869)scale(0.1 -0.1)">
       <defs>
        <path d="M 2522 0 
L 755 0 
L 755 96 
Q 1107 115 1235 227 
Q 1363 339 1363 608 
L 1363 3482 
Q 1363 3795 1171 3795 
Q 1082 3795 883 3718 
L 710 3654 
L 710 3744 
L 1856 4326 
L 1914 4307 
L 1914 486 
Q 1914 275 2042 185 
Q 2170 96 2522 96 
L 2522 0 
z
" id="STIXGeneral-Regular-31" transform="scale(0.015625)"/>
       </defs>
       <use xlink:href="#STIXGeneral-Regular-31"/>
       <use x="49.999985" xlink:href="#STIXGeneral-Regular-30"/>
       <use x="99.999969" xlink:href="#STIXGeneral-Regular-30"/>
      </g>
     </g>
    </g>
    <g id="ytick_7">
     <g id="line2d_11">
      <g>
       <use style="stroke:#000000;stroke-width:0.8;" x="43.3" xlink:href="#mf66be33edc" y="19.744615"/>
      </g>
     </g>
     <g id="text_12">
      <!-- 120 -->
      <g transform="translate(21.3 23.159459)scale(0.1 -0.1)">
       <use xlink:href="#STIXGeneral-Regular-31"/>
       <use x="49.999985" xlink:href="#STIXGeneral-Regular-32"/>
       <use x="99.999969" xlink:href="#STIXGeneral-Regular-30"/>
      </g>
     </g>
    </g>
    <g id="text_13">
     <!-- $\Delta E^\ddag$ ($KJ\cdot mol^{-1}$) -->
     <g transform="translate(15.129688 123.39)rotate(-90)scale(0.1 -0.1)">
      <defs>
       <path d="M 4320 0 
L 307 0 
L 2221 4314 
L 2349 4314 
L 4320 0 
z
M 3354 589 
L 2118 3405 
L 870 589 
L 3354 589 
z
" id="STIXGeneral-Regular-394" transform="scale(0.015625)"/>
       <path d="M 4058 4179 
L 3859 3194 
L 3718 3206 
Q 3738 3366 3738 3501 
Q 3738 3789 3501 3878 
Q 3264 3968 2509 3968 
Q 2240 3968 2157 3939 
Q 2074 3910 2042 3802 
L 1619 2310 
L 2118 2310 
Q 2541 2310 2681 2412 
Q 2822 2515 3008 2931 
L 3123 2906 
L 2688 1421 
L 2560 1453 
Q 2605 1651 2605 1786 
Q 2605 1939 2560 1984 
Q 2451 2080 2061 2080 
L 1562 2080 
L 1357 1363 
Q 1126 550 1126 429 
Q 1126 211 1632 211 
Q 2458 211 2931 461 
Q 3174 589 3533 1088 
L 3635 1037 
L 3238 0 
L -6 0 
L -6 102 
Q 269 154 352 227 
Q 435 301 512 576 
L 1299 3405 
Q 1370 3642 1370 3814 
Q 1370 3942 1270 3996 
Q 1171 4051 877 4077 
L 877 4179 
L 4058 4179 
z
" id="STIXGeneral-Italic-45" transform="scale(0.015625)"/>
       <path d="M 2829 2854 
Q 2829 2739 2761 2662 
Q 2694 2586 2592 2586 
Q 2458 2586 2253 2662 
Q 1946 2778 1670 2803 
Q 1670 2336 1724 2086 
Q 1779 1837 1926 1664 
Q 1779 1498 1724 1258 
Q 1670 1018 1670 544 
Q 1939 570 2246 685 
Q 2438 762 2579 762 
Q 2688 762 2755 682 
Q 2822 602 2822 480 
Q 2822 365 2748 285 
Q 2675 205 2572 205 
Q 2470 205 2259 288 
Q 1926 422 1670 429 
Q 1670 160 1696 3 
Q 1722 -154 1818 -390 
Q 1894 -582 1894 -691 
Q 1894 -800 1801 -889 
Q 1709 -979 1594 -979 
Q 1485 -979 1392 -889 
Q 1299 -800 1299 -691 
Q 1299 -582 1376 -390 
Q 1530 0 1530 429 
Q 1267 422 934 288 
Q 730 205 621 205 
Q 512 205 441 285 
Q 371 365 371 493 
Q 371 608 441 685 
Q 512 762 614 762 
Q 749 762 947 685 
Q 1254 570 1530 544 
Q 1530 1427 1274 1664 
Q 1530 1997 1530 2803 
Q 1261 2778 954 2662 
Q 768 2586 659 2586 
Q 378 2586 378 2861 
Q 378 2982 448 3062 
Q 518 3142 627 3142 
Q 730 3142 941 3059 
Q 1267 2925 1530 2918 
Q 1530 3187 1504 3344 
Q 1478 3501 1382 3738 
Q 1306 3930 1306 4038 
Q 1306 4147 1398 4236 
Q 1491 4326 1600 4326 
Q 1715 4326 1808 4236 
Q 1901 4147 1901 4038 
Q 1901 3930 1824 3738 
Q 1670 3347 1670 2918 
Q 1933 2925 2266 3059 
Q 2470 3142 2586 3142 
Q 2688 3142 2758 3059 
Q 2829 2976 2829 2854 
z
" id="STIXGeneral-Regular-2021" transform="scale(0.015625)"/>
       <path id="STIXGeneral-Regular-20" transform="scale(0.015625)"/>
       <path d="M 1946 -1030 
L 1869 -1133 
Q 1126 -710 716 32 
Q 307 774 307 1613 
Q 307 3386 1888 4326 
L 1946 4224 
Q 1293 3667 1075 3126 
Q 858 2586 858 1632 
Q 858 685 1082 96 
Q 1306 -493 1946 -1030 
z
" id="STIXGeneral-Regular-28" transform="scale(0.015625)"/>
       <path d="M 4621 4179 
L 4621 4077 
Q 4442 4077 4128 3840 
L 2221 2400 
L 3296 525 
Q 3443 269 3552 201 
Q 3661 134 3962 102 
L 3962 0 
L 2202 0 
L 2202 102 
L 2387 122 
Q 2682 147 2682 326 
Q 2682 365 2672 409 
Q 2662 454 2630 515 
Q 2598 576 2579 611 
Q 2560 646 2509 736 
Q 2458 826 2445 851 
L 1658 2227 
L 1242 710 
Q 1171 467 1171 384 
Q 1171 237 1264 182 
Q 1357 128 1626 102 
L 1626 0 
L 45 0 
L 45 102 
Q 320 134 403 211 
Q 486 288 563 557 
L 1357 3405 
Q 1446 3725 1446 3802 
Q 1446 3936 1337 4000 
Q 1229 4064 941 4077 
L 941 4179 
L 2669 4179 
L 2669 4077 
Q 2400 4058 2253 3958 
Q 2106 3859 2035 3603 
L 1696 2362 
L 2675 3059 
Q 3590 3706 3590 3936 
Q 3590 4032 3360 4058 
L 3206 4077 
L 3206 4179 
L 4621 4179 
z
" id="STIXGeneral-Italic-4b" transform="scale(0.015625)"/>
       <path d="M 3142 4179 
L 3142 4077 
Q 2867 4038 2784 3964 
Q 2701 3891 2618 3603 
L 1958 1254 
Q 1773 589 1504 237 
Q 1235 -115 710 -115 
Q 371 -115 166 38 
Q -38 192 -38 448 
Q -38 602 42 704 
Q 122 806 250 806 
Q 378 806 477 720 
Q 576 634 576 512 
Q 576 474 566 419 
Q 557 365 557 339 
Q 557 90 781 90 
Q 1005 90 1120 499 
L 1933 3405 
Q 2010 3686 2010 3814 
Q 2010 3942 1914 3996 
Q 1818 4051 1517 4077 
L 1517 4179 
L 3142 4179 
z
" id="STIXGeneral-Italic-4a" transform="scale(0.015625)"/>
       <path d="M 1187 1888 
Q 1299 1773 1299 1619 
Q 1299 1466 1187 1350 
Q 1075 1235 921 1235 
Q 768 1235 649 1353 
Q 531 1472 531 1619 
Q 531 1766 649 1884 
Q 768 2003 921 2003 
Q 1075 2003 1187 1888 
z
" id="STIXGeneral-Regular-22c5" transform="scale(0.015625)"/>
       <path d="M 4506 672 
L 4474 627 
Q 3981 -58 3552 -58 
Q 3296 -58 3296 237 
Q 3296 333 3379 659 
L 3750 2112 
Q 3795 2291 3795 2355 
Q 3795 2413 3756 2451 
Q 3718 2490 3667 2490 
Q 3366 2490 2829 1741 
Q 2592 1408 2457 1072 
Q 2323 736 2138 0 
L 1658 0 
L 1830 595 
Q 2266 2099 2266 2330 
Q 2266 2490 2125 2490 
Q 1965 2490 1702 2237 
Q 1440 1984 1171 1574 
Q 1011 1325 899 1043 
Q 787 762 557 0 
L 77 0 
L 352 922 
Q 704 2093 704 2381 
Q 704 2522 442 2522 
L 282 2522 
L 282 2624 
L 1318 2822 
L 1338 2810 
L 966 1472 
Q 1798 2822 2374 2822 
Q 2560 2822 2659 2720 
Q 2758 2618 2758 2438 
Q 2758 2195 2502 1466 
Q 2842 2003 3069 2275 
Q 3296 2547 3526 2694 
Q 3731 2822 3930 2822 
Q 4102 2822 4201 2710 
Q 4301 2598 4301 2419 
Q 4301 2336 4282 2240 
L 3846 634 
Q 3782 390 3782 346 
Q 3782 243 3859 243 
Q 4000 243 4275 582 
L 4410 749 
L 4506 672 
z
" id="STIXGeneral-Italic-6d" transform="scale(0.015625)"/>
       <path d="M 2995 1926 
Q 2995 1562 2812 1168 
Q 2630 774 2317 461 
Q 1786 -70 1114 -70 
Q 666 -70 419 163 
Q 173 397 173 819 
Q 173 1350 496 1856 
Q 819 2362 1325 2630 
Q 1683 2822 2093 2822 
Q 2490 2822 2742 2582 
Q 2995 2342 2995 1926 
z
M 2458 2086 
Q 2458 2374 2336 2531 
Q 2214 2688 2003 2688 
Q 1574 2688 1184 2106 
Q 710 1382 710 646 
Q 710 365 844 214 
Q 979 64 1210 64 
Q 1600 64 1984 595 
Q 2202 890 2330 1302 
Q 2458 1715 2458 2086 
z
" id="STIXGeneral-Italic-6f" transform="scale(0.015625)"/>
       <path d="M 1786 4339 
L 806 595 
Q 755 410 755 320 
Q 755 205 864 205 
Q 1037 205 1293 570 
L 1453 794 
L 1542 730 
Q 1254 275 1046 102 
Q 838 -70 576 -70 
Q 262 -70 262 288 
Q 262 397 288 480 
L 1165 3834 
Q 1184 3898 1184 3955 
Q 1184 4096 870 4096 
L 755 4096 
L 755 4198 
Q 1203 4250 1747 4371 
L 1786 4339 
z
" id="STIXGeneral-Italic-6c" transform="scale(0.015625)"/>
       <path d="M 3974 1408 
L 410 1408 
L 410 1830 
L 3974 1830 
L 3974 1408 
z
" id="STIXGeneral-Regular-2212" transform="scale(0.015625)"/>
       <path d="M 186 4224 
L 262 4326 
Q 992 3891 1408 3148 
Q 1824 2406 1824 1581 
Q 1824 -166 243 -1133 
L 186 -1030 
Q 845 -486 1059 54 
Q 1274 595 1274 1562 
Q 1274 2534 1059 3120 
Q 845 3706 186 4224 
z
" id="STIXGeneral-Regular-29" transform="scale(0.015625)"/>
      </defs>
      <use transform="translate(0 0.409375)" xlink:href="#STIXGeneral-Regular-394"/>
      <use transform="translate(72.199982 0.409375)" xlink:href="#STIXGeneral-Italic-45"/>
      <use transform="translate(143.925754 35.684375)scale(0.7)" xlink:href="#STIXGeneral-Regular-2021"/>
      <use transform="translate(183.335118 0.409375)" xlink:href="#STIXGeneral-Regular-20"/>
      <use transform="translate(208.335103 0.409375)" xlink:href="#STIXGeneral-Regular-28"/>
      <use transform="translate(241.635091 0.409375)" xlink:href="#STIXGeneral-Italic-4b"/>
      <use transform="translate(308.335088 0.409375)" xlink:href="#STIXGeneral-Italic-4a"/>
      <use transform="translate(367.175078 0.409375)" xlink:href="#STIXGeneral-Regular-22c5"/>
      <use transform="translate(410.215065 0.409375)" xlink:href="#STIXGeneral-Italic-6d"/>
      <use transform="translate(482.415047 0.409375)" xlink:href="#STIXGeneral-Italic-6f"/>
      <use transform="translate(532.415031 0.409375)" xlink:href="#STIXGeneral-Italic-6c"/>
      <use transform="translate(571.4708 35.684375)scale(0.7)" xlink:href="#STIXGeneral-Regular-2212"/>
      <use transform="translate(619.42079 35.684375)scale(0.7)" xlink:href="#STIXGeneral-Regular-31"/>
      <use transform="translate(658.830154 0.409375)" xlink:href="#STIXGeneral-Regular-29"/>
     </g>
    </g>
   </g>
   <g id="line2d_12">
    <path clip-path="url(#pca9b59d2f5)" d="M 54.828926 40.633326 
L 67.638843 48.259078 
L 80.44876 50.989014 
L 93.258678 52.392057 
L 106.068595 53.246456 
L 118.878512 53.821389 
L 131.68843 54.234697 
L 144.498347 54.546134 
L 157.308264 54.789233 
L 170.118182 54.98426 
L 182.928099 55.144193 
L 195.738017 55.277721 
L 208.547934 55.390886 
L 221.357851 55.488016 
L 234.167769 55.572293 
L 246.977686 55.646108 
L 259.787603 55.711299 
L 272.597521 55.769291 
L 285.407438 55.821216 
" style="fill:none;stroke:#1f77b4;stroke-linecap:square;stroke-width:1.5;"/>
    <defs>
     <path d="M 0 1.5 
C 0.397805 1.5 0.77937 1.341951 1.06066 1.06066 
C 1.341951 0.77937 1.5 0.397805 1.5 0 
C 1.5 -0.397805 1.341951 -0.77937 1.06066 -1.06066 
C 0.77937 -1.341951 0.397805 -1.5 0 -1.5 
C -0.397805 -1.5 -0.77937 -1.341951 -1.06066 -1.06066 
C -1.341951 -0.77937 -1.5 -0.397805 -1.5 0 
C -1.5 0.397805 -1.341951 0.77937 -1.06066 1.06066 
C -0.77937 1.341951 -0.397805 1.5 0 1.5 
z
" id="m225ac4584b" style="stroke:#1f77b4;"/>
    </defs>
    <g clip-path="url(#pca9b59d2f5)">
     <use style="fill:#1f77b4;stroke:#1f77b4;" x="54.828926" xlink:href="#m225ac4584b" y="40.633326"/>
     <use style="fill:#1f77b4;stroke:#1f77b4;" x="67.638843" xlink:href="#m225ac4584b" y="48.259078"/>
     <use style="fill:#1f77b4;stroke:#1f77b4;" x="80.44876" xlink:href="#m225ac4584b" y="50.989014"/>
     <use style="fill:#1f77b4;stroke:#1f77b4;" x="93.258678" xlink:href="#m225ac4584b" y="52.392057"/>
     <use style="fill:#1f77b4;stroke:#1f77b4;" x="106.068595" xlink:href="#m225ac4584b" y="53.246456"/>
     <use style="fill:#1f77b4;stroke:#1f77b4;" x="118.878512" xlink:href="#m225ac4584b" y="53.821389"/>
     <use style="fill:#1f77b4;stroke:#1f77b4;" x="131.68843" xlink:href="#m225ac4584b" y="54.234697"/>
     <use style="fill:#1f77b4;stroke:#1f77b4;" x="144.498347" xlink:href="#m225ac4584b" y="54.546134"/>
     <use style="fill:#1f77b4;stroke:#1f77b4;" x="157.308264" xlink:href="#m225ac4584b" y="54.789233"/>
     <use style="fill:#1f77b4;stroke:#1f77b4;" x="170.118182" xlink:href="#m225ac4584b" y="54.98426"/>
     <use style="fill:#1f77b4;stroke:#1f77b4;" x="182.928099" xlink:href="#m225ac4584b" y="55.144193"/>
     <use style="fill:#1f77b4;stroke:#1f77b4;" x="195.738017" xlink:href="#m225ac4584b" y="55.277721"/>
     <use style="fill:#1f77b4;stroke:#1f77b4;" x="208.547934" xlink:href="#m225ac4584b" y="55.390886"/>
     <use style="fill:#1f77b4;stroke:#1f77b4;" x="221.357851" xlink:href="#m225ac4584b" y="55.488016"/>
     <use style="fill:#1f77b4;stroke:#1f77b4;" x="234.167769" xlink:href="#m225ac4584b" y="55.572293"/>
     <use style="fill:#1f77b4;stroke:#1f77b4;" x="246.977686" xlink:href="#m225ac4584b" y="55.646108"/>
     <use style="fill:#1f77b4;stroke:#1f77b4;" x="259.787603" xlink:href="#m225ac4584b" y="55.711299"/>
     <use style="fill:#1f77b4;stroke:#1f77b4;" x="272.597521" xlink:href="#m225ac4584b" y="55.769291"/>
     <use style="fill:#1f77b4;stroke:#1f77b4;" x="285.407438" xlink:href="#m225ac4584b" y="55.821216"/>
    </g>
   </g>
   <g id="line2d_13">
    <path clip-path="url(#pca9b59d2f5)" d="M 54.828926 17.223559 
L 67.638843 23.346775 
L 80.44876 25.547773 
L 93.258678 26.680741 
L 106.068595 27.371256 
L 118.878512 27.836155 
L 131.68843 28.170483 
L 144.498347 28.422475 
L 157.308264 28.619209 
L 170.118182 28.777067 
L 182.928099 28.906536 
L 195.738017 29.014641 
L 208.547934 29.10627 
L 221.357851 29.184919 
L 234.167769 29.253165 
L 246.977686 29.312945 
L 259.787603 29.365741 
L 272.597521 29.41271 
L 285.407438 29.454767 
" style="fill:none;stroke:#ff7f0e;stroke-linecap:square;stroke-width:1.5;"/>
    <defs>
     <path d="M 0 1.5 
C 0.397805 1.5 0.77937 1.341951 1.06066 1.06066 
C 1.341951 0.77937 1.5 0.397805 1.5 0 
C 1.5 -0.397805 1.341951 -0.77937 1.06066 -1.06066 
C 0.77937 -1.341951 0.397805 -1.5 0 -1.5 
C -0.397805 -1.5 -0.77937 -1.341951 -1.06066 -1.06066 
C -1.341951 -0.77937 -1.5 -0.397805 -1.5 0 
C -1.5 0.397805 -1.341951 0.77937 -1.06066 1.06066 
C -0.77937 1.341951 -0.397805 1.5 0 1.5 
z
" id="mf2dce1f6c4" style="stroke:#ff7f0e;"/>
    </defs>
    <g clip-path="url(#pca9b59d2f5)">
     <use style="fill:#ff7f0e;stroke:#ff7f0e;" x="54.828926" xlink:href="#mf2dce1f6c4" y="17.223559"/>
     <use style="fill:#ff7f0e;stroke:#ff7f0e;" x="67.638843" xlink:href="#mf2dce1f6c4" y="23.346775"/>
     <use style="fill:#ff7f0e;stroke:#ff7f0e;" x="80.44876" xlink:href="#mf2dce1f6c4" y="25.547773"/>
     <use style="fill:#ff7f0e;stroke:#ff7f0e;" x="93.258678" xlink:href="#mf2dce1f6c4" y="26.680741"/>
     <use style="fill:#ff7f0e;stroke:#ff7f0e;" x="106.068595" xlink:href="#mf2dce1f6c4" y="27.371256"/>
     <use style="fill:#ff7f0e;stroke:#ff7f0e;" x="118.878512" xlink:href="#mf2dce1f6c4" y="27.836155"/>
     <use style="fill:#ff7f0e;stroke:#ff7f0e;" x="131.68843" xlink:href="#mf2dce1f6c4" y="28.170483"/>
     <use style="fill:#ff7f0e;stroke:#ff7f0e;" x="144.498347" xlink:href="#mf2dce1f6c4" y="28.422475"/>
     <use style="fill:#ff7f0e;stroke:#ff7f0e;" x="157.308264" xlink:href="#mf2dce1f6c4" y="28.619209"/>
     <use style="fill:#ff7f0e;stroke:#ff7f0e;" x="170.118182" xlink:href="#mf2dce1f6c4" y="28.777067"/>
     <use style="fill:#ff7f0e;stroke:#ff7f0e;" x="182.928099" xlink:href="#mf2dce1f6c4" y="28.906536"/>
     <use style="fill:#ff7f0e;stroke:#ff7f0e;" x="195.738017" xlink:href="#mf2dce1f6c4" y="29.014641"/>
     <use style="fill:#ff7f0e;stroke:#ff7f0e;" x="208.547934" xlink:href="#mf2dce1f6c4" y="29.10627"/>
     <use style="fill:#ff7f0e;stroke:#ff7f0e;" x="221.357851" xlink:href="#mf2dce1f6c4" y="29.184919"/>
     <use style="fill:#ff7f0e;stroke:#ff7f0e;" x="234.167769" xlink:href="#mf2dce1f6c4" y="29.253165"/>
     <use style="fill:#ff7f0e;stroke:#ff7f0e;" x="246.977686" xlink:href="#mf2dce1f6c4" y="29.312945"/>
     <use style="fill:#ff7f0e;stroke:#ff7f0e;" x="259.787603" xlink:href="#mf2dce1f6c4" y="29.365741"/>
     <use style="fill:#ff7f0e;stroke:#ff7f0e;" x="272.597521" xlink:href="#mf2dce1f6c4" y="29.41271"/>
     <use style="fill:#ff7f0e;stroke:#ff7f0e;" x="285.407438" xlink:href="#mf2dce1f6c4" y="29.454767"/>
    </g>
   </g>
   <g id="line2d_14">
    <path clip-path="url(#pca9b59d2f5)" d="M 54.828926 29.561449 
L 67.638843 36.665439 
L 80.44876 39.214252 
L 93.258678 40.525342 
L 106.068595 41.32412 
L 118.878512 41.861784 
L 131.68843 42.24838 
L 144.498347 42.539732 
L 157.308264 42.767177 
L 170.118182 42.949663 
L 182.928099 43.099323 
L 195.738017 43.224283 
L 208.547934 43.33019 
L 221.357851 43.421094 
L 234.167769 43.499973 
L 246.977686 43.569063 
L 259.787603 43.630081 
L 272.597521 43.684364 
L 285.407438 43.732967 
" style="fill:none;stroke:#2ca02c;stroke-linecap:square;stroke-width:1.5;"/>
    <defs>
     <path d="M 0 1.5 
C 0.397805 1.5 0.77937 1.341951 1.06066 1.06066 
C 1.341951 0.77937 1.5 0.397805 1.5 0 
C 1.5 -0.397805 1.341951 -0.77937 1.06066 -1.06066 
C 0.77937 -1.341951 0.397805 -1.5 0 -1.5 
C -0.397805 -1.5 -0.77937 -1.341951 -1.06066 -1.06066 
C -1.341951 -0.77937 -1.5 -0.397805 -1.5 0 
C -1.5 0.397805 -1.341951 0.77937 -1.06066 1.06066 
C -0.77937 1.341951 -0.397805 1.5 0 1.5 
z
" id="m6cea27dd15" style="stroke:#2ca02c;"/>
    </defs>
    <g clip-path="url(#pca9b59d2f5)">
     <use style="fill:#2ca02c;stroke:#2ca02c;" x="54.828926" xlink:href="#m6cea27dd15" y="29.561449"/>
     <use style="fill:#2ca02c;stroke:#2ca02c;" x="67.638843" xlink:href="#m6cea27dd15" y="36.665439"/>
     <use style="fill:#2ca02c;stroke:#2ca02c;" x="80.44876" xlink:href="#m6cea27dd15" y="39.214252"/>
     <use style="fill:#2ca02c;stroke:#2ca02c;" x="93.258678" xlink:href="#m6cea27dd15" y="40.525342"/>
     <use style="fill:#2ca02c;stroke:#2ca02c;" x="106.068595" xlink:href="#m6cea27dd15" y="41.32412"/>
     <use style="fill:#2ca02c;stroke:#2ca02c;" x="118.878512" xlink:href="#m6cea27dd15" y="41.861784"/>
     <use style="fill:#2ca02c;stroke:#2ca02c;" x="131.68843" xlink:href="#m6cea27dd15" y="42.24838"/>
     <use style="fill:#2ca02c;stroke:#2ca02c;" x="144.498347" xlink:href="#m6cea27dd15" y="42.539732"/>
     <use style="fill:#2ca02c;stroke:#2ca02c;" x="157.308264" xlink:href="#m6cea27dd15" y="42.767177"/>
     <use style="fill:#2ca02c;stroke:#2ca02c;" x="170.118182" xlink:href="#m6cea27dd15" y="42.949663"/>
     <use style="fill:#2ca02c;stroke:#2ca02c;" x="182.928099" xlink:href="#m6cea27dd15" y="43.099323"/>
     <use style="fill:#2ca02c;stroke:#2ca02c;" x="195.738017" xlink:href="#m6cea27dd15" y="43.224283"/>
     <use style="fill:#2ca02c;stroke:#2ca02c;" x="208.547934" xlink:href="#m6cea27dd15" y="43.33019"/>
     <use style="fill:#2ca02c;stroke:#2ca02c;" x="221.357851" xlink:href="#m6cea27dd15" y="43.421094"/>
     <use style="fill:#2ca02c;stroke:#2ca02c;" x="234.167769" xlink:href="#m6cea27dd15" y="43.499973"/>
     <use style="fill:#2ca02c;stroke:#2ca02c;" x="246.977686" xlink:href="#m6cea27dd15" y="43.569063"/>
     <use style="fill:#2ca02c;stroke:#2ca02c;" x="259.787603" xlink:href="#m6cea27dd15" y="43.630081"/>
     <use style="fill:#2ca02c;stroke:#2ca02c;" x="272.597521" xlink:href="#m6cea27dd15" y="43.684364"/>
     <use style="fill:#2ca02c;stroke:#2ca02c;" x="285.407438" xlink:href="#m6cea27dd15" y="43.732967"/>
    </g>
   </g>
   <g id="line2d_15">
    <path clip-path="url(#pca9b59d2f5)" d="M 43.3 55.821216 
L 296.936364 55.821216 
" style="fill:none;stroke:#000000;stroke-dasharray:1.48,0.64;stroke-dashoffset:0;stroke-width:0.4;"/>
   </g>
   <g id="line2d_16">
    <path clip-path="url(#pca9b59d2f5)" d="M 43.3 29.454767 
L 296.936364 29.454767 
" style="fill:none;stroke:#000000;stroke-dasharray:1.48,0.64;stroke-dashoffset:0;stroke-width:0.4;"/>
   </g>
   <g id="line2d_17">
    <path clip-path="url(#pca9b59d2f5)" d="M 43.3 43.732967 
L 296.936364 43.732967 
" style="fill:none;stroke:#000000;stroke-dasharray:1.48,0.64;stroke-dashoffset:0;stroke-width:0.4;"/>
   </g>
   <g id="patch_3">
    <path d="M 43.3 170.28 
L 43.3 7.2 
" style="fill:none;stroke:#000000;stroke-linecap:square;stroke-linejoin:miter;stroke-width:0.8;"/>
   </g>
   <g id="patch_4">
    <path d="M 296.936364 170.28 
L 296.936364 7.2 
" style="fill:none;stroke:#000000;stroke-linecap:square;stroke-linejoin:miter;stroke-width:0.8;"/>
   </g>
   <g id="patch_5">
    <path d="M 43.3 170.28 
L 296.936364 170.28 
" style="fill:none;stroke:#000000;stroke-linecap:square;stroke-linejoin:miter;stroke-width:0.8;"/>
   </g>
   <g id="patch_6">
    <path d="M 43.3 7.2 
L 296.936364 7.2 
" style="fill:none;stroke:#000000;stroke-linecap:square;stroke-linejoin:miter;stroke-width:0.8;"/>
   </g>
   <g id="legend_1">
    <g id="patch_7">
     <path d="M 50.3 165.28 
L 144.792188 165.28 
Q 146.792188 165.28 146.792188 163.28 
L 146.792188 121.759688 
Q 146.792188 119.759688 144.792188 119.759688 
L 50.3 119.759688 
Q 48.3 119.759688 48.3 121.759688 
L 48.3 163.28 
Q 48.3 165.28 50.3 165.28 
z
" style="fill:#ffffff;opacity:0.8;stroke:#cccccc;stroke-linejoin:miter;"/>
    </g>
    <g id="line2d_18">
     <path d="M 52.3 127.259688 
L 72.3 127.259688 
" style="fill:none;stroke:#1f77b4;stroke-linecap:square;stroke-width:1.5;"/>
    </g>
    <g id="line2d_19">
     <g>
      <use style="fill:#1f77b4;stroke:#1f77b4;" x="62.3" xlink:href="#m225ac4584b" y="127.259688"/>
     </g>
    </g>
    <g id="text_14">
     <!-- Catalytic -->
     <g transform="translate(80.3 130.759688)scale(0.1 -0.1)">
      <defs>
       <path d="M 3930 838 
L 4051 723 
Q 3482 -90 2304 -90 
Q 1376 -90 794 480 
Q 179 1082 179 2080 
Q 179 3014 755 3661 
Q 1357 4326 2310 4326 
Q 2720 4326 3072 4230 
Q 3475 4115 3514 4115 
Q 3725 4115 3782 4326 
L 3910 4326 
L 3968 2874 
L 3821 2874 
Q 3718 3334 3488 3584 
Q 3034 4070 2458 4070 
Q 1747 4070 1334 3548 
Q 922 3027 922 2182 
Q 922 1152 1382 653 
Q 1811 192 2522 192 
Q 2944 192 3251 339 
Q 3558 486 3930 838 
z
" id="STIXGeneral-Regular-43" transform="scale(0.015625)"/>
       <path d="M 2829 422 
L 2829 243 
Q 2586 -64 2253 -64 
Q 1888 -64 1843 403 
L 1837 403 
Q 1427 -64 909 -64 
Q 608 -64 422 112 
Q 237 288 237 602 
Q 237 1050 685 1350 
Q 992 1555 1837 1869 
L 1837 2214 
Q 1837 2502 1699 2646 
Q 1562 2790 1338 2790 
Q 1146 2790 1018 2697 
Q 890 2605 890 2477 
Q 890 2419 909 2348 
Q 928 2278 928 2208 
Q 928 2112 841 2029 
Q 755 1946 634 1946 
Q 525 1946 441 2029 
Q 358 2112 358 2240 
Q 358 2547 685 2752 
Q 986 2944 1421 2944 
Q 1939 2944 2176 2656 
Q 2291 2522 2323 2384 
Q 2355 2246 2355 1946 
L 2355 723 
Q 2355 301 2554 301 
Q 2682 301 2829 422 
z
M 1837 813 
L 1837 1715 
Q 1248 1510 1018 1293 
Q 800 1094 800 800 
Q 800 557 921 432 
Q 1043 307 1242 307 
Q 1453 307 1613 410 
Q 1747 506 1792 589 
Q 1837 672 1837 813 
z
" id="STIXGeneral-Regular-61" transform="scale(0.015625)"/>
       <path d="M 1702 493 
L 1786 422 
Q 1478 -64 1011 -64 
Q 448 -64 448 749 
L 448 2675 
L 109 2675 
Q 83 2694 83 2720 
Q 83 2771 192 2842 
Q 435 2982 813 3526 
Q 826 3546 874 3606 
Q 922 3667 941 3706 
Q 986 3706 986 3622 
L 986 2880 
L 1632 2880 
L 1632 2675 
L 986 2675 
L 986 845 
Q 986 538 1062 403 
Q 1139 269 1318 269 
Q 1510 269 1702 493 
z
" id="STIXGeneral-Regular-74" transform="scale(0.015625)"/>
       <path d="M 1645 0 
L 134 0 
L 134 96 
Q 435 122 531 221 
Q 627 320 627 589 
L 627 3590 
Q 627 3821 569 3910 
Q 512 4000 358 4000 
Q 224 4000 122 3987 
L 122 4090 
Q 730 4237 1133 4371 
L 1165 4346 
L 1165 557 
Q 1165 288 1254 201 
Q 1344 115 1645 96 
L 1645 0 
z
" id="STIXGeneral-Regular-6c" transform="scale(0.015625)"/>
       <path d="M 3040 2880 
L 3040 2784 
Q 2925 2771 2854 2700 
Q 2784 2630 2720 2458 
L 1760 -160 
Q 1510 -838 1257 -1116 
Q 1005 -1395 640 -1395 
Q 435 -1395 313 -1289 
Q 192 -1184 192 -1024 
Q 192 -902 272 -816 
Q 352 -730 467 -730 
Q 653 -730 800 -813 
Q 883 -858 966 -858 
Q 1101 -858 1286 -576 
Q 1376 -448 1459 -211 
Q 1542 26 1542 115 
Q 1542 198 1274 762 
L 429 2566 
Q 346 2752 90 2790 
L 90 2880 
L 1402 2880 
L 1402 2784 
Q 1197 2778 1117 2739 
Q 1037 2701 1037 2611 
Q 1037 2541 1120 2349 
L 1837 749 
L 2458 2515 
Q 2483 2573 2483 2630 
Q 2483 2784 2189 2784 
L 2189 2880 
L 3040 2880 
z
" id="STIXGeneral-Regular-79" transform="scale(0.015625)"/>
       <path d="M 1152 4045 
Q 1152 3904 1056 3811 
Q 960 3718 819 3718 
Q 685 3718 592 3811 
Q 499 3904 499 4045 
Q 499 4179 595 4275 
Q 691 4371 826 4371 
Q 966 4371 1059 4275 
Q 1152 4179 1152 4045 
z
M 1619 0 
L 102 0 
L 102 96 
Q 435 115 521 211 
Q 608 307 608 666 
L 608 2118 
Q 608 2342 563 2432 
Q 518 2522 397 2522 
Q 243 2522 128 2490 
L 128 2592 
L 1120 2944 
L 1146 2918 
L 1146 672 
Q 1146 314 1226 218 
Q 1306 122 1619 96 
L 1619 0 
z
" id="STIXGeneral-Regular-69" transform="scale(0.015625)"/>
       <path d="M 2547 998 
L 2637 941 
Q 2362 403 2112 205 
Q 1786 -64 1376 -64 
Q 845 -64 502 336 
Q 160 736 160 1357 
Q 160 2170 698 2618 
Q 1094 2944 1562 2944 
Q 1965 2944 2256 2749 
Q 2547 2554 2547 2285 
Q 2547 2176 2457 2096 
Q 2368 2016 2246 2016 
Q 2022 2016 1939 2310 
L 1901 2451 
Q 1850 2630 1773 2694 
Q 1696 2758 1523 2758 
Q 1133 2758 893 2451 
Q 653 2144 653 1645 
Q 653 1094 928 745 
Q 1203 397 1645 397 
Q 1920 397 2118 528 
Q 2317 659 2547 998 
z
" id="STIXGeneral-Regular-63" transform="scale(0.015625)"/>
      </defs>
      <use xlink:href="#STIXGeneral-Regular-43"/>
      <use x="66.699997" xlink:href="#STIXGeneral-Regular-61"/>
      <use x="111.099991" xlink:href="#STIXGeneral-Regular-74"/>
      <use x="138.899979" xlink:href="#STIXGeneral-Regular-61"/>
      <use x="183.299973" xlink:href="#STIXGeneral-Regular-6c"/>
      <use x="211.09996" xlink:href="#STIXGeneral-Regular-79"/>
      <use x="261.099945" xlink:href="#STIXGeneral-Regular-74"/>
      <use x="288.899933" xlink:href="#STIXGeneral-Regular-69"/>
      <use x="316.699921" xlink:href="#STIXGeneral-Regular-63"/>
     </g>
    </g>
    <g id="line2d_20">
     <path d="M 52.3 141.439375 
L 72.3 141.439375 
" style="fill:none;stroke:#ff7f0e;stroke-linecap:square;stroke-width:1.5;"/>
    </g>
    <g id="line2d_21">
     <g>
      <use style="fill:#ff7f0e;stroke:#ff7f0e;" x="62.3" xlink:href="#mf2dce1f6c4" y="141.439375"/>
     </g>
    </g>
    <g id="text_15">
     <!-- R anti-selective -->
     <g transform="translate(80.3 144.939375)scale(0.1 -0.1)">
      <defs>
       <path d="M 4224 0 
L 3187 0 
L 1664 1971 
L 1306 1958 
L 1306 717 
Q 1306 352 1405 249 
Q 1504 147 1875 122 
L 1875 0 
L 109 0 
L 109 122 
Q 474 154 563 262 
Q 653 371 653 794 
L 653 3526 
Q 653 3885 563 3987 
Q 474 4090 109 4115 
L 109 4237 
L 1850 4237 
Q 2726 4237 3187 3859 
Q 3501 3603 3501 3091 
Q 3501 2221 2342 2042 
L 3622 422 
Q 3757 256 3878 198 
Q 4000 141 4224 122 
L 4224 0 
z
M 1306 3731 
L 1306 2195 
Q 1766 2202 1990 2246 
Q 2214 2291 2438 2413 
Q 2803 2618 2803 3142 
Q 2803 4000 1632 4000 
Q 1459 4000 1382 3945 
Q 1306 3891 1306 3731 
z
" id="STIXGeneral-Regular-52" transform="scale(0.015625)"/>
       <path d="M 3104 0 
L 1773 0 
L 1779 96 
Q 2016 115 2096 233 
Q 2176 352 2176 672 
L 2176 1946 
Q 2176 2592 1709 2592 
Q 1549 2592 1408 2515 
Q 1267 2438 1050 2227 
L 1050 461 
Q 1050 269 1136 192 
Q 1222 115 1466 96 
L 1466 0 
L 115 0 
L 115 96 
Q 358 115 435 214 
Q 512 314 512 602 
L 512 2157 
Q 512 2394 467 2483 
Q 422 2573 288 2573 
Q 160 2573 102 2547 
L 102 2656 
Q 550 2784 979 2944 
L 1030 2925 
L 1030 2426 
L 1037 2426 
Q 1491 2944 1958 2944 
Q 2323 2944 2518 2688 
Q 2714 2432 2714 1958 
L 2714 544 
Q 2714 288 2790 205 
Q 2867 122 3104 96 
L 3104 0 
z
" id="STIXGeneral-Regular-6e" transform="scale(0.015625)"/>
       <path d="M 1824 1242 
L 250 1242 
L 250 1645 
L 1824 1645 
L 1824 1242 
z
" id="STIXGeneral-Regular-2d" transform="scale(0.015625)"/>
       <path d="M 998 1926 
L 1664 1523 
Q 1984 1331 2105 1164 
Q 2227 998 2227 736 
Q 2227 416 1961 176 
Q 1696 -64 1331 -64 
Q 1030 -64 864 -6 
Q 691 51 570 51 
Q 461 51 416 -26 
L 333 -26 
L 333 979 
L 435 979 
Q 538 512 730 294 
Q 922 77 1248 77 
Q 1485 77 1632 211 
Q 1779 346 1779 550 
Q 1779 845 1440 1030 
L 1094 1222 
Q 326 1651 326 2150 
Q 326 2522 566 2730 
Q 806 2938 1210 2938 
Q 1491 2938 1638 2867 
Q 1754 2816 1818 2816 
Q 1862 2816 1920 2880 
L 1990 2880 
L 2022 2010 
L 1926 2010 
Q 1818 2445 1654 2621 
Q 1491 2797 1203 2797 
Q 986 2797 854 2688 
Q 723 2579 723 2362 
Q 723 2253 796 2128 
Q 870 2003 998 1926 
z
" id="STIXGeneral-Regular-73" transform="scale(0.015625)"/>
       <path d="M 2611 1050 
L 2714 1005 
Q 2330 -64 1376 -64 
Q 813 -64 486 329 
Q 160 723 160 1389 
Q 160 2074 525 2509 
Q 890 2944 1485 2944 
Q 2061 2944 2374 2502 
Q 2560 2246 2592 1773 
L 621 1773 
Q 646 1370 700 1158 
Q 755 947 915 730 
Q 1184 378 1626 378 
Q 1939 378 2153 531 
Q 2368 685 2611 1050 
z
M 634 1978 
L 1939 1978 
Q 1882 2381 1750 2547 
Q 1619 2714 1312 2714 
Q 1043 2714 864 2525 
Q 685 2336 634 1978 
z
" id="STIXGeneral-Regular-65" transform="scale(0.015625)"/>
       <path d="M 3053 2880 
L 3053 2784 
Q 2906 2771 2835 2688 
Q 2765 2605 2637 2285 
L 1818 230 
Q 1690 -90 1638 -90 
Q 1587 -90 1523 77 
Q 1510 96 1497 141 
Q 1485 186 1472 211 
L 704 2048 
Q 499 2534 403 2652 
Q 307 2771 122 2784 
L 122 2880 
L 1376 2880 
L 1376 2784 
Q 1210 2771 1146 2732 
Q 1082 2694 1082 2611 
Q 1082 2509 1139 2368 
L 1792 730 
L 2426 2387 
Q 2464 2483 2464 2579 
Q 2464 2758 2163 2784 
L 2163 2880 
L 3053 2880 
z
" id="STIXGeneral-Regular-76" transform="scale(0.015625)"/>
      </defs>
      <use xlink:href="#STIXGeneral-Regular-52"/>
      <use x="66.699997" xlink:href="#STIXGeneral-Regular-20"/>
      <use x="91.699982" xlink:href="#STIXGeneral-Regular-61"/>
      <use x="136.099976" xlink:href="#STIXGeneral-Regular-6e"/>
      <use x="186.09996" xlink:href="#STIXGeneral-Regular-74"/>
      <use x="213.899948" xlink:href="#STIXGeneral-Regular-69"/>
      <use x="241.699936" xlink:href="#STIXGeneral-Regular-2d"/>
      <use x="274.999924" xlink:href="#STIXGeneral-Regular-73"/>
      <use x="313.899918" xlink:href="#STIXGeneral-Regular-65"/>
      <use x="358.299911" xlink:href="#STIXGeneral-Regular-6c"/>
      <use x="386.099899" xlink:href="#STIXGeneral-Regular-65"/>
      <use x="430.499893" xlink:href="#STIXGeneral-Regular-63"/>
      <use x="474.899887" xlink:href="#STIXGeneral-Regular-74"/>
      <use x="502.699875" xlink:href="#STIXGeneral-Regular-69"/>
      <use x="530.499863" xlink:href="#STIXGeneral-Regular-76"/>
      <use x="580.499847" xlink:href="#STIXGeneral-Regular-65"/>
     </g>
    </g>
    <g id="line2d_22">
     <path d="M 52.3 155.609688 
L 72.3 155.609688 
" style="fill:none;stroke:#2ca02c;stroke-linecap:square;stroke-width:1.5;"/>
    </g>
    <g id="line2d_23">
     <g>
      <use style="fill:#2ca02c;stroke:#2ca02c;" x="62.3" xlink:href="#m6cea27dd15" y="155.609688"/>
     </g>
    </g>
    <g id="text_16">
     <!-- S selective -->
     <g transform="translate(80.3 159.109688)scale(0.1 -0.1)">
      <defs>
       <path d="M 3002 2963 
L 2842 2963 
Q 2733 3360 2579 3565 
Q 2189 4064 1651 4064 
Q 1357 4064 1181 3894 
Q 1005 3725 1005 3456 
Q 1005 3328 1069 3206 
Q 1133 3085 1206 2998 
Q 1280 2912 1465 2784 
Q 1651 2656 1766 2589 
Q 1882 2522 2150 2362 
Q 2669 2061 2905 1763 
Q 3142 1466 3142 1107 
Q 3142 576 2771 243 
Q 2400 -90 1837 -90 
Q 1421 -90 1082 58 
Q 915 128 781 128 
Q 704 128 653 70 
Q 602 13 602 -83 
L 461 -83 
L 275 1274 
L 416 1274 
Q 845 141 1734 141 
Q 2074 141 2285 342 
Q 2496 544 2496 858 
Q 2496 1158 2310 1363 
Q 2003 1696 1235 2106 
Q 454 2522 454 3206 
Q 454 3718 768 4022 
Q 1082 4326 1568 4326 
Q 1907 4326 2240 4186 
Q 2413 4109 2522 4109 
Q 2688 4109 2726 4326 
L 2861 4326 
L 3002 2963 
z
" id="STIXGeneral-Regular-53" transform="scale(0.015625)"/>
      </defs>
      <use xlink:href="#STIXGeneral-Regular-53"/>
      <use x="55.599991" xlink:href="#STIXGeneral-Regular-20"/>
      <use x="80.599976" xlink:href="#STIXGeneral-Regular-73"/>
      <use x="119.499969" xlink:href="#STIXGeneral-Regular-65"/>
      <use x="163.899963" xlink:href="#STIXGeneral-Regular-6c"/>
      <use x="191.699951" xlink:href="#STIXGeneral-Regular-65"/>
      <use x="236.099945" xlink:href="#STIXGeneral-Regular-63"/>
      <use x="280.499939" xlink:href="#STIXGeneral-Regular-74"/>
      <use x="308.299927" xlink:href="#STIXGeneral-Regular-69"/>
      <use x="336.099915" xlink:href="#STIXGeneral-Regular-76"/>
      <use x="386.099899" xlink:href="#STIXGeneral-Regular-65"/>
     </g>
    </g>
   </g>
  </g>
  <g id="axes_2">
   <g id="patch_8">
    <path d="M 347.663636 170.28 
L 601.3 170.28 
L 601.3 7.2 
L 347.663636 7.2 
z
" style="fill:#ffffff;"/>
   </g>
   <g id="matplotlib.axis_3">
    <g id="xtick_5">
     <g id="line2d_24">
      <g>
       <use style="stroke:#000000;stroke-width:0.8;" x="397.622314" xlink:href="#m6fc44ffd56" y="170.28"/>
      </g>
     </g>
     <g id="text_17">
      <!-- 20 -->
      <g transform="translate(392.622314 184.109688)scale(0.1 -0.1)">
       <use xlink:href="#STIXGeneral-Regular-32"/>
       <use x="49.999985" xlink:href="#STIXGeneral-Regular-30"/>
      </g>
     </g>
    </g>
    <g id="xtick_6">
     <g id="line2d_25">
      <g>
       <use style="stroke:#000000;stroke-width:0.8;" x="448.861983" xlink:href="#m6fc44ffd56" y="170.28"/>
      </g>
     </g>
     <g id="text_18">
      <!-- 40 -->
      <g transform="translate(443.861983 184.109688)scale(0.1 -0.1)">
       <use xlink:href="#STIXGeneral-Regular-34"/>
       <use x="49.999985" xlink:href="#STIXGeneral-Regular-30"/>
      </g>
     </g>
    </g>
    <g id="xtick_7">
     <g id="line2d_26">
      <g>
       <use style="stroke:#000000;stroke-width:0.8;" x="500.101653" xlink:href="#m6fc44ffd56" y="170.28"/>
      </g>
     </g>
     <g id="text_19">
      <!-- 60 -->
      <g transform="translate(495.101653 184.109688)scale(0.1 -0.1)">
       <use xlink:href="#STIXGeneral-Regular-36"/>
       <use x="49.999985" xlink:href="#STIXGeneral-Regular-30"/>
      </g>
     </g>
    </g>
    <g id="xtick_8">
     <g id="line2d_27">
      <g>
       <use style="stroke:#000000;stroke-width:0.8;" x="551.341322" xlink:href="#m6fc44ffd56" y="170.28"/>
      </g>
     </g>
     <g id="text_20">
      <!-- 80 -->
      <g transform="translate(546.341322 184.109688)scale(0.1 -0.1)">
       <use xlink:href="#STIXGeneral-Regular-38"/>
       <use x="49.999985" xlink:href="#STIXGeneral-Regular-30"/>
      </g>
     </g>
    </g>
    <g id="text_21">
     <!-- $\varepsilon_r$ -->
     <g transform="translate(470.631818 197.109688)scale(0.1 -0.1)">
      <use transform="translate(0 0.90625)" xlink:href="#STIXGeneral-Italic-3b5"/>
      <use transform="translate(44.399994 -12.321875)scale(0.7)" xlink:href="#STIXGeneral-Italic-72"/>
     </g>
    </g>
   </g>
   <g id="matplotlib.axis_4">
    <g id="ytick_8">
     <g id="line2d_28">
      <g>
       <use style="stroke:#000000;stroke-width:0.8;" x="347.663636" xlink:href="#mf66be33edc" y="150.221195"/>
      </g>
     </g>
     <g id="text_22">
      <!-- −11.25 -->
      <g transform="translate(311.313636 153.636038)scale(0.1 -0.1)">
       <defs>
        <path d="M 1158 275 
Q 1158 134 1052 32 
Q 947 -70 800 -70 
Q 653 -70 550 32 
Q 448 134 448 281 
Q 448 429 553 534 
Q 659 640 806 640 
Q 947 640 1052 531 
Q 1158 422 1158 275 
z
" id="STIXGeneral-Regular-2e" transform="scale(0.015625)"/>
        <path d="M 2803 4358 
L 2573 3814 
Q 2534 3731 2400 3731 
L 1158 3731 
L 902 3187 
Q 1606 3053 1920 2896 
Q 2234 2739 2502 2368 
Q 2726 2061 2726 1555 
Q 2726 1094 2576 780 
Q 2426 467 2099 224 
Q 1664 -90 1011 -90 
Q 646 -90 422 19 
Q 198 128 198 307 
Q 198 550 486 550 
Q 717 550 960 352 
Q 1210 147 1414 147 
Q 1747 147 2012 480 
Q 2278 813 2278 1229 
Q 2278 1843 1850 2189 
Q 1293 2637 486 2637 
Q 410 2637 410 2688 
L 416 2720 
L 1114 4237 
L 2438 4237 
Q 2547 4237 2608 4269 
Q 2669 4301 2746 4403 
L 2803 4358 
z
" id="STIXGeneral-Regular-35" transform="scale(0.015625)"/>
       </defs>
       <use xlink:href="#STIXGeneral-Regular-2212"/>
       <use x="68.499985" xlink:href="#STIXGeneral-Regular-31"/>
       <use x="118.499969" xlink:href="#STIXGeneral-Regular-31"/>
       <use x="168.499954" xlink:href="#STIXGeneral-Regular-2e"/>
       <use x="193.499939" xlink:href="#STIXGeneral-Regular-32"/>
       <use x="243.499924" xlink:href="#STIXGeneral-Regular-35"/>
      </g>
     </g>
    </g>
    <g id="ytick_9">
     <g id="line2d_29">
      <g>
       <use style="stroke:#000000;stroke-width:0.8;" x="347.663636" xlink:href="#mf66be33edc" y="126.258576"/>
      </g>
     </g>
     <g id="text_23">
      <!-- −11.00 -->
      <g transform="translate(311.313636 129.67342)scale(0.1 -0.1)">
       <use xlink:href="#STIXGeneral-Regular-2212"/>
       <use x="68.499985" xlink:href="#STIXGeneral-Regular-31"/>
       <use x="118.499969" xlink:href="#STIXGeneral-Regular-31"/>
       <use x="168.499954" xlink:href="#STIXGeneral-Regular-2e"/>
       <use x="193.499939" xlink:href="#STIXGeneral-Regular-30"/>
       <use x="243.499924" xlink:href="#STIXGeneral-Regular-30"/>
      </g>
     </g>
    </g>
    <g id="ytick_10">
     <g id="line2d_30">
      <g>
       <use style="stroke:#000000;stroke-width:0.8;" x="347.663636" xlink:href="#mf66be33edc" y="102.295958"/>
      </g>
     </g>
     <g id="text_24">
      <!-- −10.75 -->
      <g transform="translate(311.313636 105.710802)scale(0.1 -0.1)">
       <defs>
        <path d="M 2874 4134 
L 1517 -51 
L 1101 -51 
L 2368 3763 
L 992 3763 
Q 717 3763 582 3667 
Q 448 3571 243 3238 
L 128 3296 
L 512 4237 
L 2874 4237 
L 2874 4134 
z
" id="STIXGeneral-Regular-37" transform="scale(0.015625)"/>
       </defs>
       <use xlink:href="#STIXGeneral-Regular-2212"/>
       <use x="68.499985" xlink:href="#STIXGeneral-Regular-31"/>
       <use x="118.499969" xlink:href="#STIXGeneral-Regular-30"/>
       <use x="168.499954" xlink:href="#STIXGeneral-Regular-2e"/>
       <use x="193.499939" xlink:href="#STIXGeneral-Regular-37"/>
       <use x="243.499924" xlink:href="#STIXGeneral-Regular-35"/>
      </g>
     </g>
    </g>
    <g id="ytick_11">
     <g id="line2d_31">
      <g>
       <use style="stroke:#000000;stroke-width:0.8;" x="347.663636" xlink:href="#mf66be33edc" y="78.33334"/>
      </g>
     </g>
     <g id="text_25">
      <!-- −10.50 -->
      <g transform="translate(311.313636 81.748184)scale(0.1 -0.1)">
       <use xlink:href="#STIXGeneral-Regular-2212"/>
       <use x="68.499985" xlink:href="#STIXGeneral-Regular-31"/>
       <use x="118.499969" xlink:href="#STIXGeneral-Regular-30"/>
       <use x="168.499954" xlink:href="#STIXGeneral-Regular-2e"/>
       <use x="193.499939" xlink:href="#STIXGeneral-Regular-35"/>
       <use x="243.499924" xlink:href="#STIXGeneral-Regular-30"/>
      </g>
     </g>
    </g>
    <g id="ytick_12">
     <g id="line2d_32">
      <g>
       <use style="stroke:#000000;stroke-width:0.8;" x="347.663636" xlink:href="#mf66be33edc" y="54.370722"/>
      </g>
     </g>
     <g id="text_26">
      <!-- −10.25 -->
      <g transform="translate(311.313636 57.785565)scale(0.1 -0.1)">
       <use xlink:href="#STIXGeneral-Regular-2212"/>
       <use x="68.499985" xlink:href="#STIXGeneral-Regular-31"/>
       <use x="118.499969" xlink:href="#STIXGeneral-Regular-30"/>
       <use x="168.499954" xlink:href="#STIXGeneral-Regular-2e"/>
       <use x="193.499939" xlink:href="#STIXGeneral-Regular-32"/>
       <use x="243.499924" xlink:href="#STIXGeneral-Regular-35"/>
      </g>
     </g>
    </g>
    <g id="ytick_13">
     <g id="line2d_33">
      <g>
       <use style="stroke:#000000;stroke-width:0.8;" x="347.663636" xlink:href="#mf66be33edc" y="30.408103"/>
      </g>
     </g>
     <g id="text_27">
      <!-- −10.00 -->
      <g transform="translate(311.313636 33.822947)scale(0.1 -0.1)">
       <use xlink:href="#STIXGeneral-Regular-2212"/>
       <use x="68.499985" xlink:href="#STIXGeneral-Regular-31"/>
       <use x="118.499969" xlink:href="#STIXGeneral-Regular-30"/>
       <use x="168.499954" xlink:href="#STIXGeneral-Regular-2e"/>
       <use x="193.499939" xlink:href="#STIXGeneral-Regular-30"/>
       <use x="243.499924" xlink:href="#STIXGeneral-Regular-30"/>
      </g>
     </g>
    </g>
    <g id="text_28">
     <!-- $\Delta\Delta E^\ddag$ R/S separation ($KJ\cdot mol^{-1}$) -->
     <g transform="translate(305.113636 157.54)rotate(-90)scale(0.1 -0.1)">
      <defs>
       <path d="M 1837 4326 
L 378 -90 
L -58 -90 
L 1408 4326 
L 1837 4326 
z
" id="STIXGeneral-Regular-2f" transform="scale(0.015625)"/>
       <path d="M 1018 2931 
L 1018 2438 
Q 1421 2944 1939 2944 
Q 2406 2944 2707 2560 
Q 3008 2176 3008 1581 
Q 3008 883 2621 409 
Q 2234 -64 1664 -64 
Q 1466 -64 1328 -6 
Q 1190 51 1018 211 
L 1018 -794 
Q 1018 -1094 1120 -1180 
Q 1222 -1267 1581 -1274 
L 1581 -1389 
L 32 -1389 
L 32 -1280 
Q 314 -1254 397 -1171 
Q 480 -1088 480 -838 
L 480 2157 
Q 480 2381 429 2451 
Q 378 2522 218 2522 
Q 115 2522 58 2515 
L 58 2618 
Q 506 2752 979 2944 
L 1018 2931 
z
M 1018 2138 
L 1018 563 
Q 1018 422 1238 281 
Q 1459 141 1683 141 
Q 2029 141 2243 467 
Q 2458 794 2458 1325 
Q 2458 1888 2243 2224 
Q 2029 2560 1670 2560 
Q 1446 2560 1232 2419 
Q 1018 2278 1018 2138 
z
" id="STIXGeneral-Regular-70" transform="scale(0.015625)"/>
       <path d="M 1024 2931 
L 1024 2342 
Q 1267 2688 1430 2816 
Q 1594 2944 1792 2944 
Q 1958 2944 2051 2854 
Q 2144 2765 2144 2605 
Q 2144 2470 2077 2393 
Q 2010 2317 1894 2317 
Q 1773 2317 1638 2445 
Q 1536 2541 1472 2541 
Q 1338 2541 1181 2355 
Q 1024 2170 1024 2016 
L 1024 576 
Q 1024 301 1133 205 
Q 1242 109 1568 96 
L 1568 0 
L 32 0 
L 32 96 
Q 339 154 412 224 
Q 486 294 486 538 
L 486 2138 
Q 486 2349 438 2435 
Q 390 2522 269 2522 
Q 166 2522 45 2496 
L 45 2598 
Q 448 2726 992 2944 
L 1024 2931 
z
" id="STIXGeneral-Regular-72" transform="scale(0.015625)"/>
       <path d="M 3008 1478 
Q 3008 806 2608 371 
Q 2208 -64 1568 -64 
Q 979 -64 582 368 
Q 186 800 186 1459 
Q 186 2125 582 2534 
Q 979 2944 1626 2944 
Q 2221 2944 2614 2537 
Q 3008 2131 3008 1478 
z
M 2432 1306 
Q 2432 2035 2112 2445 
Q 1856 2765 1504 2765 
Q 1171 2765 966 2493 
Q 762 2221 762 1747 
Q 762 928 1101 435 
Q 1318 115 1677 115 
Q 2029 115 2230 432 
Q 2432 749 2432 1306 
z
" id="STIXGeneral-Regular-6f" transform="scale(0.015625)"/>
      </defs>
      <use transform="translate(0 0.409375)" xlink:href="#STIXGeneral-Regular-394"/>
      <use transform="translate(72.199982 0.409375)" xlink:href="#STIXGeneral-Regular-394"/>
      <use transform="translate(144.399963 0.409375)" xlink:href="#STIXGeneral-Italic-45"/>
      <use transform="translate(216.125735 35.684375)scale(0.7)" xlink:href="#STIXGeneral-Regular-2021"/>
      <use transform="translate(255.5351 0.409375)" xlink:href="#STIXGeneral-Regular-20"/>
      <use transform="translate(280.535085 0.409375)" xlink:href="#STIXGeneral-Regular-52"/>
      <use transform="translate(347.235081 0.409375)" xlink:href="#STIXGeneral-Regular-2f"/>
      <use transform="translate(375.035069 0.409375)" xlink:href="#STIXGeneral-Regular-53"/>
      <use transform="translate(430.63506 0.409375)" xlink:href="#STIXGeneral-Regular-20"/>
      <use transform="translate(455.635045 0.409375)" xlink:href="#STIXGeneral-Regular-73"/>
      <use transform="translate(494.535039 0.409375)" xlink:href="#STIXGeneral-Regular-65"/>
      <use transform="translate(538.935033 0.409375)" xlink:href="#STIXGeneral-Regular-70"/>
      <use transform="translate(588.935017 0.409375)" xlink:href="#STIXGeneral-Regular-61"/>
      <use transform="translate(633.335011 0.409375)" xlink:href="#STIXGeneral-Regular-72"/>
      <use transform="translate(666.634999 0.409375)" xlink:href="#STIXGeneral-Regular-61"/>
      <use transform="translate(711.034993 0.409375)" xlink:href="#STIXGeneral-Regular-74"/>
      <use transform="translate(738.834981 0.409375)" xlink:href="#STIXGeneral-Regular-69"/>
      <use transform="translate(766.634969 0.409375)" xlink:href="#STIXGeneral-Regular-6f"/>
      <use transform="translate(816.634953 0.409375)" xlink:href="#STIXGeneral-Regular-6e"/>
      <use transform="translate(866.634938 0.409375)" xlink:href="#STIXGeneral-Regular-20"/>
      <use transform="translate(891.634923 0.409375)" xlink:href="#STIXGeneral-Regular-28"/>
      <use transform="translate(924.934911 0.409375)" xlink:href="#STIXGeneral-Italic-4b"/>
      <use transform="translate(991.634908 0.409375)" xlink:href="#STIXGeneral-Italic-4a"/>
      <use transform="translate(1050.474898 0.409375)" xlink:href="#STIXGeneral-Regular-22c5"/>
      <use transform="translate(1093.514885 0.409375)" xlink:href="#STIXGeneral-Italic-6d"/>
      <use transform="translate(1165.714867 0.409375)" xlink:href="#STIXGeneral-Italic-6f"/>
      <use transform="translate(1215.714851 0.409375)" xlink:href="#STIXGeneral-Italic-6c"/>
      <use transform="translate(1254.77062 35.684375)scale(0.7)" xlink:href="#STIXGeneral-Regular-2212"/>
      <use transform="translate(1302.72061 35.684375)scale(0.7)" xlink:href="#STIXGeneral-Regular-31"/>
      <use transform="translate(1342.129974 0.409375)" xlink:href="#STIXGeneral-Regular-29"/>
     </g>
    </g>
   </g>
   <g id="line2d_34">
    <path clip-path="url(#pffd35870f2)" d="M 359.192562 14.612727 
L 372.002479 89.551344 
L 384.812397 116.127026 
L 397.622314 129.736993 
L 410.432231 138.00911 
L 423.242149 143.568905 
L 436.052066 147.562536 
L 448.861983 150.569965 
L 461.671901 152.916561 
L 474.481818 154.798296 
L 487.291736 156.341063 
L 500.101653 157.628859 
L 512.91157 158.719833 
L 525.721488 159.656209 
L 538.531405 160.468625 
L 551.341322 161.180013 
L 564.15124 161.808229 
L 576.961157 162.367055 
L 589.771074 162.867273 
" style="fill:none;stroke:#1f77b4;stroke-linecap:square;stroke-width:1.5;"/>
    <g clip-path="url(#pffd35870f2)">
     <use style="fill:#1f77b4;stroke:#1f77b4;" x="359.192562" xlink:href="#m225ac4584b" y="14.612727"/>
     <use style="fill:#1f77b4;stroke:#1f77b4;" x="372.002479" xlink:href="#m225ac4584b" y="89.551344"/>
     <use style="fill:#1f77b4;stroke:#1f77b4;" x="384.812397" xlink:href="#m225ac4584b" y="116.127026"/>
     <use style="fill:#1f77b4;stroke:#1f77b4;" x="397.622314" xlink:href="#m225ac4584b" y="129.736993"/>
     <use style="fill:#1f77b4;stroke:#1f77b4;" x="410.432231" xlink:href="#m225ac4584b" y="138.00911"/>
     <use style="fill:#1f77b4;stroke:#1f77b4;" x="423.242149" xlink:href="#m225ac4584b" y="143.568905"/>
     <use style="fill:#1f77b4;stroke:#1f77b4;" x="436.052066" xlink:href="#m225ac4584b" y="147.562536"/>
     <use style="fill:#1f77b4;stroke:#1f77b4;" x="448.861983" xlink:href="#m225ac4584b" y="150.569965"/>
     <use style="fill:#1f77b4;stroke:#1f77b4;" x="461.671901" xlink:href="#m225ac4584b" y="152.916561"/>
     <use style="fill:#1f77b4;stroke:#1f77b4;" x="474.481818" xlink:href="#m225ac4584b" y="154.798296"/>
     <use style="fill:#1f77b4;stroke:#1f77b4;" x="487.291736" xlink:href="#m225ac4584b" y="156.341063"/>
     <use style="fill:#1f77b4;stroke:#1f77b4;" x="500.101653" xlink:href="#m225ac4584b" y="157.628859"/>
     <use style="fill:#1f77b4;stroke:#1f77b4;" x="512.91157" xlink:href="#m225ac4584b" y="158.719833"/>
     <use style="fill:#1f77b4;stroke:#1f77b4;" x="525.721488" xlink:href="#m225ac4584b" y="159.656209"/>
     <use style="fill:#1f77b4;stroke:#1f77b4;" x="538.531405" xlink:href="#m225ac4584b" y="160.468625"/>
     <use style="fill:#1f77b4;stroke:#1f77b4;" x="551.341322" xlink:href="#m225ac4584b" y="161.180013"/>
     <use style="fill:#1f77b4;stroke:#1f77b4;" x="564.15124" xlink:href="#m225ac4584b" y="161.808229"/>
     <use style="fill:#1f77b4;stroke:#1f77b4;" x="576.961157" xlink:href="#m225ac4584b" y="162.367055"/>
     <use style="fill:#1f77b4;stroke:#1f77b4;" x="589.771074" xlink:href="#m225ac4584b" y="162.867273"/>
    </g>
   </g>
   <g id="line2d_35">
    <path clip-path="url(#pffd35870f2)" d="M 347.663636 162.867273 
L 601.3 162.867273 
" style="fill:none;stroke:#000000;stroke-dasharray:1.48,0.64;stroke-dashoffset:0;stroke-width:0.4;"/>
   </g>
   <g id="patch_9">
    <path d="M 347.663636 170.28 
L 347.663636 7.2 
" style="fill:none;stroke:#000000;stroke-linecap:square;stroke-linejoin:miter;stroke-width:0.8;"/>
   </g>
   <g id="patch_10">
    <path d="M 601.3 170.28 
L 601.3 7.2 
" style="fill:none;stroke:#000000;stroke-linecap:square;stroke-linejoin:miter;stroke-width:0.8;"/>
   </g>
   <g id="patch_11">
    <path d="M 347.663636 170.28 
L 601.3 170.28 
" style="fill:none;stroke:#000000;stroke-linecap:square;stroke-linejoin:miter;stroke-width:0.8;"/>
   </g>
   <g id="patch_12">
    <path d="M 347.663636 7.2 
L 601.3 7.2 
" style="fill:none;stroke:#000000;stroke-linecap:square;stroke-linejoin:miter;stroke-width:0.8;"/>
   </g>
  </g>
 </g>
 <defs>
  <clipPath id="pca9b59d2f5">
   <rect height="163.08" width="253.636364" x="43.3" y="7.2"/>
  </clipPath>
  <clipPath id="pffd35870f2">
   <rect height="163.08" width="253.636364" x="347.663636" y="7.2"/>
  </clipPath>
 </defs>
</svg>
