<?xml version="1.0" encoding="utf-8" standalone="no"?>
<!DOCTYPE svg PUBLIC "-//W3C//DTD SVG 1.1//EN"
  "http://www.w3.org/Graphics/SVG/1.1/DTD/svg11.dtd">
<svg height="206.48pt" version="1.1" viewBox="0 0 319.5 206.48" width="319.5pt" xmlns="http://www.w3.org/2000/svg" xmlns:xlink="http://www.w3.org/1999/xlink">
 <metadata>
  <rdf:RDF xmlns:cc="http://creativecommons.org/ns#" xmlns:dc="http://purl.org/dc/elements/1.1/" xmlns:rdf="http://www.w3.org/1999/02/22-rdf-syntax-ns#">
   <cc:Work>
    <dc:type rdf:resource="http://purl.org/dc/dcmitype/StillImage"/>
    <dc:date>2021-10-07T15:57:11.104038</dc:date>
    <dc:format>image/svg+xml</dc:format>
    <dc:creator>
     <cc:Agent>
      <dc:title>Matplotlib v3.4.3, https://matplotlib.org/</dc:title>
     </cc:Agent>
    </dc:creator>
   </cc:Work>
  </rdf:RDF>
 </metadata>
 <defs>
  <style type="text/css">*{stroke-linecap:butt;stroke-linejoin:round;}</style>
 </defs>
 <g id="figure_1">
  <g id="patch_1">
   <path d="M 0 206.48 
L 319.5 206.48 
L 319.5 0 
L 0 0 
z
" style="fill:none;"/>
  </g>
  <g id="axes_1">
   <g id="patch_2">
    <path d="M 33.3 170.28 
L 312.3 170.28 
L 312.3 7.2 
L 33.3 7.2 
z
" style="fill:#ffffff;"/>
   </g>
   <g id="matplotlib.axis_1">
    <g id="xtick_1">
     <g id="line2d_1">
      <defs>
       <path d="M 0 0 
L 0 3.5 
" id="m8698713e9f" style="stroke:#000000;stroke-width:0.8;"/>
      </defs>
      <g>
       <use style="stroke:#000000;stroke-width:0.8;" x="45.981818" xlink:href="#m8698713e9f" y="170.28"/>
      </g>
     </g>
     <g id="text_1">
      <!-- 0 -->
      <g transform="translate(43.481818 184.109688)scale(0.1 -0.1)">
       <defs>
        <path d="M 3046 2112 
Q 3046 1683 2963 1302 
Q 2880 922 2717 602 
Q 2554 282 2266 96 
Q 1978 -90 1600 -90 
Q 1210 -90 915 108 
Q 621 307 461 640 
Q 301 973 227 1350 
Q 154 1728 154 2150 
Q 154 2746 301 3222 
Q 448 3699 790 4012 
Q 1133 4326 1626 4326 
Q 2253 4326 2649 3712 
Q 3046 3098 3046 2112 
z
M 2432 2080 
Q 2432 3091 2217 3625 
Q 2003 4160 1587 4160 
Q 1190 4160 979 3622 
Q 768 3085 768 2106 
Q 768 1120 979 598 
Q 1190 77 1600 77 
Q 2003 77 2217 598 
Q 2432 1120 2432 2080 
z
" id="STIXGeneral-Regular-30" transform="scale(0.015625)"/>
       </defs>
       <use xlink:href="#STIXGeneral-Regular-30"/>
      </g>
     </g>
    </g>
    <g id="xtick_2">
     <g id="line2d_2">
      <g>
       <use style="stroke:#000000;stroke-width:0.8;" x="78.333395" xlink:href="#m8698713e9f" y="170.28"/>
      </g>
     </g>
     <g id="text_2">
      <!-- 10 -->
      <g transform="translate(73.333395 184.109688)scale(0.1 -0.1)">
       <defs>
        <path d="M 2522 0 
L 755 0 
L 755 96 
Q 1107 115 1235 227 
Q 1363 339 1363 608 
L 1363 3482 
Q 1363 3795 1171 3795 
Q 1082 3795 883 3718 
L 710 3654 
L 710 3744 
L 1856 4326 
L 1914 4307 
L 1914 486 
Q 1914 275 2042 185 
Q 2170 96 2522 96 
L 2522 0 
z
" id="STIXGeneral-Regular-31" transform="scale(0.015625)"/>
       </defs>
       <use xlink:href="#STIXGeneral-Regular-31"/>
       <use x="49.999985" xlink:href="#STIXGeneral-Regular-30"/>
      </g>
     </g>
    </g>
    <g id="xtick_3">
     <g id="line2d_3">
      <g>
       <use style="stroke:#000000;stroke-width:0.8;" x="110.684972" xlink:href="#m8698713e9f" y="170.28"/>
      </g>
     </g>
     <g id="text_3">
      <!-- 20 -->
      <g transform="translate(105.684972 184.109688)scale(0.1 -0.1)">
       <defs>
        <path d="M 3034 877 
L 2688 0 
L 186 0 
L 186 77 
L 1325 1286 
Q 1773 1754 1965 2144 
Q 2157 2534 2157 2950 
Q 2157 3379 1920 3616 
Q 1683 3853 1267 3853 
Q 922 3853 720 3673 
Q 518 3494 326 3021 
L 192 3053 
Q 301 3648 630 3987 
Q 960 4326 1523 4326 
Q 2054 4326 2380 4006 
Q 2707 3686 2707 3200 
Q 2707 2477 1888 1613 
L 832 486 
L 2330 486 
Q 2541 486 2665 569 
Q 2790 653 2944 915 
L 3034 877 
z
" id="STIXGeneral-Regular-32" transform="scale(0.015625)"/>
       </defs>
       <use xlink:href="#STIXGeneral-Regular-32"/>
       <use x="49.999985" xlink:href="#STIXGeneral-Regular-30"/>
      </g>
     </g>
    </g>
    <g id="xtick_4">
     <g id="line2d_4">
      <g>
       <use style="stroke:#000000;stroke-width:0.8;" x="143.036549" xlink:href="#m8698713e9f" y="170.28"/>
      </g>
     </g>
     <g id="text_4">
      <!-- 30 -->
      <g transform="translate(138.036549 184.109688)scale(0.1 -0.1)">
       <defs>
        <path d="M 390 3264 
L 288 3290 
Q 435 3770 748 4048 
Q 1062 4326 1542 4326 
Q 1990 4326 2265 4083 
Q 2541 3840 2541 3450 
Q 2541 2925 1946 2566 
Q 2298 2413 2477 2227 
Q 2758 1914 2758 1402 
Q 2758 890 2464 506 
Q 2246 211 1840 60 
Q 1434 -90 979 -90 
Q 262 -90 262 275 
Q 262 378 339 442 
Q 416 506 525 506 
Q 685 506 915 339 
Q 1197 141 1466 141 
Q 1818 141 2058 425 
Q 2298 710 2298 1120 
Q 2298 1856 1632 2048 
Q 1434 2112 979 2112 
L 979 2202 
Q 1338 2323 1517 2432 
Q 2035 2726 2035 3290 
Q 2035 3610 1852 3776 
Q 1670 3942 1344 3942 
Q 768 3942 390 3264 
z
" id="STIXGeneral-Regular-33" transform="scale(0.015625)"/>
       </defs>
       <use xlink:href="#STIXGeneral-Regular-33"/>
       <use x="49.999985" xlink:href="#STIXGeneral-Regular-30"/>
      </g>
     </g>
    </g>
    <g id="xtick_5">
     <g id="line2d_5">
      <g>
       <use style="stroke:#000000;stroke-width:0.8;" x="175.388126" xlink:href="#m8698713e9f" y="170.28"/>
      </g>
     </g>
     <g id="text_5">
      <!-- 40 -->
      <g transform="translate(170.388126 184.109688)scale(0.1 -0.1)">
       <defs>
        <path d="M 3027 1069 
L 2368 1069 
L 2368 0 
L 1869 0 
L 1869 1069 
L 77 1069 
L 77 1478 
L 2086 4326 
L 2368 4326 
L 2368 1478 
L 3027 1478 
L 3027 1069 
z
M 1869 1478 
L 1869 3674 
L 333 1478 
L 1869 1478 
z
" id="STIXGeneral-Regular-34" transform="scale(0.015625)"/>
       </defs>
       <use xlink:href="#STIXGeneral-Regular-34"/>
       <use x="49.999985" xlink:href="#STIXGeneral-Regular-30"/>
      </g>
     </g>
    </g>
    <g id="xtick_6">
     <g id="line2d_6">
      <g>
       <use style="stroke:#000000;stroke-width:0.8;" x="207.739703" xlink:href="#m8698713e9f" y="170.28"/>
      </g>
     </g>
     <g id="text_6">
      <!-- 50 -->
      <g transform="translate(202.739703 184.109688)scale(0.1 -0.1)">
       <defs>
        <path d="M 2803 4358 
L 2573 3814 
Q 2534 3731 2400 3731 
L 1158 3731 
L 902 3187 
Q 1606 3053 1920 2896 
Q 2234 2739 2502 2368 
Q 2726 2061 2726 1555 
Q 2726 1094 2576 780 
Q 2426 467 2099 224 
Q 1664 -90 1011 -90 
Q 646 -90 422 19 
Q 198 128 198 307 
Q 198 550 486 550 
Q 717 550 960 352 
Q 1210 147 1414 147 
Q 1747 147 2012 480 
Q 2278 813 2278 1229 
Q 2278 1843 1850 2189 
Q 1293 2637 486 2637 
Q 410 2637 410 2688 
L 416 2720 
L 1114 4237 
L 2438 4237 
Q 2547 4237 2608 4269 
Q 2669 4301 2746 4403 
L 2803 4358 
z
" id="STIXGeneral-Regular-35" transform="scale(0.015625)"/>
       </defs>
       <use xlink:href="#STIXGeneral-Regular-35"/>
       <use x="49.999985" xlink:href="#STIXGeneral-Regular-30"/>
      </g>
     </g>
    </g>
    <g id="xtick_7">
     <g id="line2d_7">
      <g>
       <use style="stroke:#000000;stroke-width:0.8;" x="240.09128" xlink:href="#m8698713e9f" y="170.28"/>
      </g>
     </g>
     <g id="text_7">
      <!-- 60 -->
      <g transform="translate(235.09128 184.109688)scale(0.1 -0.1)">
       <defs>
        <path d="M 2854 4378 
L 2867 4275 
Q 2112 4154 1606 3664 
Q 1101 3174 973 2451 
Q 1344 2739 1786 2739 
Q 2349 2739 2672 2380 
Q 2995 2022 2995 1402 
Q 2995 774 2669 378 
Q 2291 -90 1651 -90 
Q 870 -90 518 557 
Q 218 1107 218 1786 
Q 218 2835 915 3552 
Q 1312 3962 1731 4131 
Q 2150 4301 2854 4378 
z
M 2419 1203 
Q 2419 2445 1555 2445 
Q 1235 2445 1024 2275 
Q 813 2106 813 1702 
Q 813 954 1046 522 
Q 1280 90 1722 90 
Q 2061 90 2240 394 
Q 2419 698 2419 1203 
z
" id="STIXGeneral-Regular-36" transform="scale(0.015625)"/>
       </defs>
       <use xlink:href="#STIXGeneral-Regular-36"/>
       <use x="49.999985" xlink:href="#STIXGeneral-Regular-30"/>
      </g>
     </g>
    </g>
    <g id="xtick_8">
     <g id="line2d_8">
      <g>
       <use style="stroke:#000000;stroke-width:0.8;" x="272.442857" xlink:href="#m8698713e9f" y="170.28"/>
      </g>
     </g>
     <g id="text_8">
      <!-- 70 -->
      <g transform="translate(267.442857 184.109688)scale(0.1 -0.1)">
       <defs>
        <path d="M 2874 4134 
L 1517 -51 
L 1101 -51 
L 2368 3763 
L 992 3763 
Q 717 3763 582 3667 
Q 448 3571 243 3238 
L 128 3296 
L 512 4237 
L 2874 4237 
L 2874 4134 
z
" id="STIXGeneral-Regular-37" transform="scale(0.015625)"/>
       </defs>
       <use xlink:href="#STIXGeneral-Regular-37"/>
       <use x="49.999985" xlink:href="#STIXGeneral-Regular-30"/>
      </g>
     </g>
    </g>
    <g id="xtick_9">
     <g id="line2d_9">
      <g>
       <use style="stroke:#000000;stroke-width:0.8;" x="304.794434" xlink:href="#m8698713e9f" y="170.28"/>
      </g>
     </g>
     <g id="text_9">
      <!-- 80 -->
      <g transform="translate(299.794434 184.109688)scale(0.1 -0.1)">
       <defs>
        <path d="M 2848 992 
Q 2848 499 2505 204 
Q 2163 -90 1587 -90 
Q 1050 -90 704 204 
Q 358 499 358 954 
Q 358 1293 524 1533 
Q 691 1773 1190 2125 
Q 710 2522 553 2765 
Q 397 3008 397 3328 
Q 397 3782 745 4054 
Q 1094 4326 1638 4326 
Q 2106 4326 2410 4060 
Q 2714 3795 2714 3411 
Q 2714 3059 2531 2848 
Q 2349 2637 1856 2374 
Q 2432 1990 2640 1689 
Q 2848 1389 2848 992 
z
M 2272 3411 
Q 2272 3744 2086 3945 
Q 1901 4147 1574 4147 
Q 1248 4147 1059 3977 
Q 870 3808 870 3513 
Q 870 3219 1059 2979 
Q 1248 2739 1670 2490 
Q 1997 2682 2134 2896 
Q 2272 3110 2272 3411 
z
M 1734 1741 
L 1357 1997 
Q 1075 1766 960 1545 
Q 845 1325 845 1011 
Q 845 576 1065 333 
Q 1286 90 1658 90 
Q 1971 90 2166 285 
Q 2362 480 2362 794 
Q 2362 1082 2214 1299 
Q 2067 1517 1734 1741 
z
" id="STIXGeneral-Regular-38" transform="scale(0.015625)"/>
       </defs>
       <use xlink:href="#STIXGeneral-Regular-38"/>
       <use x="49.999985" xlink:href="#STIXGeneral-Regular-30"/>
      </g>
     </g>
    </g>
    <g id="text_10">
     <!-- $\varepsilon_r$ -->
     <g transform="translate(168.95 197.109688)scale(0.1 -0.1)">
      <defs>
       <path d="M 2304 627 
L 2406 563 
Q 1907 -70 1133 -70 
Q 192 -70 192 640 
Q 192 928 403 1158 
Q 614 1389 934 1472 
Q 774 1498 684 1616 
Q 595 1734 595 1882 
Q 602 2266 995 2544 
Q 1389 2822 2029 2822 
Q 2336 2822 2528 2672 
Q 2720 2522 2720 2291 
Q 2720 2163 2617 2080 
Q 2515 1997 2413 1997 
Q 2298 1997 2230 2067 
Q 2163 2138 2163 2253 
Q 2163 2317 2211 2409 
Q 2259 2502 2259 2560 
Q 2259 2688 2022 2688 
Q 1683 2688 1401 2496 
Q 1120 2304 1120 1907 
Q 1120 1741 1251 1654 
Q 1382 1568 1594 1568 
Q 1613 1568 1728 1590 
Q 1843 1613 1932 1613 
Q 2022 1613 2086 1574 
Q 2150 1536 2150 1478 
Q 2150 1306 1862 1306 
Q 1805 1306 1721 1334 
Q 1638 1363 1568 1363 
Q 1286 1363 1014 1184 
Q 742 1005 742 678 
Q 742 410 908 285 
Q 1075 160 1312 160 
Q 1869 160 2304 627 
z
" id="STIXGeneral-Italic-3b5" transform="scale(0.015625)"/>
       <path d="M 1126 1427 
L 1229 1651 
Q 1446 2131 1830 2534 
Q 2106 2822 2336 2822 
Q 2470 2822 2553 2732 
Q 2637 2643 2637 2496 
Q 2637 2349 2557 2249 
Q 2477 2150 2336 2150 
Q 2214 2150 2112 2317 
Q 2061 2406 2010 2406 
Q 1837 2406 1485 1805 
Q 1267 1434 1136 1104 
Q 1005 774 774 0 
L 288 0 
L 806 1869 
Q 909 2246 909 2394 
Q 909 2560 666 2560 
Q 614 2560 467 2541 
L 467 2650 
L 1459 2822 
L 1478 2810 
L 1126 1427 
z
" id="STIXGeneral-Italic-72" transform="scale(0.015625)"/>
      </defs>
      <use transform="translate(0 0.90625)" xlink:href="#STIXGeneral-Italic-3b5"/>
      <use transform="translate(44.399994 -12.321875)scale(0.7)" xlink:href="#STIXGeneral-Italic-72"/>
     </g>
    </g>
   </g>
   <g id="matplotlib.axis_2">
    <g id="ytick_1">
     <g id="line2d_10">
      <defs>
       <path d="M 0 0 
L -3.5 0 
" id="m3586829b15" style="stroke:#000000;stroke-width:0.8;"/>
      </defs>
      <g>
       <use style="stroke:#000000;stroke-width:0.8;" x="33.3" xlink:href="#m3586829b15" y="150.961333"/>
      </g>
     </g>
     <g id="text_11">
      <!-- 0 -->
      <g transform="translate(21.3 154.376177)scale(0.1 -0.1)">
       <use xlink:href="#STIXGeneral-Regular-30"/>
      </g>
     </g>
    </g>
    <g id="ytick_2">
     <g id="line2d_11">
      <g>
       <use style="stroke:#000000;stroke-width:0.8;" x="33.3" xlink:href="#m3586829b15" y="121.011314"/>
      </g>
     </g>
     <g id="text_12">
      <!-- 1 -->
      <g transform="translate(21.3 124.426158)scale(0.1 -0.1)">
       <use xlink:href="#STIXGeneral-Regular-31"/>
      </g>
     </g>
    </g>
    <g id="ytick_3">
     <g id="line2d_12">
      <g>
       <use style="stroke:#000000;stroke-width:0.8;" x="33.3" xlink:href="#m3586829b15" y="91.061295"/>
      </g>
     </g>
     <g id="text_13">
      <!-- 2 -->
      <g transform="translate(21.3 94.476139)scale(0.1 -0.1)">
       <use xlink:href="#STIXGeneral-Regular-32"/>
      </g>
     </g>
    </g>
    <g id="ytick_4">
     <g id="line2d_13">
      <g>
       <use style="stroke:#000000;stroke-width:0.8;" x="33.3" xlink:href="#m3586829b15" y="61.111277"/>
      </g>
     </g>
     <g id="text_14">
      <!-- 3 -->
      <g transform="translate(21.3 64.52612)scale(0.1 -0.1)">
       <use xlink:href="#STIXGeneral-Regular-33"/>
      </g>
     </g>
    </g>
    <g id="ytick_5">
     <g id="line2d_14">
      <g>
       <use style="stroke:#000000;stroke-width:0.8;" x="33.3" xlink:href="#m3586829b15" y="31.161258"/>
      </g>
     </g>
     <g id="text_15">
      <!-- 4 -->
      <g transform="translate(21.3 34.576102)scale(0.1 -0.1)">
       <use xlink:href="#STIXGeneral-Regular-34"/>
      </g>
     </g>
    </g>
    <g id="text_16">
     <!-- $\Delta\Delta G^\ddag$  ($KJ\cdot mol^{-1}$) -->
     <g transform="translate(15.129688 128.79)rotate(-90)scale(0.1 -0.1)">
      <defs>
       <path d="M 4320 0 
L 307 0 
L 2221 4314 
L 2349 4314 
L 4320 0 
z
M 3354 589 
L 2118 3405 
L 870 589 
L 3354 589 
z
" id="STIXGeneral-Regular-394" transform="scale(0.015625)"/>
       <path d="M 4621 2042 
L 4621 1939 
Q 4307 1920 4188 1833 
Q 4070 1747 4000 1478 
L 3686 282 
Q 2976 -115 2170 -115 
Q 1293 -115 806 371 
Q 582 595 457 934 
Q 333 1274 333 1606 
Q 333 2266 653 2848 
Q 973 3430 1504 3802 
Q 2170 4262 2912 4262 
Q 3373 4262 3770 4109 
Q 3936 4045 4051 4045 
Q 4282 4045 4435 4262 
L 4531 4230 
L 4218 2970 
L 4102 2989 
Q 4083 3398 3866 3667 
Q 3558 4045 2963 4045 
Q 2214 4045 1715 3411 
Q 1395 3008 1216 2496 
Q 1037 1984 1037 1459 
Q 1037 826 1376 474 
Q 1715 122 2330 122 
Q 2784 122 3002 339 
Q 3059 397 3104 509 
Q 3149 621 3251 986 
Q 3418 1542 3418 1709 
Q 3418 1894 3117 1920 
L 2912 1939 
L 2912 2042 
L 4621 2042 
z
" id="STIXGeneral-Italic-47" transform="scale(0.015625)"/>
       <path d="M 2829 2854 
Q 2829 2739 2761 2662 
Q 2694 2586 2592 2586 
Q 2458 2586 2253 2662 
Q 1946 2778 1670 2803 
Q 1670 2336 1724 2086 
Q 1779 1837 1926 1664 
Q 1779 1498 1724 1258 
Q 1670 1018 1670 544 
Q 1939 570 2246 685 
Q 2438 762 2579 762 
Q 2688 762 2755 682 
Q 2822 602 2822 480 
Q 2822 365 2748 285 
Q 2675 205 2572 205 
Q 2470 205 2259 288 
Q 1926 422 1670 429 
Q 1670 160 1696 3 
Q 1722 -154 1818 -390 
Q 1894 -582 1894 -691 
Q 1894 -800 1801 -889 
Q 1709 -979 1594 -979 
Q 1485 -979 1392 -889 
Q 1299 -800 1299 -691 
Q 1299 -582 1376 -390 
Q 1530 0 1530 429 
Q 1267 422 934 288 
Q 730 205 621 205 
Q 512 205 441 285 
Q 371 365 371 493 
Q 371 608 441 685 
Q 512 762 614 762 
Q 749 762 947 685 
Q 1254 570 1530 544 
Q 1530 1427 1274 1664 
Q 1530 1997 1530 2803 
Q 1261 2778 954 2662 
Q 768 2586 659 2586 
Q 378 2586 378 2861 
Q 378 2982 448 3062 
Q 518 3142 627 3142 
Q 730 3142 941 3059 
Q 1267 2925 1530 2918 
Q 1530 3187 1504 3344 
Q 1478 3501 1382 3738 
Q 1306 3930 1306 4038 
Q 1306 4147 1398 4236 
Q 1491 4326 1600 4326 
Q 1715 4326 1808 4236 
Q 1901 4147 1901 4038 
Q 1901 3930 1824 3738 
Q 1670 3347 1670 2918 
Q 1933 2925 2266 3059 
Q 2470 3142 2586 3142 
Q 2688 3142 2758 3059 
Q 2829 2976 2829 2854 
z
" id="STIXGeneral-Regular-2021" transform="scale(0.015625)"/>
       <path id="STIXGeneral-Regular-20" transform="scale(0.015625)"/>
       <path d="M 1946 -1030 
L 1869 -1133 
Q 1126 -710 716 32 
Q 307 774 307 1613 
Q 307 3386 1888 4326 
L 1946 4224 
Q 1293 3667 1075 3126 
Q 858 2586 858 1632 
Q 858 685 1082 96 
Q 1306 -493 1946 -1030 
z
" id="STIXGeneral-Regular-28" transform="scale(0.015625)"/>
       <path d="M 4621 4179 
L 4621 4077 
Q 4442 4077 4128 3840 
L 2221 2400 
L 3296 525 
Q 3443 269 3552 201 
Q 3661 134 3962 102 
L 3962 0 
L 2202 0 
L 2202 102 
L 2387 122 
Q 2682 147 2682 326 
Q 2682 365 2672 409 
Q 2662 454 2630 515 
Q 2598 576 2579 611 
Q 2560 646 2509 736 
Q 2458 826 2445 851 
L 1658 2227 
L 1242 710 
Q 1171 467 1171 384 
Q 1171 237 1264 182 
Q 1357 128 1626 102 
L 1626 0 
L 45 0 
L 45 102 
Q 320 134 403 211 
Q 486 288 563 557 
L 1357 3405 
Q 1446 3725 1446 3802 
Q 1446 3936 1337 4000 
Q 1229 4064 941 4077 
L 941 4179 
L 2669 4179 
L 2669 4077 
Q 2400 4058 2253 3958 
Q 2106 3859 2035 3603 
L 1696 2362 
L 2675 3059 
Q 3590 3706 3590 3936 
Q 3590 4032 3360 4058 
L 3206 4077 
L 3206 4179 
L 4621 4179 
z
" id="STIXGeneral-Italic-4b" transform="scale(0.015625)"/>
       <path d="M 3142 4179 
L 3142 4077 
Q 2867 4038 2784 3964 
Q 2701 3891 2618 3603 
L 1958 1254 
Q 1773 589 1504 237 
Q 1235 -115 710 -115 
Q 371 -115 166 38 
Q -38 192 -38 448 
Q -38 602 42 704 
Q 122 806 250 806 
Q 378 806 477 720 
Q 576 634 576 512 
Q 576 474 566 419 
Q 557 365 557 339 
Q 557 90 781 90 
Q 1005 90 1120 499 
L 1933 3405 
Q 2010 3686 2010 3814 
Q 2010 3942 1914 3996 
Q 1818 4051 1517 4077 
L 1517 4179 
L 3142 4179 
z
" id="STIXGeneral-Italic-4a" transform="scale(0.015625)"/>
       <path d="M 1187 1888 
Q 1299 1773 1299 1619 
Q 1299 1466 1187 1350 
Q 1075 1235 921 1235 
Q 768 1235 649 1353 
Q 531 1472 531 1619 
Q 531 1766 649 1884 
Q 768 2003 921 2003 
Q 1075 2003 1187 1888 
z
" id="STIXGeneral-Regular-22c5" transform="scale(0.015625)"/>
       <path d="M 4506 672 
L 4474 627 
Q 3981 -58 3552 -58 
Q 3296 -58 3296 237 
Q 3296 333 3379 659 
L 3750 2112 
Q 3795 2291 3795 2355 
Q 3795 2413 3756 2451 
Q 3718 2490 3667 2490 
Q 3366 2490 2829 1741 
Q 2592 1408 2457 1072 
Q 2323 736 2138 0 
L 1658 0 
L 1830 595 
Q 2266 2099 2266 2330 
Q 2266 2490 2125 2490 
Q 1965 2490 1702 2237 
Q 1440 1984 1171 1574 
Q 1011 1325 899 1043 
Q 787 762 557 0 
L 77 0 
L 352 922 
Q 704 2093 704 2381 
Q 704 2522 442 2522 
L 282 2522 
L 282 2624 
L 1318 2822 
L 1338 2810 
L 966 1472 
Q 1798 2822 2374 2822 
Q 2560 2822 2659 2720 
Q 2758 2618 2758 2438 
Q 2758 2195 2502 1466 
Q 2842 2003 3069 2275 
Q 3296 2547 3526 2694 
Q 3731 2822 3930 2822 
Q 4102 2822 4201 2710 
Q 4301 2598 4301 2419 
Q 4301 2336 4282 2240 
L 3846 634 
Q 3782 390 3782 346 
Q 3782 243 3859 243 
Q 4000 243 4275 582 
L 4410 749 
L 4506 672 
z
" id="STIXGeneral-Italic-6d" transform="scale(0.015625)"/>
       <path d="M 2995 1926 
Q 2995 1562 2812 1168 
Q 2630 774 2317 461 
Q 1786 -70 1114 -70 
Q 666 -70 419 163 
Q 173 397 173 819 
Q 173 1350 496 1856 
Q 819 2362 1325 2630 
Q 1683 2822 2093 2822 
Q 2490 2822 2742 2582 
Q 2995 2342 2995 1926 
z
M 2458 2086 
Q 2458 2374 2336 2531 
Q 2214 2688 2003 2688 
Q 1574 2688 1184 2106 
Q 710 1382 710 646 
Q 710 365 844 214 
Q 979 64 1210 64 
Q 1600 64 1984 595 
Q 2202 890 2330 1302 
Q 2458 1715 2458 2086 
z
" id="STIXGeneral-Italic-6f" transform="scale(0.015625)"/>
       <path d="M 1786 4339 
L 806 595 
Q 755 410 755 320 
Q 755 205 864 205 
Q 1037 205 1293 570 
L 1453 794 
L 1542 730 
Q 1254 275 1046 102 
Q 838 -70 576 -70 
Q 262 -70 262 288 
Q 262 397 288 480 
L 1165 3834 
Q 1184 3898 1184 3955 
Q 1184 4096 870 4096 
L 755 4096 
L 755 4198 
Q 1203 4250 1747 4371 
L 1786 4339 
z
" id="STIXGeneral-Italic-6c" transform="scale(0.015625)"/>
       <path d="M 3974 1408 
L 410 1408 
L 410 1830 
L 3974 1830 
L 3974 1408 
z
" id="STIXGeneral-Regular-2212" transform="scale(0.015625)"/>
       <path d="M 186 4224 
L 262 4326 
Q 992 3891 1408 3148 
Q 1824 2406 1824 1581 
Q 1824 -166 243 -1133 
L 186 -1030 
Q 845 -486 1059 54 
Q 1274 595 1274 1562 
Q 1274 2534 1059 3120 
Q 845 3706 186 4224 
z
" id="STIXGeneral-Regular-29" transform="scale(0.015625)"/>
      </defs>
      <use transform="translate(0 0.409375)" xlink:href="#STIXGeneral-Regular-394"/>
      <use transform="translate(72.199982 0.409375)" xlink:href="#STIXGeneral-Regular-394"/>
      <use transform="translate(144.399963 0.409375)" xlink:href="#STIXGeneral-Italic-47"/>
      <use transform="translate(227.49807 35.684375)scale(0.7)" xlink:href="#STIXGeneral-Regular-2021"/>
      <use transform="translate(266.907434 0.409375)" xlink:href="#STIXGeneral-Regular-20"/>
      <use transform="translate(291.907419 0.409375)" xlink:href="#STIXGeneral-Regular-20"/>
      <use transform="translate(316.907404 0.409375)" xlink:href="#STIXGeneral-Regular-28"/>
      <use transform="translate(350.207392 0.409375)" xlink:href="#STIXGeneral-Italic-4b"/>
      <use transform="translate(416.907389 0.409375)" xlink:href="#STIXGeneral-Italic-4a"/>
      <use transform="translate(475.747379 0.409375)" xlink:href="#STIXGeneral-Regular-22c5"/>
      <use transform="translate(518.787366 0.409375)" xlink:href="#STIXGeneral-Italic-6d"/>
      <use transform="translate(590.987348 0.409375)" xlink:href="#STIXGeneral-Italic-6f"/>
      <use transform="translate(640.987332 0.409375)" xlink:href="#STIXGeneral-Italic-6c"/>
      <use transform="translate(680.043102 35.684375)scale(0.7)" xlink:href="#STIXGeneral-Regular-2212"/>
      <use transform="translate(727.993091 35.684375)scale(0.7)" xlink:href="#STIXGeneral-Regular-31"/>
      <use transform="translate(767.402455 0.409375)" xlink:href="#STIXGeneral-Regular-29"/>
     </g>
    </g>
   </g>
   <g id="line2d_15">
    <path clip-path="url(#p85a4c84159)" d="M 45.981818 14.612727 
L 52.452134 45.767429 
L 74.774722 130.700555 
L 126.537245 143.823745 
L 197.387199 148.639278 
L 299.618182 150.961333 
" style="fill:none;stroke:#800080;stroke-linecap:square;stroke-width:1.5;"/>
    <defs>
     <path d="M 0 1.5 
C 0.397805 1.5 0.77937 1.341951 1.06066 1.06066 
C 1.341951 0.77937 1.5 0.397805 1.5 0 
C 1.5 -0.397805 1.341951 -0.77937 1.06066 -1.06066 
C 0.77937 -1.341951 0.397805 -1.5 0 -1.5 
C -0.397805 -1.5 -0.77937 -1.341951 -1.06066 -1.06066 
C -1.341951 -0.77937 -1.5 -0.397805 -1.5 0 
C -1.5 0.397805 -1.341951 0.77937 -1.06066 1.06066 
C -0.77937 1.341951 -0.397805 1.5 0 1.5 
z
" id="m43c885d085" style="stroke:#800080;"/>
    </defs>
    <g clip-path="url(#p85a4c84159)">
     <use style="fill:#800080;stroke:#800080;" x="45.981818" xlink:href="#m43c885d085" y="14.612727"/>
     <use style="fill:#800080;stroke:#800080;" x="52.452134" xlink:href="#m43c885d085" y="45.767429"/>
     <use style="fill:#800080;stroke:#800080;" x="74.774722" xlink:href="#m43c885d085" y="130.700555"/>
     <use style="fill:#800080;stroke:#800080;" x="126.537245" xlink:href="#m43c885d085" y="143.823745"/>
     <use style="fill:#800080;stroke:#800080;" x="197.387199" xlink:href="#m43c885d085" y="148.639278"/>
     <use style="fill:#800080;stroke:#800080;" x="299.618182" xlink:href="#m43c885d085" y="150.961333"/>
    </g>
   </g>
   <g id="line2d_16">
    <path clip-path="url(#p85a4c84159)" d="M 45.981818 48.047022 
L 52.452134 107.885751 
L 74.774722 113.394834 
L 126.537245 120.253271 
L 197.387199 150.741158 
L 299.618182 150.961333 
" style="fill:none;stroke:#dc143c;stroke-linecap:square;stroke-width:1.5;"/>
    <defs>
     <path d="M 0 1.5 
C 0.397805 1.5 0.77937 1.341951 1.06066 1.06066 
C 1.341951 0.77937 1.5 0.397805 1.5 0 
C 1.5 -0.397805 1.341951 -0.77937 1.06066 -1.06066 
C 0.77937 -1.341951 0.397805 -1.5 0 -1.5 
C -0.397805 -1.5 -0.77937 -1.341951 -1.06066 -1.06066 
C -1.341951 -0.77937 -1.5 -0.397805 -1.5 0 
C -1.5 0.397805 -1.341951 0.77937 -1.06066 1.06066 
C -0.77937 1.341951 -0.397805 1.5 0 1.5 
z
" id="m9659b7e099" style="stroke:#dc143c;"/>
    </defs>
    <g clip-path="url(#p85a4c84159)">
     <use style="fill:#dc143c;stroke:#dc143c;" x="45.981818" xlink:href="#m9659b7e099" y="48.047022"/>
     <use style="fill:#dc143c;stroke:#dc143c;" x="52.452134" xlink:href="#m9659b7e099" y="107.885751"/>
     <use style="fill:#dc143c;stroke:#dc143c;" x="74.774722" xlink:href="#m9659b7e099" y="113.394834"/>
     <use style="fill:#dc143c;stroke:#dc143c;" x="126.537245" xlink:href="#m9659b7e099" y="120.253271"/>
     <use style="fill:#dc143c;stroke:#dc143c;" x="197.387199" xlink:href="#m9659b7e099" y="150.741158"/>
     <use style="fill:#dc143c;stroke:#dc143c;" x="299.618182" xlink:href="#m9659b7e099" y="150.961333"/>
    </g>
   </g>
   <g id="line2d_17">
    <path clip-path="url(#p85a4c84159)" d="M 45.981818 47.3346 
L 52.452134 148.628269 
L 74.774722 162.867273 
L 126.537245 150.075917 
L 197.387199 155.511869 
L 299.618182 150.961333 
" style="fill:none;stroke:#1e90ff;stroke-linecap:square;stroke-width:1.5;"/>
    <defs>
     <path d="M 0 1.5 
C 0.397805 1.5 0.77937 1.341951 1.06066 1.06066 
C 1.341951 0.77937 1.5 0.397805 1.5 0 
C 1.5 -0.397805 1.341951 -0.77937 1.06066 -1.06066 
C 0.77937 -1.341951 0.397805 -1.5 0 -1.5 
C -0.397805 -1.5 -0.77937 -1.341951 -1.06066 -1.06066 
C -1.341951 -0.77937 -1.5 -0.397805 -1.5 0 
C -1.5 0.397805 -1.341951 0.77937 -1.06066 1.06066 
C -0.77937 1.341951 -0.397805 1.5 0 1.5 
z
" id="me94923f65d" style="stroke:#1e90ff;"/>
    </defs>
    <g clip-path="url(#p85a4c84159)">
     <use style="fill:#1e90ff;stroke:#1e90ff;" x="45.981818" xlink:href="#me94923f65d" y="47.3346"/>
     <use style="fill:#1e90ff;stroke:#1e90ff;" x="52.452134" xlink:href="#me94923f65d" y="148.628269"/>
     <use style="fill:#1e90ff;stroke:#1e90ff;" x="74.774722" xlink:href="#me94923f65d" y="162.867273"/>
     <use style="fill:#1e90ff;stroke:#1e90ff;" x="126.537245" xlink:href="#me94923f65d" y="150.075917"/>
     <use style="fill:#1e90ff;stroke:#1e90ff;" x="197.387199" xlink:href="#me94923f65d" y="155.511869"/>
     <use style="fill:#1e90ff;stroke:#1e90ff;" x="299.618182" xlink:href="#me94923f65d" y="150.961333"/>
    </g>
   </g>
   <g id="line2d_18">
    <path clip-path="url(#p85a4c84159)" d="M 33.3 150.961333 
L 312.3 150.961333 
" style="fill:none;stroke:#000000;stroke-dasharray:1.48,0.64;stroke-dashoffset:0;stroke-width:0.4;"/>
   </g>
   <g id="patch_3">
    <path d="M 33.3 170.28 
L 33.3 7.2 
" style="fill:none;stroke:#000000;stroke-linecap:square;stroke-linejoin:miter;stroke-width:0.8;"/>
   </g>
   <g id="patch_4">
    <path d="M 312.3 170.28 
L 312.3 7.2 
" style="fill:none;stroke:#000000;stroke-linecap:square;stroke-linejoin:miter;stroke-width:0.8;"/>
   </g>
   <g id="patch_5">
    <path d="M 33.3 170.28 
L 312.3 170.28 
" style="fill:none;stroke:#000000;stroke-linecap:square;stroke-linejoin:miter;stroke-width:0.8;"/>
   </g>
   <g id="patch_6">
    <path d="M 33.3 7.2 
L 312.3 7.2 
" style="fill:none;stroke:#000000;stroke-linecap:square;stroke-linejoin:miter;stroke-width:0.8;"/>
   </g>
   <g id="legend_1">
    <g id="patch_7">
     <path d="M 146.4 64.8 
L 305.3 64.8 
Q 307.3 64.8 307.3 62.8 
L 307.3 14.2 
Q 307.3 12.2 305.3 12.2 
L 146.4 12.2 
Q 144.4 12.2 144.4 14.2 
L 144.4 62.8 
Q 144.4 64.8 146.4 64.8 
z
" style="fill:#ffffff;opacity:0.8;stroke:#cccccc;stroke-linejoin:miter;"/>
    </g>
    <g id="line2d_19">
     <path d="M 148.4 22.3 
L 168.4 22.3 
" style="fill:none;stroke:#800080;stroke-linecap:square;stroke-width:1.5;"/>
    </g>
    <g id="line2d_20">
     <g>
      <use style="fill:#800080;stroke:#800080;" x="158.4" xlink:href="#m43c885d085" y="22.3"/>
     </g>
    </g>
    <g id="text_17">
     <!-- Catalytic ($F_Y=-0.1\:V\cdot\AA^{-1}$) -->
     <g transform="translate(176.4 25.8)scale(0.1 -0.1)">
      <defs>
       <path d="M 3930 838 
L 4051 723 
Q 3482 -90 2304 -90 
Q 1376 -90 794 480 
Q 179 1082 179 2080 
Q 179 3014 755 3661 
Q 1357 4326 2310 4326 
Q 2720 4326 3072 4230 
Q 3475 4115 3514 4115 
Q 3725 4115 3782 4326 
L 3910 4326 
L 3968 2874 
L 3821 2874 
Q 3718 3334 3488 3584 
Q 3034 4070 2458 4070 
Q 1747 4070 1334 3548 
Q 922 3027 922 2182 
Q 922 1152 1382 653 
Q 1811 192 2522 192 
Q 2944 192 3251 339 
Q 3558 486 3930 838 
z
" id="STIXGeneral-Regular-43" transform="scale(0.015625)"/>
       <path d="M 2829 422 
L 2829 243 
Q 2586 -64 2253 -64 
Q 1888 -64 1843 403 
L 1837 403 
Q 1427 -64 909 -64 
Q 608 -64 422 112 
Q 237 288 237 602 
Q 237 1050 685 1350 
Q 992 1555 1837 1869 
L 1837 2214 
Q 1837 2502 1699 2646 
Q 1562 2790 1338 2790 
Q 1146 2790 1018 2697 
Q 890 2605 890 2477 
Q 890 2419 909 2348 
Q 928 2278 928 2208 
Q 928 2112 841 2029 
Q 755 1946 634 1946 
Q 525 1946 441 2029 
Q 358 2112 358 2240 
Q 358 2547 685 2752 
Q 986 2944 1421 2944 
Q 1939 2944 2176 2656 
Q 2291 2522 2323 2384 
Q 2355 2246 2355 1946 
L 2355 723 
Q 2355 301 2554 301 
Q 2682 301 2829 422 
z
M 1837 813 
L 1837 1715 
Q 1248 1510 1018 1293 
Q 800 1094 800 800 
Q 800 557 921 432 
Q 1043 307 1242 307 
Q 1453 307 1613 410 
Q 1747 506 1792 589 
Q 1837 672 1837 813 
z
" id="STIXGeneral-Regular-61" transform="scale(0.015625)"/>
       <path d="M 1702 493 
L 1786 422 
Q 1478 -64 1011 -64 
Q 448 -64 448 749 
L 448 2675 
L 109 2675 
Q 83 2694 83 2720 
Q 83 2771 192 2842 
Q 435 2982 813 3526 
Q 826 3546 874 3606 
Q 922 3667 941 3706 
Q 986 3706 986 3622 
L 986 2880 
L 1632 2880 
L 1632 2675 
L 986 2675 
L 986 845 
Q 986 538 1062 403 
Q 1139 269 1318 269 
Q 1510 269 1702 493 
z
" id="STIXGeneral-Regular-74" transform="scale(0.015625)"/>
       <path d="M 1645 0 
L 134 0 
L 134 96 
Q 435 122 531 221 
Q 627 320 627 589 
L 627 3590 
Q 627 3821 569 3910 
Q 512 4000 358 4000 
Q 224 4000 122 3987 
L 122 4090 
Q 730 4237 1133 4371 
L 1165 4346 
L 1165 557 
Q 1165 288 1254 201 
Q 1344 115 1645 96 
L 1645 0 
z
" id="STIXGeneral-Regular-6c" transform="scale(0.015625)"/>
       <path d="M 3040 2880 
L 3040 2784 
Q 2925 2771 2854 2700 
Q 2784 2630 2720 2458 
L 1760 -160 
Q 1510 -838 1257 -1116 
Q 1005 -1395 640 -1395 
Q 435 -1395 313 -1289 
Q 192 -1184 192 -1024 
Q 192 -902 272 -816 
Q 352 -730 467 -730 
Q 653 -730 800 -813 
Q 883 -858 966 -858 
Q 1101 -858 1286 -576 
Q 1376 -448 1459 -211 
Q 1542 26 1542 115 
Q 1542 198 1274 762 
L 429 2566 
Q 346 2752 90 2790 
L 90 2880 
L 1402 2880 
L 1402 2784 
Q 1197 2778 1117 2739 
Q 1037 2701 1037 2611 
Q 1037 2541 1120 2349 
L 1837 749 
L 2458 2515 
Q 2483 2573 2483 2630 
Q 2483 2784 2189 2784 
L 2189 2880 
L 3040 2880 
z
" id="STIXGeneral-Regular-79" transform="scale(0.015625)"/>
       <path d="M 1152 4045 
Q 1152 3904 1056 3811 
Q 960 3718 819 3718 
Q 685 3718 592 3811 
Q 499 3904 499 4045 
Q 499 4179 595 4275 
Q 691 4371 826 4371 
Q 966 4371 1059 4275 
Q 1152 4179 1152 4045 
z
M 1619 0 
L 102 0 
L 102 96 
Q 435 115 521 211 
Q 608 307 608 666 
L 608 2118 
Q 608 2342 563 2432 
Q 518 2522 397 2522 
Q 243 2522 128 2490 
L 128 2592 
L 1120 2944 
L 1146 2918 
L 1146 672 
Q 1146 314 1226 218 
Q 1306 122 1619 96 
L 1619 0 
z
" id="STIXGeneral-Regular-69" transform="scale(0.015625)"/>
       <path d="M 2547 998 
L 2637 941 
Q 2362 403 2112 205 
Q 1786 -64 1376 -64 
Q 845 -64 502 336 
Q 160 736 160 1357 
Q 160 2170 698 2618 
Q 1094 2944 1562 2944 
Q 1965 2944 2256 2749 
Q 2547 2554 2547 2285 
Q 2547 2176 2457 2096 
Q 2368 2016 2246 2016 
Q 2022 2016 1939 2310 
L 1901 2451 
Q 1850 2630 1773 2694 
Q 1696 2758 1523 2758 
Q 1133 2758 893 2451 
Q 653 2144 653 1645 
Q 653 1094 928 745 
Q 1203 397 1645 397 
Q 1920 397 2118 528 
Q 2317 659 2547 998 
z
" id="STIXGeneral-Regular-63" transform="scale(0.015625)"/>
       <path d="M 4128 4179 
L 3923 3194 
L 3789 3206 
Q 3808 3347 3808 3418 
Q 3808 3667 3718 3772 
Q 3629 3878 3373 3923 
Q 3117 3968 2534 3968 
Q 2310 3968 2220 3926 
Q 2131 3885 2099 3763 
L 1690 2310 
Q 2003 2317 2147 2317 
Q 2291 2317 2457 2345 
Q 2624 2374 2678 2396 
Q 2733 2419 2822 2505 
Q 2912 2592 2950 2665 
Q 2989 2739 3072 2912 
L 3187 2880 
L 2701 1376 
L 2592 1408 
Q 2643 1670 2643 1798 
Q 2643 1978 2531 2029 
Q 2419 2080 2163 2080 
Q 1984 2080 1632 2099 
L 1254 736 
Q 1165 416 1165 352 
Q 1165 237 1273 179 
Q 1382 122 1658 102 
L 1658 0 
L 51 0 
L 51 102 
Q 314 122 410 224 
Q 506 326 582 602 
L 1370 3430 
Q 1434 3661 1434 3821 
Q 1434 3955 1347 4003 
Q 1261 4051 947 4077 
L 947 4179 
L 4128 4179 
z
" id="STIXGeneral-Italic-46" transform="scale(0.015625)"/>
       <path d="M 4051 4179 
L 4051 4077 
Q 3917 4032 3846 3965 
Q 3776 3898 3603 3686 
L 2202 1958 
L 1971 1171 
Q 1779 512 1779 358 
Q 1779 237 1852 185 
Q 1926 134 2118 122 
L 2349 102 
L 2349 0 
L 499 0 
L 499 102 
Q 826 122 963 221 
Q 1101 320 1184 621 
L 1562 1933 
L 1075 3642 
Q 1005 3898 925 3968 
Q 845 4038 582 4077 
L 582 4179 
L 2112 4179 
L 2112 4077 
Q 1830 4051 1740 4003 
Q 1651 3955 1651 3846 
Q 1651 3738 1882 2925 
L 2080 2221 
L 2330 2515 
Q 3283 3642 3283 3878 
Q 3283 4032 3027 4058 
L 2842 4077 
L 2842 4179 
L 4051 4179 
z
" id="STIXGeneral-Italic-59" transform="scale(0.015625)"/>
       <path d="M 4077 2048 
L 307 2048 
L 307 2470 
L 4077 2470 
L 4077 2048 
z
M 4077 768 
L 307 768 
L 307 1190 
L 4077 1190 
L 4077 768 
z
" id="STIXGeneral-Regular-3d" transform="scale(0.015625)"/>
       <path d="M 1158 275 
Q 1158 134 1052 32 
Q 947 -70 800 -70 
Q 653 -70 550 32 
Q 448 134 448 281 
Q 448 429 553 534 
Q 659 640 806 640 
Q 947 640 1052 531 
Q 1158 422 1158 275 
z
" id="STIXGeneral-Regular-2e" transform="scale(0.015625)"/>
       <path d="M 4403 4179 
L 4403 4077 
Q 4198 4070 4045 3821 
L 1658 -115 
L 1536 -115 
L 1011 3104 
Q 902 3776 828 3910 
Q 755 4045 486 4077 
L 486 4179 
L 2022 4179 
L 2022 4077 
Q 1722 4045 1629 3981 
Q 1536 3917 1536 3750 
Q 1536 3686 1542 3654 
L 1958 819 
L 3302 3123 
Q 3616 3661 3616 3859 
Q 3616 4032 3219 4077 
L 3219 4179 
L 4403 4179 
z
" id="STIXGeneral-Italic-56" transform="scale(0.015625)"/>
       <path d="M 3610 0 
L 2042 0 
L 2042 102 
Q 2330 115 2432 192 
Q 2534 269 2534 442 
Q 2534 493 2522 608 
L 2394 1446 
L 986 1446 
L 608 736 
Q 467 474 467 314 
Q 467 122 864 102 
L 864 0 
L -326 0 
L -326 102 
Q -109 147 28 307 
Q 166 467 531 1101 
L 2355 4275 
L 2522 4275 
L 3110 736 
Q 3174 339 3264 230 
Q 3354 122 3610 102 
L 3610 0 
z
M 2362 1677 
L 2074 3360 
L 1120 1677 
L 2362 1677 
z
M 3043 5936 
Q 3232 5747 3232 5484 
Q 3232 5222 3043 5036 
Q 2854 4851 2592 4851 
Q 2317 4851 2134 5036 
Q 1952 5222 1952 5491 
Q 1952 5747 2141 5936 
Q 2330 6125 2586 6125 
Q 2854 6125 3043 5936 
z
M 2892 5187 
Q 3014 5306 3014 5485 
Q 3014 5664 2889 5785 
Q 2765 5907 2586 5907 
Q 2419 5907 2294 5782 
Q 2170 5658 2170 5491 
Q 2170 5312 2288 5190 
Q 2406 5069 2586 5069 
Q 2771 5069 2892 5187 
z
" id="STIXGeneral-Italic-c5" transform="scale(0.015625)"/>
      </defs>
      <use transform="translate(0 0.296875)" xlink:href="#STIXGeneral-Regular-43"/>
      <use transform="translate(66.699997 0.296875)" xlink:href="#STIXGeneral-Regular-61"/>
      <use transform="translate(111.099991 0.296875)" xlink:href="#STIXGeneral-Regular-74"/>
      <use transform="translate(138.899979 0.296875)" xlink:href="#STIXGeneral-Regular-61"/>
      <use transform="translate(183.299973 0.296875)" xlink:href="#STIXGeneral-Regular-6c"/>
      <use transform="translate(211.09996 0.296875)" xlink:href="#STIXGeneral-Regular-79"/>
      <use transform="translate(261.099945 0.296875)" xlink:href="#STIXGeneral-Regular-74"/>
      <use transform="translate(288.899933 0.296875)" xlink:href="#STIXGeneral-Regular-69"/>
      <use transform="translate(316.699921 0.296875)" xlink:href="#STIXGeneral-Regular-63"/>
      <use transform="translate(361.099915 0.296875)" xlink:href="#STIXGeneral-Regular-20"/>
      <use transform="translate(386.099899 0.296875)" xlink:href="#STIXGeneral-Regular-28"/>
      <use transform="translate(419.399887 0.296875)" xlink:href="#STIXGeneral-Italic-46"/>
      <use transform="translate(480.499878 -12.93125)scale(0.7)" xlink:href="#STIXGeneral-Italic-59"/>
      <use transform="translate(538.269243 0.296875)" xlink:href="#STIXGeneral-Regular-3d"/>
      <use transform="translate(635.64922 0.296875)" xlink:href="#STIXGeneral-Regular-2212"/>
      <use transform="translate(718.589201 0.296875)" xlink:href="#STIXGeneral-Regular-30"/>
      <use transform="translate(768.589186 0.296875)" xlink:href="#STIXGeneral-Regular-2e"/>
      <use transform="translate(793.589171 0.296875)" xlink:href="#STIXGeneral-Regular-31"/>
      <use transform="translate(859.633436 0.296875)" xlink:href="#STIXGeneral-Italic-56"/>
      <use transform="translate(935.173423 0.296875)" xlink:href="#STIXGeneral-Regular-22c5"/>
      <use transform="translate(978.21341 0.296875)" xlink:href="#STIXGeneral-Italic-c5"/>
      <use transform="translate(1056.324494 35.571875)scale(0.7)" xlink:href="#STIXGeneral-Regular-2212"/>
      <use transform="translate(1104.274484 35.571875)scale(0.7)" xlink:href="#STIXGeneral-Regular-31"/>
      <use transform="translate(1143.683848 0.296875)" xlink:href="#STIXGeneral-Regular-29"/>
     </g>
    </g>
    <g id="line2d_21">
     <path d="M 148.4 38.729688 
L 168.4 38.729688 
" style="fill:none;stroke:#dc143c;stroke-linecap:square;stroke-width:1.5;"/>
    </g>
    <g id="line2d_22">
     <g>
      <use style="fill:#dc143c;stroke:#dc143c;" x="158.4" xlink:href="#m9659b7e099" y="38.729688"/>
     </g>
    </g>
    <g id="text_18">
     <!-- $S$ Selective ($F_Z=0.1\:V\cdot\AA^{-1}$) -->
     <g transform="translate(176.4 42.229688)scale(0.1 -0.1)">
      <defs>
       <path d="M 3251 4269 
L 2995 2989 
L 2880 3008 
Q 2880 3539 2720 3795 
Q 2560 4051 2118 4051 
Q 1786 4051 1594 3881 
Q 1402 3712 1402 3411 
Q 1402 3168 1504 3005 
Q 1606 2842 2035 2413 
Q 2464 1978 2611 1715 
Q 2758 1453 2758 1133 
Q 2758 589 2390 237 
Q 2022 -115 1466 -115 
Q 1222 -115 800 32 
Q 595 109 499 109 
Q 288 109 224 -96 
L 109 -96 
L 326 1338 
L 454 1325 
Q 442 1267 442 1178 
Q 442 710 701 409 
Q 960 109 1363 109 
Q 1734 109 1968 336 
Q 2202 563 2202 928 
Q 2202 1139 2118 1308 
Q 2035 1478 1818 1715 
L 1568 1984 
Q 1549 2003 1459 2102 
Q 1370 2202 1318 2253 
Q 1030 2560 934 2755 
Q 838 2950 838 3213 
Q 838 3699 1168 3980 
Q 1498 4262 1978 4262 
Q 2310 4262 2522 4173 
Q 2707 4102 2816 4102 
Q 2925 4102 2982 4134 
Q 3040 4166 3104 4269 
L 3251 4269 
z
" id="STIXGeneral-Italic-53" transform="scale(0.015625)"/>
       <path d="M 3002 2963 
L 2842 2963 
Q 2733 3360 2579 3565 
Q 2189 4064 1651 4064 
Q 1357 4064 1181 3894 
Q 1005 3725 1005 3456 
Q 1005 3328 1069 3206 
Q 1133 3085 1206 2998 
Q 1280 2912 1465 2784 
Q 1651 2656 1766 2589 
Q 1882 2522 2150 2362 
Q 2669 2061 2905 1763 
Q 3142 1466 3142 1107 
Q 3142 576 2771 243 
Q 2400 -90 1837 -90 
Q 1421 -90 1082 58 
Q 915 128 781 128 
Q 704 128 653 70 
Q 602 13 602 -83 
L 461 -83 
L 275 1274 
L 416 1274 
Q 845 141 1734 141 
Q 2074 141 2285 342 
Q 2496 544 2496 858 
Q 2496 1158 2310 1363 
Q 2003 1696 1235 2106 
Q 454 2522 454 3206 
Q 454 3718 768 4022 
Q 1082 4326 1568 4326 
Q 1907 4326 2240 4186 
Q 2413 4109 2522 4109 
Q 2688 4109 2726 4326 
L 2861 4326 
L 3002 2963 
z
" id="STIXGeneral-Regular-53" transform="scale(0.015625)"/>
       <path d="M 2611 1050 
L 2714 1005 
Q 2330 -64 1376 -64 
Q 813 -64 486 329 
Q 160 723 160 1389 
Q 160 2074 525 2509 
Q 890 2944 1485 2944 
Q 2061 2944 2374 2502 
Q 2560 2246 2592 1773 
L 621 1773 
Q 646 1370 700 1158 
Q 755 947 915 730 
Q 1184 378 1626 378 
Q 1939 378 2153 531 
Q 2368 685 2611 1050 
z
M 634 1978 
L 1939 1978 
Q 1882 2381 1750 2547 
Q 1619 2714 1312 2714 
Q 1043 2714 864 2525 
Q 685 2336 634 1978 
z
" id="STIXGeneral-Regular-65" transform="scale(0.015625)"/>
       <path d="M 3053 2880 
L 3053 2784 
Q 2906 2771 2835 2688 
Q 2765 2605 2637 2285 
L 1818 230 
Q 1690 -90 1638 -90 
Q 1587 -90 1523 77 
Q 1510 96 1497 141 
Q 1485 186 1472 211 
L 704 2048 
Q 499 2534 403 2652 
Q 307 2771 122 2784 
L 122 2880 
L 1376 2880 
L 1376 2784 
Q 1210 2771 1146 2732 
Q 1082 2694 1082 2611 
Q 1082 2509 1139 2368 
L 1792 730 
L 2426 2387 
Q 2464 2483 2464 2579 
Q 2464 2758 2163 2784 
L 2163 2880 
L 3053 2880 
z
" id="STIXGeneral-Regular-76" transform="scale(0.015625)"/>
       <path d="M 3878 4090 
L 787 230 
L 1818 230 
Q 2272 230 2512 268 
Q 2752 307 2925 435 
Q 3187 627 3418 1101 
L 3539 1082 
L 3194 0 
L -38 0 
L -38 90 
L 3027 3949 
L 1933 3949 
Q 1280 3949 1024 3776 
Q 883 3680 816 3581 
Q 749 3482 602 3206 
L 480 3238 
L 768 4179 
L 3878 4179 
L 3878 4090 
z
" id="STIXGeneral-Italic-5a" transform="scale(0.015625)"/>
      </defs>
      <use transform="translate(0 0.296875)" xlink:href="#STIXGeneral-Italic-53"/>
      <use transform="translate(49.999985 0.296875)" xlink:href="#STIXGeneral-Regular-20"/>
      <use transform="translate(74.999969 0.296875)" xlink:href="#STIXGeneral-Regular-53"/>
      <use transform="translate(130.59996 0.296875)" xlink:href="#STIXGeneral-Regular-65"/>
      <use transform="translate(174.999954 0.296875)" xlink:href="#STIXGeneral-Regular-6c"/>
      <use transform="translate(202.799942 0.296875)" xlink:href="#STIXGeneral-Regular-65"/>
      <use transform="translate(247.199936 0.296875)" xlink:href="#STIXGeneral-Regular-63"/>
      <use transform="translate(291.59993 0.296875)" xlink:href="#STIXGeneral-Regular-74"/>
      <use transform="translate(319.399918 0.296875)" xlink:href="#STIXGeneral-Regular-69"/>
      <use transform="translate(347.199905 0.296875)" xlink:href="#STIXGeneral-Regular-76"/>
      <use transform="translate(397.19989 0.296875)" xlink:href="#STIXGeneral-Regular-65"/>
      <use transform="translate(441.599884 0.296875)" xlink:href="#STIXGeneral-Regular-20"/>
      <use transform="translate(466.599869 0.296875)" xlink:href="#STIXGeneral-Regular-28"/>
      <use transform="translate(499.899857 0.296875)" xlink:href="#STIXGeneral-Italic-46"/>
      <use transform="translate(560.999847 -12.93125)scale(0.7)" xlink:href="#STIXGeneral-Italic-5a"/>
      <use transform="translate(618.769212 0.296875)" xlink:href="#STIXGeneral-Regular-3d"/>
      <use transform="translate(701.709193 0.296875)" xlink:href="#STIXGeneral-Regular-30"/>
      <use transform="translate(751.709178 0.296875)" xlink:href="#STIXGeneral-Regular-2e"/>
      <use transform="translate(776.709163 0.296875)" xlink:href="#STIXGeneral-Regular-31"/>
      <use transform="translate(842.753428 0.296875)" xlink:href="#STIXGeneral-Italic-56"/>
      <use transform="translate(918.293415 0.296875)" xlink:href="#STIXGeneral-Regular-22c5"/>
      <use transform="translate(961.333402 0.296875)" xlink:href="#STIXGeneral-Italic-c5"/>
      <use transform="translate(1039.444487 35.571875)scale(0.7)" xlink:href="#STIXGeneral-Regular-2212"/>
      <use transform="translate(1087.394476 35.571875)scale(0.7)" xlink:href="#STIXGeneral-Regular-31"/>
      <use transform="translate(1126.80384 0.296875)" xlink:href="#STIXGeneral-Regular-29"/>
     </g>
    </g>
    <g id="line2d_23">
     <path d="M 148.4 55.129688 
L 168.4 55.129688 
" style="fill:none;stroke:#1e90ff;stroke-linecap:square;stroke-width:1.5;"/>
    </g>
    <g id="line2d_24">
     <g>
      <use style="fill:#1e90ff;stroke:#1e90ff;" x="158.4" xlink:href="#me94923f65d" y="55.129688"/>
     </g>
    </g>
    <g id="text_19">
     <!-- $R$ Selective ($F_Z=-0.1\:V\cdot\AA^{-1}$) -->
     <g transform="translate(176.4 58.629688)scale(0.1 -0.1)">
      <defs>
       <path d="M 845 4179 
L 2458 4179 
Q 3078 4179 3420 3936 
Q 3763 3693 3763 3277 
Q 3763 2778 3341 2458 
Q 3091 2266 2502 2131 
L 3072 627 
Q 3181 333 3299 217 
Q 3418 102 3629 102 
L 3629 0 
L 2688 0 
L 1901 2074 
L 1478 2106 
L 1126 806 
Q 1043 512 1043 403 
Q 1043 256 1126 192 
Q 1210 128 1472 102 
L 1472 0 
L -83 0 
L -83 102 
Q 173 134 278 243 
Q 384 352 461 646 
L 1222 3405 
Q 1299 3699 1299 3808 
Q 1299 3923 1210 3987 
Q 1133 4038 845 4077 
L 845 4179 
z
M 1958 3795 
L 1555 2342 
Q 1754 2310 1882 2310 
Q 2451 2310 2771 2566 
Q 3091 2822 3091 3270 
Q 3091 3603 2892 3795 
Q 2694 3987 2323 3987 
Q 2010 3987 1958 3795 
z
" id="STIXGeneral-Italic-52" transform="scale(0.015625)"/>
      </defs>
      <use transform="translate(0 0.296875)" xlink:href="#STIXGeneral-Italic-52"/>
      <use transform="translate(61.099991 0.296875)" xlink:href="#STIXGeneral-Regular-20"/>
      <use transform="translate(86.099976 0.296875)" xlink:href="#STIXGeneral-Regular-53"/>
      <use transform="translate(141.699966 0.296875)" xlink:href="#STIXGeneral-Regular-65"/>
      <use transform="translate(186.09996 0.296875)" xlink:href="#STIXGeneral-Regular-6c"/>
      <use transform="translate(213.899948 0.296875)" xlink:href="#STIXGeneral-Regular-65"/>
      <use transform="translate(258.299942 0.296875)" xlink:href="#STIXGeneral-Regular-63"/>
      <use transform="translate(302.699936 0.296875)" xlink:href="#STIXGeneral-Regular-74"/>
      <use transform="translate(330.499924 0.296875)" xlink:href="#STIXGeneral-Regular-69"/>
      <use transform="translate(358.299911 0.296875)" xlink:href="#STIXGeneral-Regular-76"/>
      <use transform="translate(408.299896 0.296875)" xlink:href="#STIXGeneral-Regular-65"/>
      <use transform="translate(452.69989 0.296875)" xlink:href="#STIXGeneral-Regular-20"/>
      <use transform="translate(477.699875 0.296875)" xlink:href="#STIXGeneral-Regular-28"/>
      <use transform="translate(510.999863 0.296875)" xlink:href="#STIXGeneral-Italic-46"/>
      <use transform="translate(572.099854 -12.93125)scale(0.7)" xlink:href="#STIXGeneral-Italic-5a"/>
      <use transform="translate(629.869218 0.296875)" xlink:href="#STIXGeneral-Regular-3d"/>
      <use transform="translate(727.249196 0.296875)" xlink:href="#STIXGeneral-Regular-2212"/>
      <use transform="translate(810.189177 0.296875)" xlink:href="#STIXGeneral-Regular-30"/>
      <use transform="translate(860.189162 0.296875)" xlink:href="#STIXGeneral-Regular-2e"/>
      <use transform="translate(885.189146 0.296875)" xlink:href="#STIXGeneral-Regular-31"/>
      <use transform="translate(951.233411 0.296875)" xlink:href="#STIXGeneral-Italic-56"/>
      <use transform="translate(1026.773398 0.296875)" xlink:href="#STIXGeneral-Regular-22c5"/>
      <use transform="translate(1069.813385 0.296875)" xlink:href="#STIXGeneral-Italic-c5"/>
      <use transform="translate(1147.92447 35.571875)scale(0.7)" xlink:href="#STIXGeneral-Regular-2212"/>
      <use transform="translate(1195.874459 35.571875)scale(0.7)" xlink:href="#STIXGeneral-Regular-31"/>
      <use transform="translate(1235.283824 0.296875)" xlink:href="#STIXGeneral-Regular-29"/>
     </g>
    </g>
   </g>
  </g>
 </g>
 <defs>
  <clipPath id="p85a4c84159">
   <rect height="163.08" width="279" x="33.3" y="7.2"/>
  </clipPath>
 </defs>
</svg>
