<?xml version="1.0" encoding="utf-8" standalone="no"?>
<!DOCTYPE svg PUBLIC "-//W3C//DTD SVG 1.1//EN"
  "http://www.w3.org/Graphics/SVG/1.1/DTD/svg11.dtd">
<svg height="206.48pt" version="1.1" viewBox="0 0 336.35 206.48" width="336.35pt" xmlns="http://www.w3.org/2000/svg" xmlns:xlink="http://www.w3.org/1999/xlink">
 <metadata>
  <rdf:RDF xmlns:cc="http://creativecommons.org/ns#" xmlns:dc="http://purl.org/dc/elements/1.1/" xmlns:rdf="http://www.w3.org/1999/02/22-rdf-syntax-ns#">
   <cc:Work>
    <dc:type rdf:resource="http://purl.org/dc/dcmitype/StillImage"/>
    <dc:date>2021-09-14T11:07:10.376630</dc:date>
    <dc:format>image/svg+xml</dc:format>
    <dc:creator>
     <cc:Agent>
      <dc:title>Matplotlib v3.4.3, https://matplotlib.org/</dc:title>
     </cc:Agent>
    </dc:creator>
   </cc:Work>
  </rdf:RDF>
 </metadata>
 <defs>
  <style type="text/css">*{stroke-linecap:butt;stroke-linejoin:round;}</style>
 </defs>
 <g id="figure_1">
  <g id="patch_1">
   <path d="M 0 206.48 
L 336.35 206.48 
L 336.35 0 
L 0 0 
z
" style="fill:none;"/>
  </g>
  <g id="axes_1">
   <g id="patch_2">
    <path d="M 50.15 170.28 
L 329.15 170.28 
L 329.15 7.2 
L 50.15 7.2 
z
" style="fill:#ffffff;"/>
   </g>
   <g id="matplotlib.axis_1">
    <g id="xtick_1">
     <g id="line2d_1">
      <defs>
       <path d="M 0 0 
L 0 3.5 
" id="m16ff734ae8" style="stroke:#000000;stroke-width:0.8;"/>
      </defs>
      <g>
       <use style="stroke:#000000;stroke-width:0.8;" x="62.831818" xlink:href="#m16ff734ae8" y="170.28"/>
      </g>
     </g>
     <g id="text_1">
      <!-- 0 -->
      <g transform="translate(60.331818 184.109688)scale(0.1 -0.1)">
       <defs>
        <path d="M 3046 2112 
Q 3046 1683 2963 1302 
Q 2880 922 2717 602 
Q 2554 282 2266 96 
Q 1978 -90 1600 -90 
Q 1210 -90 915 108 
Q 621 307 461 640 
Q 301 973 227 1350 
Q 154 1728 154 2150 
Q 154 2746 301 3222 
Q 448 3699 790 4012 
Q 1133 4326 1626 4326 
Q 2253 4326 2649 3712 
Q 3046 3098 3046 2112 
z
M 2432 2080 
Q 2432 3091 2217 3625 
Q 2003 4160 1587 4160 
Q 1190 4160 979 3622 
Q 768 3085 768 2106 
Q 768 1120 979 598 
Q 1190 77 1600 77 
Q 2003 77 2217 598 
Q 2432 1120 2432 2080 
z
" id="STIXGeneral-Regular-30" transform="scale(0.015625)"/>
       </defs>
       <use xlink:href="#STIXGeneral-Regular-30"/>
      </g>
     </g>
    </g>
    <g id="xtick_2">
     <g id="line2d_2">
      <g>
       <use style="stroke:#000000;stroke-width:0.8;" x="94.536364" xlink:href="#m16ff734ae8" y="170.28"/>
      </g>
     </g>
     <g id="text_2">
      <!-- 5 -->
      <g transform="translate(92.036364 184.109688)scale(0.1 -0.1)">
       <defs>
        <path d="M 2803 4358 
L 2573 3814 
Q 2534 3731 2400 3731 
L 1158 3731 
L 902 3187 
Q 1606 3053 1920 2896 
Q 2234 2739 2502 2368 
Q 2726 2061 2726 1555 
Q 2726 1094 2576 780 
Q 2426 467 2099 224 
Q 1664 -90 1011 -90 
Q 646 -90 422 19 
Q 198 128 198 307 
Q 198 550 486 550 
Q 717 550 960 352 
Q 1210 147 1414 147 
Q 1747 147 2012 480 
Q 2278 813 2278 1229 
Q 2278 1843 1850 2189 
Q 1293 2637 486 2637 
Q 410 2637 410 2688 
L 416 2720 
L 1114 4237 
L 2438 4237 
Q 2547 4237 2608 4269 
Q 2669 4301 2746 4403 
L 2803 4358 
z
" id="STIXGeneral-Regular-35" transform="scale(0.015625)"/>
       </defs>
       <use xlink:href="#STIXGeneral-Regular-35"/>
      </g>
     </g>
    </g>
    <g id="xtick_3">
     <g id="line2d_3">
      <g>
       <use style="stroke:#000000;stroke-width:0.8;" x="126.240909" xlink:href="#m16ff734ae8" y="170.28"/>
      </g>
     </g>
     <g id="text_3">
      <!-- 10 -->
      <g transform="translate(121.240909 184.109688)scale(0.1 -0.1)">
       <defs>
        <path d="M 2522 0 
L 755 0 
L 755 96 
Q 1107 115 1235 227 
Q 1363 339 1363 608 
L 1363 3482 
Q 1363 3795 1171 3795 
Q 1082 3795 883 3718 
L 710 3654 
L 710 3744 
L 1856 4326 
L 1914 4307 
L 1914 486 
Q 1914 275 2042 185 
Q 2170 96 2522 96 
L 2522 0 
z
" id="STIXGeneral-Regular-31" transform="scale(0.015625)"/>
       </defs>
       <use xlink:href="#STIXGeneral-Regular-31"/>
       <use x="49.999985" xlink:href="#STIXGeneral-Regular-30"/>
      </g>
     </g>
    </g>
    <g id="xtick_4">
     <g id="line2d_4">
      <g>
       <use style="stroke:#000000;stroke-width:0.8;" x="157.945455" xlink:href="#m16ff734ae8" y="170.28"/>
      </g>
     </g>
     <g id="text_4">
      <!-- 15 -->
      <g transform="translate(152.945455 184.109688)scale(0.1 -0.1)">
       <use xlink:href="#STIXGeneral-Regular-31"/>
       <use x="49.999985" xlink:href="#STIXGeneral-Regular-35"/>
      </g>
     </g>
    </g>
    <g id="xtick_5">
     <g id="line2d_5">
      <g>
       <use style="stroke:#000000;stroke-width:0.8;" x="189.65" xlink:href="#m16ff734ae8" y="170.28"/>
      </g>
     </g>
     <g id="text_5">
      <!-- 20 -->
      <g transform="translate(184.65 184.109688)scale(0.1 -0.1)">
       <defs>
        <path d="M 3034 877 
L 2688 0 
L 186 0 
L 186 77 
L 1325 1286 
Q 1773 1754 1965 2144 
Q 2157 2534 2157 2950 
Q 2157 3379 1920 3616 
Q 1683 3853 1267 3853 
Q 922 3853 720 3673 
Q 518 3494 326 3021 
L 192 3053 
Q 301 3648 630 3987 
Q 960 4326 1523 4326 
Q 2054 4326 2380 4006 
Q 2707 3686 2707 3200 
Q 2707 2477 1888 1613 
L 832 486 
L 2330 486 
Q 2541 486 2665 569 
Q 2790 653 2944 915 
L 3034 877 
z
" id="STIXGeneral-Regular-32" transform="scale(0.015625)"/>
       </defs>
       <use xlink:href="#STIXGeneral-Regular-32"/>
       <use x="49.999985" xlink:href="#STIXGeneral-Regular-30"/>
      </g>
     </g>
    </g>
    <g id="xtick_6">
     <g id="line2d_6">
      <g>
       <use style="stroke:#000000;stroke-width:0.8;" x="221.354545" xlink:href="#m16ff734ae8" y="170.28"/>
      </g>
     </g>
     <g id="text_6">
      <!-- 25 -->
      <g transform="translate(216.354545 184.109688)scale(0.1 -0.1)">
       <use xlink:href="#STIXGeneral-Regular-32"/>
       <use x="49.999985" xlink:href="#STIXGeneral-Regular-35"/>
      </g>
     </g>
    </g>
    <g id="xtick_7">
     <g id="line2d_7">
      <g>
       <use style="stroke:#000000;stroke-width:0.8;" x="253.059091" xlink:href="#m16ff734ae8" y="170.28"/>
      </g>
     </g>
     <g id="text_7">
      <!-- 30 -->
      <g transform="translate(248.059091 184.109688)scale(0.1 -0.1)">
       <defs>
        <path d="M 390 3264 
L 288 3290 
Q 435 3770 748 4048 
Q 1062 4326 1542 4326 
Q 1990 4326 2265 4083 
Q 2541 3840 2541 3450 
Q 2541 2925 1946 2566 
Q 2298 2413 2477 2227 
Q 2758 1914 2758 1402 
Q 2758 890 2464 506 
Q 2246 211 1840 60 
Q 1434 -90 979 -90 
Q 262 -90 262 275 
Q 262 378 339 442 
Q 416 506 525 506 
Q 685 506 915 339 
Q 1197 141 1466 141 
Q 1818 141 2058 425 
Q 2298 710 2298 1120 
Q 2298 1856 1632 2048 
Q 1434 2112 979 2112 
L 979 2202 
Q 1338 2323 1517 2432 
Q 2035 2726 2035 3290 
Q 2035 3610 1852 3776 
Q 1670 3942 1344 3942 
Q 768 3942 390 3264 
z
" id="STIXGeneral-Regular-33" transform="scale(0.015625)"/>
       </defs>
       <use xlink:href="#STIXGeneral-Regular-33"/>
       <use x="49.999985" xlink:href="#STIXGeneral-Regular-30"/>
      </g>
     </g>
    </g>
    <g id="xtick_8">
     <g id="line2d_8">
      <g>
       <use style="stroke:#000000;stroke-width:0.8;" x="284.763636" xlink:href="#m16ff734ae8" y="170.28"/>
      </g>
     </g>
     <g id="text_8">
      <!-- 35 -->
      <g transform="translate(279.763636 184.109688)scale(0.1 -0.1)">
       <use xlink:href="#STIXGeneral-Regular-33"/>
       <use x="49.999985" xlink:href="#STIXGeneral-Regular-35"/>
      </g>
     </g>
    </g>
    <g id="xtick_9">
     <g id="line2d_9">
      <g>
       <use style="stroke:#000000;stroke-width:0.8;" x="316.468182" xlink:href="#m16ff734ae8" y="170.28"/>
      </g>
     </g>
     <g id="text_9">
      <!-- 40 -->
      <g transform="translate(311.468182 184.109688)scale(0.1 -0.1)">
       <defs>
        <path d="M 3027 1069 
L 2368 1069 
L 2368 0 
L 1869 0 
L 1869 1069 
L 77 1069 
L 77 1478 
L 2086 4326 
L 2368 4326 
L 2368 1478 
L 3027 1478 
L 3027 1069 
z
M 1869 1478 
L 1869 3674 
L 333 1478 
L 1869 1478 
z
" id="STIXGeneral-Regular-34" transform="scale(0.015625)"/>
       </defs>
       <use xlink:href="#STIXGeneral-Regular-34"/>
       <use x="49.999985" xlink:href="#STIXGeneral-Regular-30"/>
      </g>
     </g>
    </g>
    <g id="text_10">
     <!-- IRC -->
     <g transform="translate(181.314844 197.109688)scale(0.1 -0.1)">
      <defs>
       <path d="M 2016 0 
L 115 0 
L 115 122 
Q 518 134 627 240 
Q 736 346 736 717 
L 736 3526 
Q 736 3898 633 3994 
Q 531 4090 115 4115 
L 115 4237 
L 2016 4237 
L 2016 4115 
Q 1613 4096 1501 3993 
Q 1389 3891 1389 3526 
L 1389 717 
Q 1389 358 1504 246 
Q 1619 134 2016 122 
L 2016 0 
z
" id="STIXGeneral-Regular-49" transform="scale(0.015625)"/>
       <path d="M 4224 0 
L 3187 0 
L 1664 1971 
L 1306 1958 
L 1306 717 
Q 1306 352 1405 249 
Q 1504 147 1875 122 
L 1875 0 
L 109 0 
L 109 122 
Q 474 154 563 262 
Q 653 371 653 794 
L 653 3526 
Q 653 3885 563 3987 
Q 474 4090 109 4115 
L 109 4237 
L 1850 4237 
Q 2726 4237 3187 3859 
Q 3501 3603 3501 3091 
Q 3501 2221 2342 2042 
L 3622 422 
Q 3757 256 3878 198 
Q 4000 141 4224 122 
L 4224 0 
z
M 1306 3731 
L 1306 2195 
Q 1766 2202 1990 2246 
Q 2214 2291 2438 2413 
Q 2803 2618 2803 3142 
Q 2803 4000 1632 4000 
Q 1459 4000 1382 3945 
Q 1306 3891 1306 3731 
z
" id="STIXGeneral-Regular-52" transform="scale(0.015625)"/>
       <path d="M 3930 838 
L 4051 723 
Q 3482 -90 2304 -90 
Q 1376 -90 794 480 
Q 179 1082 179 2080 
Q 179 3014 755 3661 
Q 1357 4326 2310 4326 
Q 2720 4326 3072 4230 
Q 3475 4115 3514 4115 
Q 3725 4115 3782 4326 
L 3910 4326 
L 3968 2874 
L 3821 2874 
Q 3718 3334 3488 3584 
Q 3034 4070 2458 4070 
Q 1747 4070 1334 3548 
Q 922 3027 922 2182 
Q 922 1152 1382 653 
Q 1811 192 2522 192 
Q 2944 192 3251 339 
Q 3558 486 3930 838 
z
" id="STIXGeneral-Regular-43" transform="scale(0.015625)"/>
      </defs>
      <use xlink:href="#STIXGeneral-Regular-49"/>
      <use x="33.299988" xlink:href="#STIXGeneral-Regular-52"/>
      <use x="99.999985" xlink:href="#STIXGeneral-Regular-43"/>
     </g>
    </g>
   </g>
   <g id="matplotlib.axis_2">
    <g id="ytick_1">
     <g id="line2d_10">
      <defs>
       <path d="M 0 0 
L -3.5 0 
" id="m07cd369c47" style="stroke:#000000;stroke-width:0.8;"/>
      </defs>
      <g>
       <use style="stroke:#000000;stroke-width:0.8;" x="50.15" xlink:href="#m07cd369c47" y="154.410217"/>
      </g>
     </g>
     <g id="text_11">
      <!-- −100 -->
      <g transform="translate(21.3 157.82506)scale(0.1 -0.1)">
       <defs>
        <path d="M 3974 1408 
L 410 1408 
L 410 1830 
L 3974 1830 
L 3974 1408 
z
" id="STIXGeneral-Regular-2212" transform="scale(0.015625)"/>
       </defs>
       <use xlink:href="#STIXGeneral-Regular-2212"/>
       <use x="68.499985" xlink:href="#STIXGeneral-Regular-31"/>
       <use x="118.499969" xlink:href="#STIXGeneral-Regular-30"/>
       <use x="168.499954" xlink:href="#STIXGeneral-Regular-30"/>
      </g>
     </g>
    </g>
    <g id="ytick_2">
     <g id="line2d_11">
      <g>
       <use style="stroke:#000000;stroke-width:0.8;" x="50.15" xlink:href="#m07cd369c47" y="126.450719"/>
      </g>
     </g>
     <g id="text_12">
      <!-- −80 -->
      <g transform="translate(26.3 129.865563)scale(0.1 -0.1)">
       <defs>
        <path d="M 2848 992 
Q 2848 499 2505 204 
Q 2163 -90 1587 -90 
Q 1050 -90 704 204 
Q 358 499 358 954 
Q 358 1293 524 1533 
Q 691 1773 1190 2125 
Q 710 2522 553 2765 
Q 397 3008 397 3328 
Q 397 3782 745 4054 
Q 1094 4326 1638 4326 
Q 2106 4326 2410 4060 
Q 2714 3795 2714 3411 
Q 2714 3059 2531 2848 
Q 2349 2637 1856 2374 
Q 2432 1990 2640 1689 
Q 2848 1389 2848 992 
z
M 2272 3411 
Q 2272 3744 2086 3945 
Q 1901 4147 1574 4147 
Q 1248 4147 1059 3977 
Q 870 3808 870 3513 
Q 870 3219 1059 2979 
Q 1248 2739 1670 2490 
Q 1997 2682 2134 2896 
Q 2272 3110 2272 3411 
z
M 1734 1741 
L 1357 1997 
Q 1075 1766 960 1545 
Q 845 1325 845 1011 
Q 845 576 1065 333 
Q 1286 90 1658 90 
Q 1971 90 2166 285 
Q 2362 480 2362 794 
Q 2362 1082 2214 1299 
Q 2067 1517 1734 1741 
z
" id="STIXGeneral-Regular-38" transform="scale(0.015625)"/>
       </defs>
       <use xlink:href="#STIXGeneral-Regular-2212"/>
       <use x="68.499985" xlink:href="#STIXGeneral-Regular-38"/>
       <use x="118.499969" xlink:href="#STIXGeneral-Regular-30"/>
      </g>
     </g>
    </g>
    <g id="ytick_3">
     <g id="line2d_12">
      <g>
       <use style="stroke:#000000;stroke-width:0.8;" x="50.15" xlink:href="#m07cd369c47" y="98.491221"/>
      </g>
     </g>
     <g id="text_13">
      <!-- −60 -->
      <g transform="translate(26.3 101.906065)scale(0.1 -0.1)">
       <defs>
        <path d="M 2854 4378 
L 2867 4275 
Q 2112 4154 1606 3664 
Q 1101 3174 973 2451 
Q 1344 2739 1786 2739 
Q 2349 2739 2672 2380 
Q 2995 2022 2995 1402 
Q 2995 774 2669 378 
Q 2291 -90 1651 -90 
Q 870 -90 518 557 
Q 218 1107 218 1786 
Q 218 2835 915 3552 
Q 1312 3962 1731 4131 
Q 2150 4301 2854 4378 
z
M 2419 1203 
Q 2419 2445 1555 2445 
Q 1235 2445 1024 2275 
Q 813 2106 813 1702 
Q 813 954 1046 522 
Q 1280 90 1722 90 
Q 2061 90 2240 394 
Q 2419 698 2419 1203 
z
" id="STIXGeneral-Regular-36" transform="scale(0.015625)"/>
       </defs>
       <use xlink:href="#STIXGeneral-Regular-2212"/>
       <use x="68.499985" xlink:href="#STIXGeneral-Regular-36"/>
       <use x="118.499969" xlink:href="#STIXGeneral-Regular-30"/>
      </g>
     </g>
    </g>
    <g id="ytick_4">
     <g id="line2d_13">
      <g>
       <use style="stroke:#000000;stroke-width:0.8;" x="50.15" xlink:href="#m07cd369c47" y="70.531723"/>
      </g>
     </g>
     <g id="text_14">
      <!-- −40 -->
      <g transform="translate(26.3 73.946567)scale(0.1 -0.1)">
       <use xlink:href="#STIXGeneral-Regular-2212"/>
       <use x="68.499985" xlink:href="#STIXGeneral-Regular-34"/>
       <use x="118.499969" xlink:href="#STIXGeneral-Regular-30"/>
      </g>
     </g>
    </g>
    <g id="ytick_5">
     <g id="line2d_14">
      <g>
       <use style="stroke:#000000;stroke-width:0.8;" x="50.15" xlink:href="#m07cd369c47" y="42.572225"/>
      </g>
     </g>
     <g id="text_15">
      <!-- −20 -->
      <g transform="translate(26.3 45.987069)scale(0.1 -0.1)">
       <use xlink:href="#STIXGeneral-Regular-2212"/>
       <use x="68.499985" xlink:href="#STIXGeneral-Regular-32"/>
       <use x="118.499969" xlink:href="#STIXGeneral-Regular-30"/>
      </g>
     </g>
    </g>
    <g id="ytick_6">
     <g id="line2d_15">
      <g>
       <use style="stroke:#000000;stroke-width:0.8;" x="50.15" xlink:href="#m07cd369c47" y="14.612727"/>
      </g>
     </g>
     <g id="text_16">
      <!-- 0 -->
      <g transform="translate(38.15 18.027571)scale(0.1 -0.1)">
       <use xlink:href="#STIXGeneral-Regular-30"/>
      </g>
     </g>
    </g>
    <g id="text_17">
     <!-- $\Delta E$ ($KJ\cdot mol^{-1}$) -->
     <g transform="translate(15.129688 120.89)rotate(-90)scale(0.1 -0.1)">
      <defs>
       <path d="M 4320 0 
L 307 0 
L 2221 4314 
L 2349 4314 
L 4320 0 
z
M 3354 589 
L 2118 3405 
L 870 589 
L 3354 589 
z
" id="STIXGeneral-Regular-394" transform="scale(0.015625)"/>
       <path d="M 4058 4179 
L 3859 3194 
L 3718 3206 
Q 3738 3366 3738 3501 
Q 3738 3789 3501 3878 
Q 3264 3968 2509 3968 
Q 2240 3968 2157 3939 
Q 2074 3910 2042 3802 
L 1619 2310 
L 2118 2310 
Q 2541 2310 2681 2412 
Q 2822 2515 3008 2931 
L 3123 2906 
L 2688 1421 
L 2560 1453 
Q 2605 1651 2605 1786 
Q 2605 1939 2560 1984 
Q 2451 2080 2061 2080 
L 1562 2080 
L 1357 1363 
Q 1126 550 1126 429 
Q 1126 211 1632 211 
Q 2458 211 2931 461 
Q 3174 589 3533 1088 
L 3635 1037 
L 3238 0 
L -6 0 
L -6 102 
Q 269 154 352 227 
Q 435 301 512 576 
L 1299 3405 
Q 1370 3642 1370 3814 
Q 1370 3942 1270 3996 
Q 1171 4051 877 4077 
L 877 4179 
L 4058 4179 
z
" id="STIXGeneral-Italic-45" transform="scale(0.015625)"/>
       <path id="STIXGeneral-Regular-20" transform="scale(0.015625)"/>
       <path d="M 1946 -1030 
L 1869 -1133 
Q 1126 -710 716 32 
Q 307 774 307 1613 
Q 307 3386 1888 4326 
L 1946 4224 
Q 1293 3667 1075 3126 
Q 858 2586 858 1632 
Q 858 685 1082 96 
Q 1306 -493 1946 -1030 
z
" id="STIXGeneral-Regular-28" transform="scale(0.015625)"/>
       <path d="M 4621 4179 
L 4621 4077 
Q 4442 4077 4128 3840 
L 2221 2400 
L 3296 525 
Q 3443 269 3552 201 
Q 3661 134 3962 102 
L 3962 0 
L 2202 0 
L 2202 102 
L 2387 122 
Q 2682 147 2682 326 
Q 2682 365 2672 409 
Q 2662 454 2630 515 
Q 2598 576 2579 611 
Q 2560 646 2509 736 
Q 2458 826 2445 851 
L 1658 2227 
L 1242 710 
Q 1171 467 1171 384 
Q 1171 237 1264 182 
Q 1357 128 1626 102 
L 1626 0 
L 45 0 
L 45 102 
Q 320 134 403 211 
Q 486 288 563 557 
L 1357 3405 
Q 1446 3725 1446 3802 
Q 1446 3936 1337 4000 
Q 1229 4064 941 4077 
L 941 4179 
L 2669 4179 
L 2669 4077 
Q 2400 4058 2253 3958 
Q 2106 3859 2035 3603 
L 1696 2362 
L 2675 3059 
Q 3590 3706 3590 3936 
Q 3590 4032 3360 4058 
L 3206 4077 
L 3206 4179 
L 4621 4179 
z
" id="STIXGeneral-Italic-4b" transform="scale(0.015625)"/>
       <path d="M 3142 4179 
L 3142 4077 
Q 2867 4038 2784 3964 
Q 2701 3891 2618 3603 
L 1958 1254 
Q 1773 589 1504 237 
Q 1235 -115 710 -115 
Q 371 -115 166 38 
Q -38 192 -38 448 
Q -38 602 42 704 
Q 122 806 250 806 
Q 378 806 477 720 
Q 576 634 576 512 
Q 576 474 566 419 
Q 557 365 557 339 
Q 557 90 781 90 
Q 1005 90 1120 499 
L 1933 3405 
Q 2010 3686 2010 3814 
Q 2010 3942 1914 3996 
Q 1818 4051 1517 4077 
L 1517 4179 
L 3142 4179 
z
" id="STIXGeneral-Italic-4a" transform="scale(0.015625)"/>
       <path d="M 1187 1888 
Q 1299 1773 1299 1619 
Q 1299 1466 1187 1350 
Q 1075 1235 921 1235 
Q 768 1235 649 1353 
Q 531 1472 531 1619 
Q 531 1766 649 1884 
Q 768 2003 921 2003 
Q 1075 2003 1187 1888 
z
" id="STIXGeneral-Regular-22c5" transform="scale(0.015625)"/>
       <path d="M 4506 672 
L 4474 627 
Q 3981 -58 3552 -58 
Q 3296 -58 3296 237 
Q 3296 333 3379 659 
L 3750 2112 
Q 3795 2291 3795 2355 
Q 3795 2413 3756 2451 
Q 3718 2490 3667 2490 
Q 3366 2490 2829 1741 
Q 2592 1408 2457 1072 
Q 2323 736 2138 0 
L 1658 0 
L 1830 595 
Q 2266 2099 2266 2330 
Q 2266 2490 2125 2490 
Q 1965 2490 1702 2237 
Q 1440 1984 1171 1574 
Q 1011 1325 899 1043 
Q 787 762 557 0 
L 77 0 
L 352 922 
Q 704 2093 704 2381 
Q 704 2522 442 2522 
L 282 2522 
L 282 2624 
L 1318 2822 
L 1338 2810 
L 966 1472 
Q 1798 2822 2374 2822 
Q 2560 2822 2659 2720 
Q 2758 2618 2758 2438 
Q 2758 2195 2502 1466 
Q 2842 2003 3069 2275 
Q 3296 2547 3526 2694 
Q 3731 2822 3930 2822 
Q 4102 2822 4201 2710 
Q 4301 2598 4301 2419 
Q 4301 2336 4282 2240 
L 3846 634 
Q 3782 390 3782 346 
Q 3782 243 3859 243 
Q 4000 243 4275 582 
L 4410 749 
L 4506 672 
z
" id="STIXGeneral-Italic-6d" transform="scale(0.015625)"/>
       <path d="M 2995 1926 
Q 2995 1562 2812 1168 
Q 2630 774 2317 461 
Q 1786 -70 1114 -70 
Q 666 -70 419 163 
Q 173 397 173 819 
Q 173 1350 496 1856 
Q 819 2362 1325 2630 
Q 1683 2822 2093 2822 
Q 2490 2822 2742 2582 
Q 2995 2342 2995 1926 
z
M 2458 2086 
Q 2458 2374 2336 2531 
Q 2214 2688 2003 2688 
Q 1574 2688 1184 2106 
Q 710 1382 710 646 
Q 710 365 844 214 
Q 979 64 1210 64 
Q 1600 64 1984 595 
Q 2202 890 2330 1302 
Q 2458 1715 2458 2086 
z
" id="STIXGeneral-Italic-6f" transform="scale(0.015625)"/>
       <path d="M 1786 4339 
L 806 595 
Q 755 410 755 320 
Q 755 205 864 205 
Q 1037 205 1293 570 
L 1453 794 
L 1542 730 
Q 1254 275 1046 102 
Q 838 -70 576 -70 
Q 262 -70 262 288 
Q 262 397 288 480 
L 1165 3834 
Q 1184 3898 1184 3955 
Q 1184 4096 870 4096 
L 755 4096 
L 755 4198 
Q 1203 4250 1747 4371 
L 1786 4339 
z
" id="STIXGeneral-Italic-6c" transform="scale(0.015625)"/>
       <path d="M 186 4224 
L 262 4326 
Q 992 3891 1408 3148 
Q 1824 2406 1824 1581 
Q 1824 -166 243 -1133 
L 186 -1030 
Q 845 -486 1059 54 
Q 1274 595 1274 1562 
Q 1274 2534 1059 3120 
Q 845 3706 186 4224 
z
" id="STIXGeneral-Regular-29" transform="scale(0.015625)"/>
      </defs>
      <use transform="translate(0 0.409375)" xlink:href="#STIXGeneral-Regular-394"/>
      <use transform="translate(72.199982 0.409375)" xlink:href="#STIXGeneral-Italic-45"/>
      <use transform="translate(133.299973 0.409375)" xlink:href="#STIXGeneral-Regular-20"/>
      <use transform="translate(158.299957 0.409375)" xlink:href="#STIXGeneral-Regular-28"/>
      <use transform="translate(191.599945 0.409375)" xlink:href="#STIXGeneral-Italic-4b"/>
      <use transform="translate(258.299942 0.409375)" xlink:href="#STIXGeneral-Italic-4a"/>
      <use transform="translate(317.139932 0.409375)" xlink:href="#STIXGeneral-Regular-22c5"/>
      <use transform="translate(360.179919 0.409375)" xlink:href="#STIXGeneral-Italic-6d"/>
      <use transform="translate(432.379901 0.409375)" xlink:href="#STIXGeneral-Italic-6f"/>
      <use transform="translate(482.379886 0.409375)" xlink:href="#STIXGeneral-Italic-6c"/>
      <use transform="translate(521.435655 35.684375)scale(0.7)" xlink:href="#STIXGeneral-Regular-2212"/>
      <use transform="translate(569.385644 35.684375)scale(0.7)" xlink:href="#STIXGeneral-Regular-31"/>
      <use transform="translate(608.795009 0.409375)" xlink:href="#STIXGeneral-Regular-29"/>
     </g>
    </g>
   </g>
   <g id="line2d_16">
    <path clip-path="url(#p4e9a30a06f)" d="M 62.831818 162.867273 
L 69.172727 159.688448 
L 75.513636 156.388136 
L 81.854545 152.973533 
L 88.195455 149.434402 
L 94.536364 145.77355 
L 100.877273 141.993025 
L 107.218182 138.095518 
L 113.559091 134.038616 
L 119.9 130.25085 
L 126.240909 127.673158 
L 132.581818 119.83717 
L 138.922727 110.916509 
L 145.263636 101.069147 
L 151.604545 90.443394 
L 157.945455 79.070527 
L 164.286364 66.823766 
L 170.627273 53.623906 
L 176.968182 39.878563 
L 183.309091 27.886777 
L 189.65 14.612727 
L 195.990909 14.99075 
L 202.331818 17.767021 
L 208.672727 21.256423 
L 215.013636 24.758213 
L 221.354545 28.216165 
L 227.695455 31.657937 
L 234.036364 35.101704 
L 240.377273 38.551449 
L 246.718182 42.006359 
L 253.059091 45.466427 
L 259.4 48.931064 
L 265.740909 52.404182 
L 272.081818 55.888595 
L 278.422727 59.394983 
L 284.763636 62.929224 
L 291.104545 66.506264 
L 297.445455 70.125054 
L 303.786364 73.802394 
L 310.127273 77.525843 
L 316.468182 81.308129 
" style="fill:none;stroke:#1f77b4;stroke-linecap:square;stroke-width:1.5;"/>
    <defs>
     <path d="M 0 1.5 
C 0.397805 1.5 0.77937 1.341951 1.06066 1.06066 
C 1.341951 0.77937 1.5 0.397805 1.5 0 
C 1.5 -0.397805 1.341951 -0.77937 1.06066 -1.06066 
C 0.77937 -1.341951 0.397805 -1.5 0 -1.5 
C -0.397805 -1.5 -0.77937 -1.341951 -1.06066 -1.06066 
C -1.341951 -0.77937 -1.5 -0.397805 -1.5 0 
C -1.5 0.397805 -1.341951 0.77937 -1.06066 1.06066 
C -0.77937 1.341951 -0.397805 1.5 0 1.5 
z
" id="mbb0c10c90e" style="stroke:#1f77b4;"/>
    </defs>
    <g clip-path="url(#p4e9a30a06f)">
     <use style="fill:#1f77b4;stroke:#1f77b4;" x="62.831818" xlink:href="#mbb0c10c90e" y="162.867273"/>
     <use style="fill:#1f77b4;stroke:#1f77b4;" x="69.172727" xlink:href="#mbb0c10c90e" y="159.688448"/>
     <use style="fill:#1f77b4;stroke:#1f77b4;" x="75.513636" xlink:href="#mbb0c10c90e" y="156.388136"/>
     <use style="fill:#1f77b4;stroke:#1f77b4;" x="81.854545" xlink:href="#mbb0c10c90e" y="152.973533"/>
     <use style="fill:#1f77b4;stroke:#1f77b4;" x="88.195455" xlink:href="#mbb0c10c90e" y="149.434402"/>
     <use style="fill:#1f77b4;stroke:#1f77b4;" x="94.536364" xlink:href="#mbb0c10c90e" y="145.77355"/>
     <use style="fill:#1f77b4;stroke:#1f77b4;" x="100.877273" xlink:href="#mbb0c10c90e" y="141.993025"/>
     <use style="fill:#1f77b4;stroke:#1f77b4;" x="107.218182" xlink:href="#mbb0c10c90e" y="138.095518"/>
     <use style="fill:#1f77b4;stroke:#1f77b4;" x="113.559091" xlink:href="#mbb0c10c90e" y="134.038616"/>
     <use style="fill:#1f77b4;stroke:#1f77b4;" x="119.9" xlink:href="#mbb0c10c90e" y="130.25085"/>
     <use style="fill:#1f77b4;stroke:#1f77b4;" x="126.240909" xlink:href="#mbb0c10c90e" y="127.673158"/>
     <use style="fill:#1f77b4;stroke:#1f77b4;" x="132.581818" xlink:href="#mbb0c10c90e" y="119.83717"/>
     <use style="fill:#1f77b4;stroke:#1f77b4;" x="138.922727" xlink:href="#mbb0c10c90e" y="110.916509"/>
     <use style="fill:#1f77b4;stroke:#1f77b4;" x="145.263636" xlink:href="#mbb0c10c90e" y="101.069147"/>
     <use style="fill:#1f77b4;stroke:#1f77b4;" x="151.604545" xlink:href="#mbb0c10c90e" y="90.443394"/>
     <use style="fill:#1f77b4;stroke:#1f77b4;" x="157.945455" xlink:href="#mbb0c10c90e" y="79.070527"/>
     <use style="fill:#1f77b4;stroke:#1f77b4;" x="164.286364" xlink:href="#mbb0c10c90e" y="66.823766"/>
     <use style="fill:#1f77b4;stroke:#1f77b4;" x="170.627273" xlink:href="#mbb0c10c90e" y="53.623906"/>
     <use style="fill:#1f77b4;stroke:#1f77b4;" x="176.968182" xlink:href="#mbb0c10c90e" y="39.878563"/>
     <use style="fill:#1f77b4;stroke:#1f77b4;" x="183.309091" xlink:href="#mbb0c10c90e" y="27.886777"/>
     <use style="fill:#1f77b4;stroke:#1f77b4;" x="189.65" xlink:href="#mbb0c10c90e" y="14.612727"/>
     <use style="fill:#1f77b4;stroke:#1f77b4;" x="195.990909" xlink:href="#mbb0c10c90e" y="14.99075"/>
     <use style="fill:#1f77b4;stroke:#1f77b4;" x="202.331818" xlink:href="#mbb0c10c90e" y="17.767021"/>
     <use style="fill:#1f77b4;stroke:#1f77b4;" x="208.672727" xlink:href="#mbb0c10c90e" y="21.256423"/>
     <use style="fill:#1f77b4;stroke:#1f77b4;" x="215.013636" xlink:href="#mbb0c10c90e" y="24.758213"/>
     <use style="fill:#1f77b4;stroke:#1f77b4;" x="221.354545" xlink:href="#mbb0c10c90e" y="28.216165"/>
     <use style="fill:#1f77b4;stroke:#1f77b4;" x="227.695455" xlink:href="#mbb0c10c90e" y="31.657937"/>
     <use style="fill:#1f77b4;stroke:#1f77b4;" x="234.036364" xlink:href="#mbb0c10c90e" y="35.101704"/>
     <use style="fill:#1f77b4;stroke:#1f77b4;" x="240.377273" xlink:href="#mbb0c10c90e" y="38.551449"/>
     <use style="fill:#1f77b4;stroke:#1f77b4;" x="246.718182" xlink:href="#mbb0c10c90e" y="42.006359"/>
     <use style="fill:#1f77b4;stroke:#1f77b4;" x="253.059091" xlink:href="#mbb0c10c90e" y="45.466427"/>
     <use style="fill:#1f77b4;stroke:#1f77b4;" x="259.4" xlink:href="#mbb0c10c90e" y="48.931064"/>
     <use style="fill:#1f77b4;stroke:#1f77b4;" x="265.740909" xlink:href="#mbb0c10c90e" y="52.404182"/>
     <use style="fill:#1f77b4;stroke:#1f77b4;" x="272.081818" xlink:href="#mbb0c10c90e" y="55.888595"/>
     <use style="fill:#1f77b4;stroke:#1f77b4;" x="278.422727" xlink:href="#mbb0c10c90e" y="59.394983"/>
     <use style="fill:#1f77b4;stroke:#1f77b4;" x="284.763636" xlink:href="#mbb0c10c90e" y="62.929224"/>
     <use style="fill:#1f77b4;stroke:#1f77b4;" x="291.104545" xlink:href="#mbb0c10c90e" y="66.506264"/>
     <use style="fill:#1f77b4;stroke:#1f77b4;" x="297.445455" xlink:href="#mbb0c10c90e" y="70.125054"/>
     <use style="fill:#1f77b4;stroke:#1f77b4;" x="303.786364" xlink:href="#mbb0c10c90e" y="73.802394"/>
     <use style="fill:#1f77b4;stroke:#1f77b4;" x="310.127273" xlink:href="#mbb0c10c90e" y="77.525843"/>
     <use style="fill:#1f77b4;stroke:#1f77b4;" x="316.468182" xlink:href="#mbb0c10c90e" y="81.308129"/>
    </g>
   </g>
   <g id="patch_3">
    <path d="M 50.15 170.28 
L 50.15 7.2 
" style="fill:none;stroke:#000000;stroke-linecap:square;stroke-linejoin:miter;stroke-width:0.8;"/>
   </g>
   <g id="patch_4">
    <path d="M 329.15 170.28 
L 329.15 7.2 
" style="fill:none;stroke:#000000;stroke-linecap:square;stroke-linejoin:miter;stroke-width:0.8;"/>
   </g>
   <g id="patch_5">
    <path d="M 50.15 170.28 
L 329.15 170.28 
" style="fill:none;stroke:#000000;stroke-linecap:square;stroke-linejoin:miter;stroke-width:0.8;"/>
   </g>
   <g id="patch_6">
    <path d="M 50.15 7.2 
L 329.15 7.2 
" style="fill:none;stroke:#000000;stroke-linecap:square;stroke-linejoin:miter;stroke-width:0.8;"/>
   </g>
  </g>
 </g>
 <defs>
  <clipPath id="p4e9a30a06f">
   <rect height="163.08" width="279" x="50.15" y="7.2"/>
  </clipPath>
 </defs>
</svg>
