<?xml version="1.0" standalone="no"?>
<!DOCTYPE svg PUBLIC "-//W3C//DTD SVG 20010904//EN"
 "http://www.w3.org/TR/2001/REC-SVG-20010904/DTD/svg10.dtd">
<svg version="1.0" xmlns="http://www.w3.org/2000/svg"
 width="512.000000pt" height="512.000000pt" viewBox="0 0 512.000000 512.000000"
 preserveAspectRatio="xMidYMid meet">
<metadata>
Created by potrace 1.14, written by Peter Selinger 2001-2017
</metadata>
<g transform="translate(0.000000,512.000000) scale(0.100000,-0.100000)"
fill="#000000" stroke="none">
<path d="M3419 5115 c-2 -2 -27 -6 -54 -8 -128 -13 -300 -60 -435 -119 -337
-149 -612 -411 -772 -738 -165 -335 -205 -706 -116 -1065 70 -282 196 -506
414 -735 174 -183 275 -367 335 -615 18 -72 22 -122 23 -250 1 -88 -2 -180 -7
-205 -4 -25 -9 -58 -12 -75 -11 -59 -58 -202 -93 -275 -30 -65 -106 -196 -122
-210 -3 -3 -23 -27 -45 -55 -137 -173 -361 -327 -577 -398 -210 -70 -450 -82
-673 -33 -359 77 -683 333 -854 674 -36 72 -87 217 -102 294 -40 200 -32 411
22 606 76 274 240 505 487 685 28 21 52 34 52 27 0 -6 -12 -52 -26 -101 -14
-50 -24 -92 -22 -94 1 -1 66 -21 143 -42 159 -46 142 -51 170 52 7 28 30 106
50 175 20 69 38 132 40 140 20 75 55 191 59 198 6 11 2 14 -184 162 -80 63
-147 117 -150 120 -3 3 -40 33 -83 67 -69 54 -107 70 -107 44 0 -4 -8 -16 -17
-27 -10 -10 -36 -42 -58 -69 -21 -28 -42 -52 -45 -55 -10 -8 -40 -54 -40 -61
0 -3 47 -43 105 -89 58 -46 105 -87 105 -91 0 -5 -15 -16 -32 -25 -33 -17
-169 -104 -178 -114 -3 -3 -25 -21 -50 -41 -163 -132 -305 -310 -405 -509 -45
-90 -117 -290 -128 -355 -3 -16 -8 -41 -11 -55 -20 -80 -29 -367 -15 -470 36
-266 118 -484 256 -689 249 -367 625 -605 1068 -674 89 -14 391 -16 445 -3 14
4 41 9 60 12 71 11 197 47 280 79 608 234 1002 810 1001 1461 0 97 -4 159 -16
229 -29 178 -78 329 -156 482 -72 140 -166 269 -303 413 -227 240 -350 548
-348 874 1 79 9 176 17 206 2 8 7 31 10 50 9 60 66 222 102 295 185 371 557
639 958 692 121 15 352 7 434 -17 17 -5 35 -9 39 -10 57 -8 177 -53 272 -101
370 -187 625 -550 678 -964 11 -92 5 -298 -12 -390 -58 -306 -235 -590 -481
-772 -98 -73 -96 -74 -69 20 13 45 26 91 30 103 5 18 -5 23 -108 54 -62 18
-128 33 -147 34 l-34 1 -84 -290 c-45 -159 -82 -298 -80 -308 2 -16 482 -408
496 -406 7 1 174 212 178 226 2 6 -44 48 -102 94 -58 45 -105 86 -105 91 0 4
15 15 33 24 43 23 194 127 237 164 198 173 348 378 438 598 39 95 75 207 86
267 3 17 8 44 11 60 16 85 20 144 19 295 -1 248 -46 442 -156 667 -156 319
-448 602 -759 734 -41 17 -87 37 -104 44 -45 20 -213 63 -270 71 -27 3 -54 9
-59 12 -11 6 -341 13 -347 7z"/>
<path d="M3409 4368 c-1 -13 -2 -85 -2 -160 -1 -75 -4 -138 -7 -141 -3 -2 -30
-15 -60 -29 -30 -14 -76 -41 -101 -60 l-45 -35 -138 79 c-76 44 -142 76 -146
71 -5 -4 -40 -63 -78 -129 l-70 -122 42 -23 c22 -13 53 -30 67 -39 14 -8 57
-32 95 -54 l69 -39 0 -128 0 -128 -132 -77 c-73 -41 -133 -80 -133 -85 0 -6
33 -66 73 -134 l72 -123 40 24 c22 14 49 30 60 35 11 5 43 23 70 39 111 67
106 67 157 28 41 -32 106 -66 149 -81 14 -5 16 -27 15 -166 l-1 -161 153 0
152 0 0 159 0 160 56 25 c32 15 79 42 105 61 27 19 51 35 53 35 3 0 63 -34
134 -75 71 -41 134 -75 139 -75 9 0 157 249 151 255 -7 7 -162 96 -240 138
-31 17 -35 24 -31 46 7 32 8 144 2 189 -4 34 -4 34 128 111 73 42 135 80 138
83 3 3 -20 50 -52 104 -32 55 -64 111 -72 127 -8 15 -18 27 -22 27 -4 0 -65
-34 -136 -75 -119 -69 -163 -87 -163 -67 0 11 -110 78 -152 93 l-38 13 0 163
0 163 -150 0 c-149 0 -150 0 -151 -22z m246 -608 c183 -83 163 -352 -31 -417
-91 -31 -204 13 -259 102 -26 42 -30 58 -29 114 1 75 17 115 68 163 67 63 162
78 251 38z"/>
<path d="M1419 2390 c-5 -3 -10 -77 -11 -164 l-3 -158 -40 -17 c-35 -14 -104
-55 -155 -92 -12 -8 -40 4 -130 56 -63 37 -119 71 -124 76 -23 21 -44 5 -88
-68 -92 -155 -101 -175 -87 -184 8 -5 71 -41 140 -80 l125 -73 -6 -43 c-7 -42
-5 -164 2 -191 1 -7 -15 -23 -37 -35 -79 -44 -235 -138 -235 -142 0 -3 139
-245 146 -253 2 -3 149 78 254 140 24 14 32 15 42 5 28 -28 105 -75 151 -92
l47 -18 0 -163 0 -164 150 0 c113 0 150 3 151 13 0 6 0 78 0 159 l1 147 71 36
c40 19 87 48 106 64 l35 30 45 -26 c25 -15 87 -51 138 -80 50 -29 93 -53 96
-53 6 0 147 245 147 256 -1 5 -60 43 -133 84 l-132 75 0 128 0 129 133 75 c72
41 132 79 132 84 0 6 -132 240 -144 256 -1 1 -42 -22 -92 -51 -50 -29 -112
-65 -139 -80 l-48 -27 -41 31 c-23 17 -71 45 -108 62 l-67 32 2 158 c1 100 -2
158 -8 159 -47 4 -279 3 -286 -1z m238 -624 c108 -51 157 -175 114 -288 -15
-40 -70 -97 -114 -120 -47 -24 -129 -26 -180 -5 -51 22 -103 72 -122 120 -79
193 114 380 302 293z"/>
</g>
</svg>
