<?xml version="1.0" encoding="UTF-8" ?>
<svg width="460" viewBox="30 0 460 500" height="500" xmlns="http://www.w3.org/2000/svg">
    <line x1="100" y1="25" x2="100" y2="475" stroke="black" stroke-width="2"/>
    <line x1="100" y1="475" x2="435" y2="475" stroke="black" stroke-width="2"/>
    <text x="240" y="20" font-size="22" text-anchor="middle" fill="black"></text>
    <text x="-250" y="55" font-size="22" transform="rotate(-90)" text-anchor="middle" fill="black">&#916;G (eV)</text>
    <text x="240" y="495" font-size="22" text-anchor="middle" fill="black">Reaction coordinate</text>
    <line x1="100" y1="70" x2="105" y2="70" stroke="black" stroke-width="2"/>
    <text x="80" y="70" text-anchor="middle" fill="black">0.0</text>
    <line x1="100" y1="110" x2="105" y2="110" stroke="black" stroke-width="2"/>
    <text x="80" y="110" text-anchor="middle" fill="black">-0.5</text>
    <line x1="100" y1="149" x2="105" y2="149" stroke="black" stroke-width="2"/>
    <text x="80" y="149" text-anchor="middle" fill="black">-1.0</text>
    <line x1="100" y1="189" x2="105" y2="189" stroke="black" stroke-width="2"/>
    <text x="80" y="189" text-anchor="middle" fill="black">-1.5</text>
    <line x1="100" y1="229" x2="105" y2="229" stroke="black" stroke-width="2"/>
    <text x="80" y="229" text-anchor="middle" fill="black">-2.0</text>
    <line x1="100" y1="268" x2="105" y2="268" stroke="black" stroke-width="2"/>
    <text x="80" y="268" text-anchor="middle" fill="black">-2.5</text>
    <line x1="100" y1="308" x2="105" y2="308" stroke="black" stroke-width="2"/>
    <text x="80" y="308" text-anchor="middle" fill="black">-3.0</text>
    <line x1="100" y1="348" x2="105" y2="348" stroke="black" stroke-width="2"/>
    <text x="80" y="348" text-anchor="middle" fill="black">-3.5</text>
    <line x1="100" y1="387" x2="105" y2="387" stroke="black" stroke-width="2"/>
    <text x="80" y="387" text-anchor="middle" fill="black">-4.0</text>
    <line x1="100" y1="427" x2="105" y2="427" stroke="black" stroke-width="2"/>
    <text x="80" y="427" text-anchor="middle" fill="black">-4.5</text>
    <line x1="100" y1="467" x2="105" y2="467" stroke="black" stroke-width="2"/>
    <text x="80" y="467" text-anchor="middle" fill="black">-5.0</text>
    <line x1="130" y1="70" x2="170" y2="70" stroke="black" stroke-width="3" />
    <text x="150" y="65" text-anchor="middle" fill="black">S+N</text>
    <text x="150" y="85" text-anchor="middle" fill="black"> 0.0 </text>
    <line x1="290" y1="113" x2="330" y2="113" stroke="black" stroke-width="3" />
    <text x="310" y="108" text-anchor="middle" fill="black">SN2*</text>
    <text x="310" y="128" text-anchor="middle" fill="black"> -0.6 </text>
    <line x1="170" y1="70" x2="290" y2="113" stroke="black" stroke-width="2" stroke-dasharray="6,6"/>
    <line x1="370" y1="118" x2="410" y2="118" stroke="black" stroke-width="3" />
    <text x="390" y="113" text-anchor="middle" fill="black">SNNH*</text>
    <text x="390" y="133" text-anchor="middle" fill="black"> -0.6 </text>
    <line x1="330" y1="113" x2="370" y2="118" stroke="black" stroke-width="2" stroke-dasharray="6,6"/>
    <line x1="130" y1="70" x2="170" y2="70" stroke="blue" stroke-width="3" />
    <text x="150" y="65" text-anchor="middle" fill="blue">S+N</text>
    <text x="150" y="85" text-anchor="middle" fill="blue"> 0.0 </text>
    <line x1="210" y1="50" x2="250" y2="50" stroke="blue" stroke-width="3" />
    <text x="230" y="45" text-anchor="middle" fill="blue">SN2</text>
    <text x="230" y="65" text-anchor="middle" fill="blue"> 0.2 </text>
    <line x1="170" y1="70" x2="210" y2="50" stroke="blue" stroke-width="2" stroke-dasharray="6,6"/>
    <line x1="290" y1="137" x2="330" y2="137" stroke="blue" stroke-width="3" />
    <text x="310" y="132" text-anchor="middle" fill="blue">SN2*</text>
    <text x="310" y="152" text-anchor="middle" fill="blue"> -0.8 </text>
    <line x1="250" y1="50" x2="290" y2="137" stroke="blue" stroke-width="2" stroke-dasharray="6,6"/>
    <line x1="370" y1="450" x2="410" y2="450" stroke="blue" stroke-width="3" />
    <text x="390" y="445" text-anchor="middle" fill="blue">SNNH</text>
    <text x="390" y="465" text-anchor="middle" fill="blue"> -4.8 </text>
    <line x1="330" y1="137" x2="370" y2="450" stroke="blue" stroke-width="2" stroke-dasharray="6,6"/>
</svg>
