<?xml version="1.0" encoding="utf-8" standalone="no"?>
<!DOCTYPE svg PUBLIC "-//W3C//DTD SVG 1.1//EN"
  "http://www.w3.org/Graphics/SVG/1.1/DTD/svg11.dtd">
<svg height="238.166085pt" version="1.1" viewBox="0 0 271.06948 238.166085" width="271.06948pt" xmlns="http://www.w3.org/2000/svg" xmlns:xlink="http://www.w3.org/1999/xlink">
 <metadata>
  <rdf:RDF xmlns:cc="http://creativecommons.org/ns#" xmlns:dc="http://purl.org/dc/elements/1.1/" xmlns:rdf="http://www.w3.org/1999/02/22-rdf-syntax-ns#">
   <cc:Work>
    <dc:type rdf:resource="http://purl.org/dc/dcmitype/StillImage"/>
    <dc:date>2021-09-15T09:08:43.823104</dc:date>
    <dc:format>image/svg+xml</dc:format>
    <dc:creator>
     <cc:Agent>
      <dc:title>Matplotlib v3.4.3, https://matplotlib.org/</dc:title>
     </cc:Agent>
    </dc:creator>
   </cc:Work>
  </rdf:RDF>
 </metadata>
 <defs>
  <style type="text/css">*{stroke-linecap:butt;stroke-linejoin:round;}</style>
 </defs>
 <g id="figure_1">
  <g id="patch_1">
   <path d="M 0 238.166085 
L 271.06948 238.166085 
L 271.06948 0 
L 0 0 
z
" style="fill:none;"/>
  </g>
  <g id="patch_2">
   <path d="M 44.768967 224.64 
L 262.208967 224.64 
L 262.208967 7.2 
L 44.768967 7.2 
z
" style="fill:#ffffff;"/>
  </g>
  <g id="pane3d_1">
   <g id="patch_3">
    <path d="M 156.427345 109.302994 
L 253.207422 157.43071 
L 257.626604 66.502894 
L 156.427345 22.639692 
" style="fill:#f2f2f2;opacity:0.5;stroke:#f2f2f2;stroke-linejoin:miter;"/>
   </g>
  </g>
  <g id="pane3d_2">
   <g id="patch_4">
    <path d="M 156.427345 109.302994 
L 59.647268 157.43071 
L 55.228086 66.502894 
L 156.427345 22.639692 
" style="fill:#e6e6e6;opacity:0.5;stroke:#e6e6e6;stroke-linejoin:miter;"/>
   </g>
  </g>
  <g id="pane3d_3">
   <g id="patch_5">
    <path d="M 156.427345 109.302994 
L 59.647268 157.43071 
L 156.427345 212.949428 
L 253.207422 157.43071 
" style="fill:#ececec;opacity:0.5;stroke:#ececec;stroke-linejoin:miter;"/>
   </g>
  </g>
  <g id="axis3d_1">
   <g id="line2d_1">
    <path d="M 253.207422 157.43071 
L 156.427345 212.949428 
" style="fill:none;stroke:#000000;stroke-linecap:square;stroke-width:0.8;"/>
   </g>
   <g id="text_1">
    <!-- $r_{LB-C}$ ($\AA$) -->
    <g transform="translate(213.933058 229.083537)rotate(-29.841106)scale(0.1 -0.1)">
     <defs>
      <path d="M 1126 1427 
L 1229 1651 
Q 1446 2131 1830 2534 
Q 2106 2822 2336 2822 
Q 2470 2822 2553 2732 
Q 2637 2643 2637 2496 
Q 2637 2349 2557 2249 
Q 2477 2150 2336 2150 
Q 2214 2150 2112 2317 
Q 2061 2406 2010 2406 
Q 1837 2406 1485 1805 
Q 1267 1434 1136 1104 
Q 1005 774 774 0 
L 288 0 
L 806 1869 
Q 909 2246 909 2394 
Q 909 2560 666 2560 
Q 614 2560 467 2541 
L 467 2650 
L 1459 2822 
L 1478 2810 
L 1126 1427 
z
" id="STIXGeneral-Italic-72" transform="scale(0.015625)"/>
      <path d="M 3578 1152 
L 3206 0 
L -51 0 
L -51 102 
Q 218 128 301 211 
Q 384 294 474 602 
L 1254 3405 
Q 1325 3642 1325 3802 
Q 1325 3942 1225 4000 
Q 1126 4058 832 4077 
L 832 4179 
L 2579 4179 
L 2579 4077 
Q 2285 4058 2147 3955 
Q 2010 3853 1933 3584 
L 1165 838 
Q 1101 595 1101 493 
Q 1101 346 1241 288 
Q 1382 230 1773 230 
Q 2266 230 2480 275 
Q 2694 320 2925 474 
Q 3187 646 3450 1190 
L 3578 1152 
z
" id="STIXGeneral-Italic-4c" transform="scale(0.015625)"/>
      <path d="M 832 4179 
L 2432 4179 
Q 3763 4179 3763 3219 
Q 3763 2771 3354 2496 
Q 3136 2349 2643 2246 
L 2643 2240 
Q 3450 1997 3450 1280 
Q 3450 653 2973 326 
Q 2496 0 1690 0 
L -51 0 
L -51 102 
Q 211 141 304 230 
Q 397 320 480 614 
L 1254 3405 
Q 1325 3654 1325 3814 
Q 1325 3955 1229 4003 
Q 1133 4051 832 4077 
L 832 4179 
z
M 1587 2323 
L 1830 2323 
Q 2458 2323 2787 2572 
Q 3117 2822 3117 3296 
Q 3117 3654 2937 3820 
Q 2758 3987 2368 3987 
Q 2221 3987 2166 3977 
Q 2112 3968 2067 3920 
Q 2022 3872 1990 3757 
L 1587 2323 
z
M 1523 2118 
L 1318 1357 
Q 1094 506 1094 461 
Q 1094 192 1523 192 
Q 2086 192 2422 473 
Q 2758 755 2758 1280 
Q 2758 1568 2636 1773 
Q 2515 1978 2330 2042 
Q 2112 2118 1523 2118 
z
" id="STIXGeneral-Italic-42" transform="scale(0.015625)"/>
      <path d="M 3974 1408 
L 410 1408 
L 410 1830 
L 3974 1830 
L 3974 1408 
z
" id="STIXGeneral-Regular-2212" transform="scale(0.015625)"/>
      <path d="M 4410 4250 
L 4173 2970 
L 4058 2989 
Q 3942 4032 3104 4032 
Q 2406 4032 1830 3411 
Q 1491 3053 1315 2541 
Q 1139 2029 1139 1485 
Q 1139 173 2259 173 
Q 2656 173 2985 339 
Q 3315 506 3725 934 
L 3840 838 
Q 3411 333 2998 109 
Q 2586 -115 2093 -115 
Q 1344 -115 883 329 
Q 422 774 422 1555 
Q 422 2214 748 2812 
Q 1075 3411 1619 3795 
Q 2272 4262 3021 4262 
Q 3462 4262 3770 4154 
Q 3898 4109 4032 4109 
Q 4205 4109 4275 4250 
L 4410 4250 
z
" id="STIXGeneral-Italic-43" transform="scale(0.015625)"/>
      <path id="STIXGeneral-Regular-20" transform="scale(0.015625)"/>
      <path d="M 1946 -1030 
L 1869 -1133 
Q 1126 -710 716 32 
Q 307 774 307 1613 
Q 307 3386 1888 4326 
L 1946 4224 
Q 1293 3667 1075 3126 
Q 858 2586 858 1632 
Q 858 685 1082 96 
Q 1306 -493 1946 -1030 
z
" id="STIXGeneral-Regular-28" transform="scale(0.015625)"/>
      <path d="M 3610 0 
L 2042 0 
L 2042 102 
Q 2330 115 2432 192 
Q 2534 269 2534 442 
Q 2534 493 2522 608 
L 2394 1446 
L 986 1446 
L 608 736 
Q 467 474 467 314 
Q 467 122 864 102 
L 864 0 
L -326 0 
L -326 102 
Q -109 147 28 307 
Q 166 467 531 1101 
L 2355 4275 
L 2522 4275 
L 3110 736 
Q 3174 339 3264 230 
Q 3354 122 3610 102 
L 3610 0 
z
M 2362 1677 
L 2074 3360 
L 1120 1677 
L 2362 1677 
z
M 3043 5936 
Q 3232 5747 3232 5484 
Q 3232 5222 3043 5036 
Q 2854 4851 2592 4851 
Q 2317 4851 2134 5036 
Q 1952 5222 1952 5491 
Q 1952 5747 2141 5936 
Q 2330 6125 2586 6125 
Q 2854 6125 3043 5936 
z
M 2892 5187 
Q 3014 5306 3014 5485 
Q 3014 5664 2889 5785 
Q 2765 5907 2586 5907 
Q 2419 5907 2294 5782 
Q 2170 5658 2170 5491 
Q 2170 5312 2288 5190 
Q 2406 5069 2586 5069 
Q 2771 5069 2892 5187 
z
" id="STIXGeneral-Italic-c5" transform="scale(0.015625)"/>
      <path d="M 186 4224 
L 262 4326 
Q 992 3891 1408 3148 
Q 1824 2406 1824 1581 
Q 1824 -166 243 -1133 
L 186 -1030 
Q 845 -486 1059 54 
Q 1274 595 1274 1562 
Q 1274 2534 1059 3120 
Q 845 3706 186 4224 
z
" id="STIXGeneral-Regular-29" transform="scale(0.015625)"/>
     </defs>
     <use transform="translate(0 0.296875)" xlink:href="#STIXGeneral-Italic-72"/>
     <use transform="translate(38.899994 -12.93125)scale(0.7)" xlink:href="#STIXGeneral-Italic-4c"/>
     <use transform="translate(77.819987 -12.93125)scale(0.7)" xlink:href="#STIXGeneral-Italic-42"/>
     <use transform="translate(130.697979 -12.93125)scale(0.7)" xlink:href="#STIXGeneral-Regular-2212"/>
     <use transform="translate(188.755965 -12.93125)scale(0.7)" xlink:href="#STIXGeneral-Italic-43"/>
     <use transform="translate(239.855338 0.296875)" xlink:href="#STIXGeneral-Regular-20"/>
     <use transform="translate(264.855323 0.296875)" xlink:href="#STIXGeneral-Regular-28"/>
     <use transform="translate(298.155311 0.296875)" xlink:href="#STIXGeneral-Italic-c5"/>
     <use transform="translate(359.255302 0.296875)" xlink:href="#STIXGeneral-Regular-29"/>
    </g>
   </g>
   <g id="Line3DCollection_1">
    <path d="M 247.461795 160.726739 
L 150.654103 112.173966 
L 150.407689 25.248815 
" style="fill:none;stroke:#b0b0b0;stroke-width:0.8;"/>
    <path d="M 224.434365 173.93662 
L 127.551106 123.662845 
L 126.296811 35.699291 
" style="fill:none;stroke:#b0b0b0;stroke-width:0.8;"/>
    <path d="M 200.553818 187.6359 
L 103.651379 135.547928 
L 101.317677 46.526097 
" style="fill:none;stroke:#b0b0b0;stroke-width:0.8;"/>
    <path d="M 175.77185 201.852288 
L 78.912986 147.850071 
L 75.422529 57.749935 
" style="fill:none;stroke:#b0b0b0;stroke-width:0.8;"/>
   </g>
   <g id="xtick_1">
    <g id="line2d_2">
     <path d="M 246.63233 160.31073 
L 249.123579 161.560187 
" style="fill:none;stroke:#000000;stroke-linecap:square;stroke-width:0.8;"/>
    </g>
    <g id="text_2">
     <!-- 1.4 -->
     <g transform="translate(251.36948 181.73555)scale(0.1 -0.1)">
      <defs>
       <path d="M 2522 0 
L 755 0 
L 755 96 
Q 1107 115 1235 227 
Q 1363 339 1363 608 
L 1363 3482 
Q 1363 3795 1171 3795 
Q 1082 3795 883 3718 
L 710 3654 
L 710 3744 
L 1856 4326 
L 1914 4307 
L 1914 486 
Q 1914 275 2042 185 
Q 2170 96 2522 96 
L 2522 0 
z
" id="STIXGeneral-Regular-31" transform="scale(0.015625)"/>
       <path d="M 1158 275 
Q 1158 134 1052 32 
Q 947 -70 800 -70 
Q 653 -70 550 32 
Q 448 134 448 281 
Q 448 429 553 534 
Q 659 640 806 640 
Q 947 640 1052 531 
Q 1158 422 1158 275 
z
" id="STIXGeneral-Regular-2e" transform="scale(0.015625)"/>
       <path d="M 3027 1069 
L 2368 1069 
L 2368 0 
L 1869 0 
L 1869 1069 
L 77 1069 
L 77 1478 
L 2086 4326 
L 2368 4326 
L 2368 1478 
L 3027 1478 
L 3027 1069 
z
M 1869 1478 
L 1869 3674 
L 333 1478 
L 1869 1478 
z
" id="STIXGeneral-Regular-34" transform="scale(0.015625)"/>
      </defs>
      <use xlink:href="#STIXGeneral-Regular-31"/>
      <use x="49.999985" xlink:href="#STIXGeneral-Regular-2e"/>
      <use x="74.999969" xlink:href="#STIXGeneral-Regular-34"/>
     </g>
    </g>
   </g>
   <g id="xtick_2">
    <g id="line2d_3">
     <path d="M 223.603253 173.505347 
L 226.099504 174.800678 
" style="fill:none;stroke:#000000;stroke-linecap:square;stroke-width:0.8;"/>
    </g>
    <g id="text_3">
     <!-- 1.6 -->
     <g transform="translate(228.46102 195.242084)scale(0.1 -0.1)">
      <defs>
       <path d="M 2854 4378 
L 2867 4275 
Q 2112 4154 1606 3664 
Q 1101 3174 973 2451 
Q 1344 2739 1786 2739 
Q 2349 2739 2672 2380 
Q 2995 2022 2995 1402 
Q 2995 774 2669 378 
Q 2291 -90 1651 -90 
Q 870 -90 518 557 
Q 218 1107 218 1786 
Q 218 2835 915 3552 
Q 1312 3962 1731 4131 
Q 2150 4301 2854 4378 
z
M 2419 1203 
Q 2419 2445 1555 2445 
Q 1235 2445 1024 2275 
Q 813 2106 813 1702 
Q 813 954 1046 522 
Q 1280 90 1722 90 
Q 2061 90 2240 394 
Q 2419 698 2419 1203 
z
" id="STIXGeneral-Regular-36" transform="scale(0.015625)"/>
      </defs>
      <use xlink:href="#STIXGeneral-Regular-31"/>
      <use x="49.999985" xlink:href="#STIXGeneral-Regular-2e"/>
      <use x="74.999969" xlink:href="#STIXGeneral-Regular-36"/>
     </g>
    </g>
   </g>
   <g id="xtick_3">
    <g id="line2d_4">
     <path d="M 199.721503 187.188505 
L 202.22142 188.532285 
" style="fill:none;stroke:#000000;stroke-linecap:square;stroke-width:0.8;"/>
    </g>
    <g id="text_4">
     <!-- 1.8 -->
     <g transform="translate(204.701361 209.250475)scale(0.1 -0.1)">
      <defs>
       <path d="M 2848 992 
Q 2848 499 2505 204 
Q 2163 -90 1587 -90 
Q 1050 -90 704 204 
Q 358 499 358 954 
Q 358 1293 524 1533 
Q 691 1773 1190 2125 
Q 710 2522 553 2765 
Q 397 3008 397 3328 
Q 397 3782 745 4054 
Q 1094 4326 1638 4326 
Q 2106 4326 2410 4060 
Q 2714 3795 2714 3411 
Q 2714 3059 2531 2848 
Q 2349 2637 1856 2374 
Q 2432 1990 2640 1689 
Q 2848 1389 2848 992 
z
M 2272 3411 
Q 2272 3744 2086 3945 
Q 1901 4147 1574 4147 
Q 1248 4147 1059 3977 
Q 870 3808 870 3513 
Q 870 3219 1059 2979 
Q 1248 2739 1670 2490 
Q 1997 2682 2134 2896 
Q 2272 3110 2272 3411 
z
M 1734 1741 
L 1357 1997 
Q 1075 1766 960 1545 
Q 845 1325 845 1011 
Q 845 576 1065 333 
Q 1286 90 1658 90 
Q 1971 90 2166 285 
Q 2362 480 2362 794 
Q 2362 1082 2214 1299 
Q 2067 1517 1734 1741 
z
" id="STIXGeneral-Regular-38" transform="scale(0.015625)"/>
      </defs>
      <use xlink:href="#STIXGeneral-Regular-31"/>
      <use x="49.999985" xlink:href="#STIXGeneral-Regular-2e"/>
      <use x="74.999969" xlink:href="#STIXGeneral-Regular-38"/>
     </g>
    </g>
   </g>
   <g id="xtick_4">
    <g id="line2d_5">
     <path d="M 174.938832 201.387851 
L 177.440914 202.78285 
" style="fill:none;stroke:#000000;stroke-linecap:square;stroke-width:0.8;"/>
    </g>
    <g id="text_5">
     <!-- 2.0 -->
     <g transform="translate(180.042163 223.789222)scale(0.1 -0.1)">
      <defs>
       <path d="M 3034 877 
L 2688 0 
L 186 0 
L 186 77 
L 1325 1286 
Q 1773 1754 1965 2144 
Q 2157 2534 2157 2950 
Q 2157 3379 1920 3616 
Q 1683 3853 1267 3853 
Q 922 3853 720 3673 
Q 518 3494 326 3021 
L 192 3053 
Q 301 3648 630 3987 
Q 960 4326 1523 4326 
Q 2054 4326 2380 4006 
Q 2707 3686 2707 3200 
Q 2707 2477 1888 1613 
L 832 486 
L 2330 486 
Q 2541 486 2665 569 
Q 2790 653 2944 915 
L 3034 877 
z
" id="STIXGeneral-Regular-32" transform="scale(0.015625)"/>
       <path d="M 3046 2112 
Q 3046 1683 2963 1302 
Q 2880 922 2717 602 
Q 2554 282 2266 96 
Q 1978 -90 1600 -90 
Q 1210 -90 915 108 
Q 621 307 461 640 
Q 301 973 227 1350 
Q 154 1728 154 2150 
Q 154 2746 301 3222 
Q 448 3699 790 4012 
Q 1133 4326 1626 4326 
Q 2253 4326 2649 3712 
Q 3046 3098 3046 2112 
z
M 2432 2080 
Q 2432 3091 2217 3625 
Q 2003 4160 1587 4160 
Q 1190 4160 979 3622 
Q 768 3085 768 2106 
Q 768 1120 979 598 
Q 1190 77 1600 77 
Q 2003 77 2217 598 
Q 2432 1120 2432 2080 
z
" id="STIXGeneral-Regular-30" transform="scale(0.015625)"/>
      </defs>
      <use xlink:href="#STIXGeneral-Regular-32"/>
      <use x="49.999985" xlink:href="#STIXGeneral-Regular-2e"/>
      <use x="74.999969" xlink:href="#STIXGeneral-Regular-30"/>
     </g>
    </g>
   </g>
  </g>
  <g id="axis3d_2">
   <g id="line2d_6">
    <path d="M 59.647268 157.43071 
L 156.427345 212.949428 
" style="fill:none;stroke:#000000;stroke-linecap:square;stroke-width:0.8;"/>
   </g>
   <g id="text_6">
    <!-- $r_{N-C}$ ($\AA$) -->
    <g transform="translate(66.350436 210.398793)rotate(-330.158894)scale(0.1 -0.1)">
     <defs>
      <path d="M 4653 4179 
L 4653 4077 
Q 4480 4038 4413 4016 
Q 4346 3994 4266 3882 
Q 4186 3770 4144 3635 
Q 4102 3501 4000 3149 
L 3066 -96 
L 2950 -96 
L 1478 3424 
L 749 723 
Q 691 525 691 378 
Q 691 243 790 182 
Q 890 122 1139 102 
L 1139 0 
L -128 0 
L -128 102 
Q 147 141 262 304 
Q 378 467 550 1075 
L 1299 3731 
Q 1152 4077 749 4077 
L 749 4179 
L 1773 4179 
L 3098 986 
L 3776 3469 
Q 3827 3648 3827 3750 
Q 3827 3923 3740 3987 
Q 3654 4051 3386 4077 
L 3386 4179 
L 4653 4179 
z
" id="STIXGeneral-Italic-4e" transform="scale(0.015625)"/>
     </defs>
     <use transform="translate(0 0.296875)" xlink:href="#STIXGeneral-Italic-72"/>
     <use transform="translate(38.899994 -12.93125)scale(0.7)" xlink:href="#STIXGeneral-Italic-4e"/>
     <use transform="translate(95.697989 -12.93125)scale(0.7)" xlink:href="#STIXGeneral-Regular-2212"/>
     <use transform="translate(153.755976 -12.93125)scale(0.7)" xlink:href="#STIXGeneral-Italic-43"/>
     <use transform="translate(204.855349 0.296875)" xlink:href="#STIXGeneral-Regular-20"/>
     <use transform="translate(229.855334 0.296875)" xlink:href="#STIXGeneral-Regular-28"/>
     <use transform="translate(263.155321 0.296875)" xlink:href="#STIXGeneral-Italic-c5"/>
     <use transform="translate(324.255312 0.296875)" xlink:href="#STIXGeneral-Regular-29"/>
    </g>
   </g>
   <g id="Line3DCollection_2">
    <path d="M 162.447001 25.248815 
L 162.200587 112.173966 
L 65.392895 160.726739 
" style="fill:none;stroke:#b0b0b0;stroke-width:0.8;"/>
    <path d="M 186.55788 35.699291 
L 185.303585 123.662845 
L 88.420325 173.93662 
" style="fill:none;stroke:#b0b0b0;stroke-width:0.8;"/>
    <path d="M 211.537013 46.526097 
L 209.203311 135.547928 
L 112.300872 187.6359 
" style="fill:none;stroke:#b0b0b0;stroke-width:0.8;"/>
    <path d="M 237.432161 57.749935 
L 233.941704 147.850071 
L 137.08284 201.852288 
" style="fill:none;stroke:#b0b0b0;stroke-width:0.8;"/>
   </g>
   <g id="xtick_5">
    <g id="line2d_7">
     <path d="M 66.22236 160.31073 
L 63.731111 161.560187 
" style="fill:none;stroke:#000000;stroke-linecap:square;stroke-width:0.8;"/>
    </g>
    <g id="text_7">
     <!-- 1.4 -->
     <g transform="translate(48.98521 181.73555)scale(0.1 -0.1)">
      <use xlink:href="#STIXGeneral-Regular-31"/>
      <use x="49.999985" xlink:href="#STIXGeneral-Regular-2e"/>
      <use x="74.999969" xlink:href="#STIXGeneral-Regular-34"/>
     </g>
    </g>
   </g>
   <g id="xtick_6">
    <g id="line2d_8">
     <path d="M 89.251437 173.505347 
L 86.755186 174.800678 
" style="fill:none;stroke:#000000;stroke-linecap:square;stroke-width:0.8;"/>
    </g>
    <g id="text_8">
     <!-- 1.6 -->
     <g transform="translate(71.89367 195.242084)scale(0.1 -0.1)">
      <use xlink:href="#STIXGeneral-Regular-31"/>
      <use x="49.999985" xlink:href="#STIXGeneral-Regular-2e"/>
      <use x="74.999969" xlink:href="#STIXGeneral-Regular-36"/>
     </g>
    </g>
   </g>
   <g id="xtick_7">
    <g id="line2d_9">
     <path d="M 113.133187 187.188505 
L 110.63327 188.532285 
" style="fill:none;stroke:#000000;stroke-linecap:square;stroke-width:0.8;"/>
    </g>
    <g id="text_9">
     <!-- 1.8 -->
     <g transform="translate(95.653329 209.250475)scale(0.1 -0.1)">
      <use xlink:href="#STIXGeneral-Regular-31"/>
      <use x="49.999985" xlink:href="#STIXGeneral-Regular-2e"/>
      <use x="74.999969" xlink:href="#STIXGeneral-Regular-38"/>
     </g>
    </g>
   </g>
   <g id="xtick_8">
    <g id="line2d_10">
     <path d="M 137.915858 201.387851 
L 135.413776 202.78285 
" style="fill:none;stroke:#000000;stroke-linecap:square;stroke-width:0.8;"/>
    </g>
    <g id="text_10">
     <!-- 2.0 -->
     <g transform="translate(120.312527 223.789222)scale(0.1 -0.1)">
      <use xlink:href="#STIXGeneral-Regular-32"/>
      <use x="49.999985" xlink:href="#STIXGeneral-Regular-2e"/>
      <use x="74.999969" xlink:href="#STIXGeneral-Regular-30"/>
     </g>
    </g>
   </g>
  </g>
  <g id="axis3d_3">
   <g id="line2d_11">
    <path d="M 59.647268 157.43071 
L 55.228086 66.502894 
" style="fill:none;stroke:#000000;stroke-linecap:square;stroke-width:0.8;"/>
   </g>
   <g id="text_11">
    <!-- $\Delta E$ ($KJ\cdot mol^{-1}$) -->
    <g transform="translate(9.367754 81.009315)rotate(-272.782442)scale(0.1 -0.1)">
     <defs>
      <path d="M 4320 0 
L 307 0 
L 2221 4314 
L 2349 4314 
L 4320 0 
z
M 3354 589 
L 2118 3405 
L 870 589 
L 3354 589 
z
" id="STIXGeneral-Regular-394" transform="scale(0.015625)"/>
      <path d="M 4058 4179 
L 3859 3194 
L 3718 3206 
Q 3738 3366 3738 3501 
Q 3738 3789 3501 3878 
Q 3264 3968 2509 3968 
Q 2240 3968 2157 3939 
Q 2074 3910 2042 3802 
L 1619 2310 
L 2118 2310 
Q 2541 2310 2681 2412 
Q 2822 2515 3008 2931 
L 3123 2906 
L 2688 1421 
L 2560 1453 
Q 2605 1651 2605 1786 
Q 2605 1939 2560 1984 
Q 2451 2080 2061 2080 
L 1562 2080 
L 1357 1363 
Q 1126 550 1126 429 
Q 1126 211 1632 211 
Q 2458 211 2931 461 
Q 3174 589 3533 1088 
L 3635 1037 
L 3238 0 
L -6 0 
L -6 102 
Q 269 154 352 227 
Q 435 301 512 576 
L 1299 3405 
Q 1370 3642 1370 3814 
Q 1370 3942 1270 3996 
Q 1171 4051 877 4077 
L 877 4179 
L 4058 4179 
z
" id="STIXGeneral-Italic-45" transform="scale(0.015625)"/>
      <path d="M 4621 4179 
L 4621 4077 
Q 4442 4077 4128 3840 
L 2221 2400 
L 3296 525 
Q 3443 269 3552 201 
Q 3661 134 3962 102 
L 3962 0 
L 2202 0 
L 2202 102 
L 2387 122 
Q 2682 147 2682 326 
Q 2682 365 2672 409 
Q 2662 454 2630 515 
Q 2598 576 2579 611 
Q 2560 646 2509 736 
Q 2458 826 2445 851 
L 1658 2227 
L 1242 710 
Q 1171 467 1171 384 
Q 1171 237 1264 182 
Q 1357 128 1626 102 
L 1626 0 
L 45 0 
L 45 102 
Q 320 134 403 211 
Q 486 288 563 557 
L 1357 3405 
Q 1446 3725 1446 3802 
Q 1446 3936 1337 4000 
Q 1229 4064 941 4077 
L 941 4179 
L 2669 4179 
L 2669 4077 
Q 2400 4058 2253 3958 
Q 2106 3859 2035 3603 
L 1696 2362 
L 2675 3059 
Q 3590 3706 3590 3936 
Q 3590 4032 3360 4058 
L 3206 4077 
L 3206 4179 
L 4621 4179 
z
" id="STIXGeneral-Italic-4b" transform="scale(0.015625)"/>
      <path d="M 3142 4179 
L 3142 4077 
Q 2867 4038 2784 3964 
Q 2701 3891 2618 3603 
L 1958 1254 
Q 1773 589 1504 237 
Q 1235 -115 710 -115 
Q 371 -115 166 38 
Q -38 192 -38 448 
Q -38 602 42 704 
Q 122 806 250 806 
Q 378 806 477 720 
Q 576 634 576 512 
Q 576 474 566 419 
Q 557 365 557 339 
Q 557 90 781 90 
Q 1005 90 1120 499 
L 1933 3405 
Q 2010 3686 2010 3814 
Q 2010 3942 1914 3996 
Q 1818 4051 1517 4077 
L 1517 4179 
L 3142 4179 
z
" id="STIXGeneral-Italic-4a" transform="scale(0.015625)"/>
      <path d="M 1187 1888 
Q 1299 1773 1299 1619 
Q 1299 1466 1187 1350 
Q 1075 1235 921 1235 
Q 768 1235 649 1353 
Q 531 1472 531 1619 
Q 531 1766 649 1884 
Q 768 2003 921 2003 
Q 1075 2003 1187 1888 
z
" id="STIXGeneral-Regular-22c5" transform="scale(0.015625)"/>
      <path d="M 4506 672 
L 4474 627 
Q 3981 -58 3552 -58 
Q 3296 -58 3296 237 
Q 3296 333 3379 659 
L 3750 2112 
Q 3795 2291 3795 2355 
Q 3795 2413 3756 2451 
Q 3718 2490 3667 2490 
Q 3366 2490 2829 1741 
Q 2592 1408 2457 1072 
Q 2323 736 2138 0 
L 1658 0 
L 1830 595 
Q 2266 2099 2266 2330 
Q 2266 2490 2125 2490 
Q 1965 2490 1702 2237 
Q 1440 1984 1171 1574 
Q 1011 1325 899 1043 
Q 787 762 557 0 
L 77 0 
L 352 922 
Q 704 2093 704 2381 
Q 704 2522 442 2522 
L 282 2522 
L 282 2624 
L 1318 2822 
L 1338 2810 
L 966 1472 
Q 1798 2822 2374 2822 
Q 2560 2822 2659 2720 
Q 2758 2618 2758 2438 
Q 2758 2195 2502 1466 
Q 2842 2003 3069 2275 
Q 3296 2547 3526 2694 
Q 3731 2822 3930 2822 
Q 4102 2822 4201 2710 
Q 4301 2598 4301 2419 
Q 4301 2336 4282 2240 
L 3846 634 
Q 3782 390 3782 346 
Q 3782 243 3859 243 
Q 4000 243 4275 582 
L 4410 749 
L 4506 672 
z
" id="STIXGeneral-Italic-6d" transform="scale(0.015625)"/>
      <path d="M 2995 1926 
Q 2995 1562 2812 1168 
Q 2630 774 2317 461 
Q 1786 -70 1114 -70 
Q 666 -70 419 163 
Q 173 397 173 819 
Q 173 1350 496 1856 
Q 819 2362 1325 2630 
Q 1683 2822 2093 2822 
Q 2490 2822 2742 2582 
Q 2995 2342 2995 1926 
z
M 2458 2086 
Q 2458 2374 2336 2531 
Q 2214 2688 2003 2688 
Q 1574 2688 1184 2106 
Q 710 1382 710 646 
Q 710 365 844 214 
Q 979 64 1210 64 
Q 1600 64 1984 595 
Q 2202 890 2330 1302 
Q 2458 1715 2458 2086 
z
" id="STIXGeneral-Italic-6f" transform="scale(0.015625)"/>
      <path d="M 1786 4339 
L 806 595 
Q 755 410 755 320 
Q 755 205 864 205 
Q 1037 205 1293 570 
L 1453 794 
L 1542 730 
Q 1254 275 1046 102 
Q 838 -70 576 -70 
Q 262 -70 262 288 
Q 262 397 288 480 
L 1165 3834 
Q 1184 3898 1184 3955 
Q 1184 4096 870 4096 
L 755 4096 
L 755 4198 
Q 1203 4250 1747 4371 
L 1786 4339 
z
" id="STIXGeneral-Italic-6c" transform="scale(0.015625)"/>
     </defs>
     <use transform="translate(0 0.409375)" xlink:href="#STIXGeneral-Regular-394"/>
     <use transform="translate(72.199982 0.409375)" xlink:href="#STIXGeneral-Italic-45"/>
     <use transform="translate(133.299973 0.409375)" xlink:href="#STIXGeneral-Regular-20"/>
     <use transform="translate(158.299957 0.409375)" xlink:href="#STIXGeneral-Regular-28"/>
     <use transform="translate(191.599945 0.409375)" xlink:href="#STIXGeneral-Italic-4b"/>
     <use transform="translate(258.299942 0.409375)" xlink:href="#STIXGeneral-Italic-4a"/>
     <use transform="translate(317.139932 0.409375)" xlink:href="#STIXGeneral-Regular-22c5"/>
     <use transform="translate(360.179919 0.409375)" xlink:href="#STIXGeneral-Italic-6d"/>
     <use transform="translate(432.379901 0.409375)" xlink:href="#STIXGeneral-Italic-6f"/>
     <use transform="translate(482.379886 0.409375)" xlink:href="#STIXGeneral-Italic-6c"/>
     <use transform="translate(521.435655 35.684375)scale(0.7)" xlink:href="#STIXGeneral-Regular-2212"/>
     <use transform="translate(569.385644 35.684375)scale(0.7)" xlink:href="#STIXGeneral-Regular-31"/>
     <use transform="translate(608.795009 0.409375)" xlink:href="#STIXGeneral-Regular-29"/>
    </g>
   </g>
   <g id="Line3DCollection_3">
    <path d="M 59.56267 155.690047 
L 156.427345 107.639022 
L 253.29202 155.690047 
" style="fill:none;stroke:#b0b0b0;stroke-width:0.8;"/>
    <path d="M 58.835059 140.718924 
L 156.427345 93.335498 
L 254.019632 140.718924 
" style="fill:none;stroke:#b0b0b0;stroke-width:0.8;"/>
    <path d="M 58.096433 125.521184 
L 156.427345 78.830089 
L 254.758257 125.521184 
" style="fill:none;stroke:#b0b0b0;stroke-width:0.8;"/>
    <path d="M 57.346542 110.091642 
L 156.427345 64.118492 
L 255.508148 110.091642 
" style="fill:none;stroke:#b0b0b0;stroke-width:0.8;"/>
    <path d="M 56.585126 94.424953 
L 156.427345 49.196277 
L 256.269564 94.424953 
" style="fill:none;stroke:#b0b0b0;stroke-width:0.8;"/>
    <path d="M 55.811916 78.51561 
L 156.427345 34.058889 
L 257.042774 78.51561 
" style="fill:none;stroke:#b0b0b0;stroke-width:0.8;"/>
   </g>
   <g id="xtick_9">
    <g id="line2d_12">
     <path d="M 60.392421 155.278438 
L 57.900322 156.514677 
" style="fill:none;stroke:#000000;stroke-linecap:square;stroke-width:0.8;"/>
    </g>
    <g id="text_12">
     <!-- 0 -->
     <g transform="translate(37.390374 162.519734)scale(0.1 -0.1)">
      <use xlink:href="#STIXGeneral-Regular-30"/>
     </g>
    </g>
   </g>
   <g id="xtick_10">
    <g id="line2d_13">
     <path d="M 59.671457 140.312832 
L 57.159371 141.532511 
" style="fill:none;stroke:#000000;stroke-linecap:square;stroke-width:0.8;"/>
    </g>
    <g id="text_13">
     <!-- 20 -->
     <g transform="translate(34.014992 147.548611)scale(0.1 -0.1)">
      <use xlink:href="#STIXGeneral-Regular-32"/>
      <use x="49.999985" xlink:href="#STIXGeneral-Regular-30"/>
     </g>
    </g>
   </g>
   <g id="xtick_11">
    <g id="line2d_14">
     <path d="M 58.939586 125.120824 
L 56.407192 126.323297 
" style="fill:none;stroke:#000000;stroke-linecap:square;stroke-width:0.8;"/>
    </g>
    <g id="text_14">
     <!-- 40 -->
     <g transform="translate(33.126359 132.350871)scale(0.1 -0.1)">
      <use xlink:href="#STIXGeneral-Regular-34"/>
      <use x="49.999985" xlink:href="#STIXGeneral-Regular-30"/>
     </g>
    </g>
   </g>
   <g id="xtick_12">
    <g id="line2d_15">
     <path d="M 58.196559 109.697237 
L 55.643526 110.881835 
" style="fill:none;stroke:#000000;stroke-linecap:square;stroke-width:0.8;"/>
    </g>
    <g id="text_15">
     <!-- 60 -->
     <g transform="translate(32.224172 116.921329)scale(0.1 -0.1)">
      <use xlink:href="#STIXGeneral-Regular-36"/>
      <use x="49.999985" xlink:href="#STIXGeneral-Regular-30"/>
     </g>
    </g>
   </g>
   <g id="xtick_13">
    <g id="line2d_16">
     <path d="M 57.442119 94.036734 
L 54.868109 95.202764 
" style="fill:none;stroke:#000000;stroke-linecap:square;stroke-width:0.8;"/>
    </g>
    <g id="text_16">
     <!-- 80 -->
     <g transform="translate(31.308119 101.254641)scale(0.1 -0.1)">
      <use xlink:href="#STIXGeneral-Regular-38"/>
      <use x="49.999985" xlink:href="#STIXGeneral-Regular-30"/>
     </g>
    </g>
   </g>
   <g id="xtick_14">
    <g id="line2d_17">
     <path d="M 56.676001 78.133816 
L 54.080668 79.280558 
" style="fill:none;stroke:#000000;stroke-linecap:square;stroke-width:0.8;"/>
    </g>
    <g id="text_17">
     <!-- 100 -->
     <g transform="translate(27.877878 85.345297)scale(0.1 -0.1)">
      <use xlink:href="#STIXGeneral-Regular-31"/>
      <use x="49.999985" xlink:href="#STIXGeneral-Regular-30"/>
      <use x="99.999969" xlink:href="#STIXGeneral-Regular-30"/>
     </g>
    </g>
   </g>
  </g>
  <g id="axes_1">
   <g id="Poly3DCollection_1">
    <path clip-path="url(#pa081b3c58e)" d="M 141.485574 120.871461 
L 134.477841 124.377467 
L 148.340686 124.377467 
z
" style="fill:#000080;"/>
    <path clip-path="url(#pa081b3c58e)" d="M 148.340686 124.377467 
L 134.477841 124.377467 
L 141.332169 127.919469 
z
" style="fill:#000080;"/>
    <path clip-path="url(#pa081b3c58e)" d="M 134.477841 124.377467 
L 127.39816 127.919469 
L 134.251325 131.498025 
z
" style="fill:#000080;"/>
    <path clip-path="url(#pa081b3c58e)" d="M 134.251325 131.498025 
L 141.332169 127.919469 
L 134.477841 124.377467 
z
" style="fill:#000080;"/>
    <path clip-path="url(#pa081b3c58e)" d="M 148.340686 124.377467 
L 149.350335 51.190401 
L 141.485574 120.871461 
z
" style="fill:#00b8ff;"/>
    <path clip-path="url(#pa081b3c58e)" d="M 149.418364 132.098044 
L 148.340686 124.377467 
L 141.332169 127.919469 
z
" style="fill:#000080;"/>
    <path clip-path="url(#pa081b3c58e)" d="M 156.427345 128.513342 
L 148.340686 124.377467 
L 149.418364 132.098044 
z
" style="fill:#000080;"/>
    <path clip-path="url(#pa081b3c58e)" d="M 164.667591 85.929317 
L 148.340686 124.377467 
L 156.427345 128.513342 
z
" style="fill:#0038ff;"/>
    <path clip-path="url(#pa081b3c58e)" d="M 149.418364 132.098044 
L 141.332169 127.919469 
L 134.251325 131.498025 
z
" style="fill:#000080;"/>
    <path clip-path="url(#pa081b3c58e)" d="M 156.427345 128.513342 
L 149.418364 132.098044 
L 163.436326 132.098044 
z
" style="fill:#000080;"/>
    <path clip-path="url(#pa081b3c58e)" d="M 134.251325 131.498025 
L 127.39816 127.919469 
L 125.897424 135.719964 
z
" style="fill:#000080;"/>
    <path clip-path="url(#pa081b3c58e)" d="M 125.897424 135.719964 
L 127.39816 127.919469 
L 119.046111 132.098044 
z
" style="fill:#000080;"/>
    <path clip-path="url(#pa081b3c58e)" d="M 156.427345 128.513342 
L 163.436326 132.098044 
L 164.667591 85.929317 
z
" style="fill:#0038ff;"/>
    <path clip-path="url(#pa081b3c58e)" d="M 156.427345 72.150978 
L 148.340686 124.377467 
L 164.667591 85.929317 
z
" style="fill:#2cffca;"/>
    <path clip-path="url(#pa081b3c58e)" d="M 134.251325 131.498025 
L 142.336612 135.719964 
L 149.418364 132.098044 
z
" style="fill:#000080;"/>
    <path clip-path="url(#pa081b3c58e)" d="M 156.427345 72.150978 
L 149.350335 51.190401 
L 148.340686 124.377467 
z
" style="fill:#94ff63;"/>
    <path clip-path="url(#pa081b3c58e)" d="M 163.436326 132.098044 
L 149.418364 132.098044 
L 156.427345 135.719964 
z
" style="fill:#000080;"/>
    <path clip-path="url(#pa081b3c58e)" d="M 125.897424 135.719964 
L 142.336612 135.719964 
L 134.251325 131.498025 
z
" style="fill:#000080;"/>
    <path clip-path="url(#pa081b3c58e)" d="M 119.046111 132.098044 
L 111.806691 135.719964 
L 125.897424 135.719964 
z
" style="fill:#000080;"/>
    <path clip-path="url(#pa081b3c58e)" d="M 149.418364 132.098044 
L 142.336612 135.719964 
L 149.345214 139.379684 
z
" style="fill:#000080;"/>
    <path clip-path="url(#pa081b3c58e)" d="M 170.518078 135.719964 
L 163.436326 132.098044 
L 163.509476 139.379684 
z
" style="fill:#000080;"/>
    <path clip-path="url(#pa081b3c58e)" d="M 163.509476 139.379684 
L 163.436326 132.098044 
L 156.427345 135.719964 
z
" style="fill:#000080;"/>
    <path clip-path="url(#pa081b3c58e)" d="M 149.345214 139.379684 
L 156.427345 135.719964 
L 149.418364 132.098044 
z
" style="fill:#000080;"/>
    <path clip-path="url(#pa081b3c58e)" d="M 164.667591 85.929317 
L 163.436326 132.098044 
L 171.774432 94.195609 
z
" style="fill:#00d8ff;"/>
    <path clip-path="url(#pa081b3c58e)" d="M 170.518078 135.719964 
L 178.949285 100.031315 
L 163.436326 132.098044 
z
" style="fill:#0014ff;"/>
    <path clip-path="url(#pa081b3c58e)" d="M 125.897424 135.719964 
L 111.806691 135.719964 
L 118.65598 139.379684 
z
" style="fill:#000080;"/>
    <path clip-path="url(#pa081b3c58e)" d="M 133.981075 139.993354 
L 142.336612 135.719964 
L 125.897424 135.719964 
z
" style="fill:#000080;"/>
    <path clip-path="url(#pa081b3c58e)" d="M 164.667591 85.929317 
L 163.505794 50.763887 
L 156.427345 72.150978 
z
" style="fill:#ffb900;"/>
    <path clip-path="url(#pa081b3c58e)" d="M 178.949285 100.031315 
L 171.774432 94.195609 
L 163.436326 132.098044 
z
" style="fill:#00b4ff;"/>
    <path clip-path="url(#pa081b3c58e)" d="M 163.505794 50.763887 
L 149.350335 51.190401 
L 156.427345 72.150978 
z
" style="fill:#ff4300;"/>
    <path clip-path="url(#pa081b3c58e)" d="M 163.509476 139.379684 
L 156.427345 135.719964 
L 149.345214 139.379684 
z
" style="fill:#000080;"/>
    <path clip-path="url(#pa081b3c58e)" d="M 118.65598 139.379684 
L 111.806691 135.719964 
L 103.265127 139.993354 
z
" style="fill:#000080;"/>
    <path clip-path="url(#pa081b3c58e)" d="M 163.509476 139.379684 
L 178.873615 139.993354 
L 170.518078 135.719964 
z
" style="fill:#000080;"/>
    <path clip-path="url(#pa081b3c58e)" d="M 171.784741 64.463283 
L 163.505794 50.763887 
L 164.667591 85.929317 
z
" style="fill:#ff9800;"/>
    <path clip-path="url(#pa081b3c58e)" d="M 178.873615 139.993354 
L 178.949285 100.031315 
L 170.518078 135.719964 
z
" style="fill:#0014ff;"/>
    <path clip-path="url(#pa081b3c58e)" d="M 118.65598 139.379684 
L 126.737716 143.697928 
L 125.897424 135.719964 
z
" style="fill:#000080;"/>
    <path clip-path="url(#pa081b3c58e)" d="M 149.345214 139.379684 
L 142.336612 135.719964 
L 140.988738 143.697928 
z
" style="fill:#000080;"/>
    <path clip-path="url(#pa081b3c58e)" d="M 171.774432 94.195609 
L 178.936192 72.79011 
L 164.667591 85.929317 
z
" style="fill:#baff3c;"/>
    <path clip-path="url(#pa081b3c58e)" d="M 156.427345 29.698154 
L 149.350335 51.190401 
L 163.505794 50.763887 
z
" style="fill:#800000;"/>
    <path clip-path="url(#pa081b3c58e)" d="M 164.667591 85.929317 
L 178.936192 72.79011 
L 171.784741 64.463283 
z
" style="fill:#ffd700;"/>
    <path clip-path="url(#pa081b3c58e)" d="M 125.897424 135.719964 
L 126.737716 143.697928 
L 133.981075 139.993354 
z
" style="fill:#000080;"/>
    <path clip-path="url(#pa081b3c58e)" d="M 140.988738 143.697928 
L 142.336612 135.719964 
L 133.981075 139.993354 
z
" style="fill:#000080;"/>
    <path clip-path="url(#pa081b3c58e)" d="M 149.345214 139.379684 
L 156.427345 143.0778 
L 163.509476 139.379684 
z
" style="fill:#000080;"/>
    <path clip-path="url(#pa081b3c58e)" d="M 103.265127 139.993354 
L 110.111523 143.697928 
L 118.65598 139.379684 
z
" style="fill:#000080;"/>
    <path clip-path="url(#pa081b3c58e)" d="M 171.865952 143.697928 
L 178.873615 139.993354 
L 163.509476 139.379684 
z
" style="fill:#000080;"/>
    <path clip-path="url(#pa081b3c58e)" d="M 178.936192 72.79011 
L 171.774432 94.195609 
L 178.949285 100.031315 
z
" style="fill:#a0ff56;"/>
    <path clip-path="url(#pa081b3c58e)" d="M 178.873615 139.993354 
L 187.410389 105.842695 
L 178.949285 100.031315 
z
" style="fill:#00a4ff;"/>
    <path clip-path="url(#pa081b3c58e)" d="M 178.949285 100.031315 
L 186.16392 78.675419 
L 178.936192 72.79011 
z
" style="fill:#dbff1c;"/>
    <path clip-path="url(#pa081b3c58e)" d="M 163.509476 139.379684 
L 156.427345 143.0778 
L 164.784317 147.441607 
z
" style="fill:#000080;"/>
    <path clip-path="url(#pa081b3c58e)" d="M 148.070373 147.441607 
L 156.427345 143.0778 
L 149.345214 139.379684 
z
" style="fill:#000080;"/>
    <path clip-path="url(#pa081b3c58e)" d="M 164.784317 147.441607 
L 171.865952 143.697928 
L 163.509476 139.379684 
z
" style="fill:#000080;"/>
    <path clip-path="url(#pa081b3c58e)" d="M 149.345214 139.379684 
L 140.988738 143.697928 
L 148.070373 147.441607 
z
" style="fill:#000080;"/>
    <path clip-path="url(#pa081b3c58e)" d="M 95.860501 143.697928 
L 102.703952 147.441607 
L 103.265127 139.993354 
z
" style="fill:#000080;"/>
    <path clip-path="url(#pa081b3c58e)" d="M 103.265127 139.993354 
L 102.703952 147.441607 
L 110.111523 143.697928 
z
" style="fill:#000080;"/>
    <path clip-path="url(#pa081b3c58e)" d="M 133.981075 139.993354 
L 126.737716 143.697928 
L 133.744135 147.441607 
z
" style="fill:#000080;"/>
    <path clip-path="url(#pa081b3c58e)" d="M 133.744135 147.441607 
L 140.988738 143.697928 
L 133.981075 139.993354 
z
" style="fill:#000080;"/>
    <path clip-path="url(#pa081b3c58e)" d="M 179.110555 147.441607 
L 186.116974 143.697928 
L 178.873615 139.993354 
z
" style="fill:#000080;"/>
    <path clip-path="url(#pa081b3c58e)" d="M 178.873615 139.993354 
L 171.865952 143.697928 
L 179.110555 147.441607 
z
" style="fill:#000080;"/>
    <path clip-path="url(#pa081b3c58e)" d="M 118.190408 148.069398 
L 126.737716 143.697928 
L 118.65598 139.379684 
z
" style="fill:#000080;"/>
    <path clip-path="url(#pa081b3c58e)" d="M 118.65598 139.379684 
L 110.111523 143.697928 
L 118.190408 148.069398 
z
" style="fill:#000080;"/>
    <path clip-path="url(#pa081b3c58e)" d="M 178.873615 139.993354 
L 186.116974 143.697928 
L 194.717144 111.799927 
z
" style="fill:#0000ff;"/>
    <path clip-path="url(#pa081b3c58e)" d="M 187.410389 105.842695 
L 186.16392 78.675419 
L 178.949285 100.031315 
z
" style="fill:#87ff70;"/>
    <path clip-path="url(#pa081b3c58e)" d="M 194.717144 111.799927 
L 187.410389 105.842695 
L 178.873615 139.993354 
z
" style="fill:#0090ff;"/>
    <path clip-path="url(#pa081b3c58e)" d="M 164.784317 147.441607 
L 156.427345 143.0778 
L 148.070373 147.441607 
z
" style="fill:#000080;"/>
    <path clip-path="url(#pa081b3c58e)" d="M 95.860501 143.697928 
L 88.377714 147.441607 
L 102.703952 147.441607 
z
" style="fill:#000080;"/>
    <path clip-path="url(#pa081b3c58e)" d="M 140.988738 143.697928 
L 133.744135 147.441607 
L 148.070373 147.441607 
z
" style="fill:#000080;"/>
    <path clip-path="url(#pa081b3c58e)" d="M 110.111523 143.697928 
L 102.703952 147.441607 
L 118.190408 148.069398 
z
" style="fill:#000080;"/>
    <path clip-path="url(#pa081b3c58e)" d="M 194.690348 84.52819 
L 186.16392 78.675419 
L 187.410389 105.842695 
z
" style="fill:#c4ff33;"/>
    <path clip-path="url(#pa081b3c58e)" d="M 194.717144 111.799927 
L 186.116974 143.697928 
L 194.664282 148.069398 
z
" style="fill:#0000ff;"/>
    <path clip-path="url(#pa081b3c58e)" d="M 179.110555 147.441607 
L 171.865952 143.697928 
L 172.029785 151.225013 
z
" style="fill:#000080;"/>
    <path clip-path="url(#pa081b3c58e)" d="M 172.029785 151.225013 
L 171.865952 143.697928 
L 164.784317 147.441607 
z
" style="fill:#000080;"/>
    <path clip-path="url(#pa081b3c58e)" d="M 187.659845 151.859487 
L 186.116974 143.697928 
L 179.110555 147.441607 
z
" style="fill:#000080;"/>
    <path clip-path="url(#pa081b3c58e)" d="M 125.194845 151.859487 
L 133.744135 147.441607 
L 126.737716 143.697928 
z
" style="fill:#000080;"/>
    <path clip-path="url(#pa081b3c58e)" d="M 126.737716 143.697928 
L 118.190408 148.069398 
L 125.194845 151.859487 
z
" style="fill:#000080;"/>
    <path clip-path="url(#pa081b3c58e)" d="M 187.659845 151.859487 
L 194.664282 148.069398 
L 186.116974 143.697928 
z
" style="fill:#000080;"/>
    <path clip-path="url(#pa081b3c58e)" d="M 102.703952 147.441607 
L 88.377714 147.441607 
L 95.217772 151.225013 
z
" style="fill:#000080;"/>
    <path clip-path="url(#pa081b3c58e)" d="M 148.070373 147.441607 
L 133.744135 147.441607 
L 140.824905 151.225013 
z
" style="fill:#000080;"/>
    <path clip-path="url(#pa081b3c58e)" d="M 187.410389 105.842695 
L 202.04823 90.595212 
L 194.690348 84.52819 
z
" style="fill:#b4ff43;"/>
    <path clip-path="url(#pa081b3c58e)" d="M 194.717144 111.799927 
L 202.04823 90.595212 
L 187.410389 105.842695 
z
" style="fill:#66ff90;"/>
    <path clip-path="url(#pa081b3c58e)" d="M 156.427345 151.859487 
L 164.784317 147.441607 
L 148.070373 147.441607 
z
" style="fill:#000080;"/>
    <path clip-path="url(#pa081b3c58e)" d="M 118.190408 148.069398 
L 102.703952 147.441607 
L 110.779845 151.859487 
z
" style="fill:#000080;"/>
    <path clip-path="url(#pa081b3c58e)" d="M 194.664282 148.069398 
L 203.293754 119.86253 
L 194.717144 111.799927 
z
" style="fill:#0070ff;"/>
    <path clip-path="url(#pa081b3c58e)" d="M 95.217772 151.225013 
L 88.377714 147.441607 
L 79.547345 151.859487 
z
" style="fill:#000080;"/>
    <path clip-path="url(#pa081b3c58e)" d="M 140.824905 151.225013 
L 133.744135 147.441607 
L 125.194845 151.859487 
z
" style="fill:#000080;"/>
    <path clip-path="url(#pa081b3c58e)" d="M 172.029785 151.225013 
L 164.784317 147.441607 
L 156.427345 151.859487 
z
" style="fill:#000080;"/>
    <path clip-path="url(#pa081b3c58e)" d="M 172.029785 151.225013 
L 187.659845 151.859487 
L 179.110555 147.441607 
z
" style="fill:#000080;"/>
    <path clip-path="url(#pa081b3c58e)" d="M 210.647884 128.921884 
L 194.664282 148.069398 
L 202.074845 151.859487 
z
" style="fill:#0000df;"/>
    <path clip-path="url(#pa081b3c58e)" d="M 203.293754 119.86253 
L 194.664282 148.069398 
L 210.647884 128.921884 
z
" style="fill:#0048ff;"/>
    <path clip-path="url(#pa081b3c58e)" d="M 95.217772 151.225013 
L 103.290152 155.690047 
L 102.703952 147.441607 
z
" style="fill:#000080;"/>
    <path clip-path="url(#pa081b3c58e)" d="M 140.824905 151.225013 
L 149.181364 155.690047 
L 148.070373 147.441607 
z
" style="fill:#000080;"/>
    <path clip-path="url(#pa081b3c58e)" d="M 210.679997 98.790867 
L 202.04823 90.595212 
L 194.717144 111.799927 
z
" style="fill:#90ff66;"/>
    <path clip-path="url(#pa081b3c58e)" d="M 102.703952 147.441607 
L 103.290152 155.690047 
L 110.779845 151.859487 
z
" style="fill:#000080;"/>
    <path clip-path="url(#pa081b3c58e)" d="M 148.070373 147.441607 
L 149.181364 155.690047 
L 156.427345 151.859487 
z
" style="fill:#000080;"/>
    <path clip-path="url(#pa081b3c58e)" d="M 117.782114 155.690047 
L 118.190408 148.069398 
L 110.779845 151.859487 
z
" style="fill:#000080;"/>
    <path clip-path="url(#pa081b3c58e)" d="M 117.782114 155.690047 
L 125.194845 151.859487 
L 118.190408 148.069398 
z
" style="fill:#000080;"/>
    <path clip-path="url(#pa081b3c58e)" d="M 202.074845 151.859487 
L 194.664282 148.069398 
L 195.072576 155.690047 
z
" style="fill:#000080;"/>
    <path clip-path="url(#pa081b3c58e)" d="M 194.664282 148.069398 
L 187.659845 151.859487 
L 195.072576 155.690047 
z
" style="fill:#000080;"/>
    <path clip-path="url(#pa081b3c58e)" d="M 194.717144 111.799927 
L 203.293754 119.86253 
L 210.679997 98.790867 
z
" style="fill:#40ffb7;"/>
    <path clip-path="url(#pa081b3c58e)" d="M 79.547345 151.859487 
L 86.382863 155.690047 
L 95.217772 151.225013 
z
" style="fill:#000080;"/>
    <path clip-path="url(#pa081b3c58e)" d="M 125.194845 151.859487 
L 132.274075 155.690047 
L 140.824905 151.225013 
z
" style="fill:#000080;"/>
    <path clip-path="url(#pa081b3c58e)" d="M 156.427345 151.859487 
L 163.673326 155.690047 
L 172.029785 151.225013 
z
" style="fill:#000080;"/>
    <path clip-path="url(#pa081b3c58e)" d="M 172.029785 151.225013 
L 180.580615 155.690047 
L 187.659845 151.859487 
z
" style="fill:#000080;"/>
    <path clip-path="url(#pa081b3c58e)" d="M 210.647884 128.921884 
L 210.679997 98.790867 
L 203.293754 119.86253 
z
" style="fill:#1cffdb;"/>
    <path clip-path="url(#pa081b3c58e)" d="M 209.564538 155.690047 
L 210.647884 128.921884 
L 202.074845 151.859487 
z
" style="fill:#0000df;"/>
    <path clip-path="url(#pa081b3c58e)" d="M 156.427345 151.859487 
L 149.181364 155.690047 
L 163.673326 155.690047 
z
" style="fill:#000080;"/>
    <path clip-path="url(#pa081b3c58e)" d="M 110.779845 151.859487 
L 103.290152 155.690047 
L 117.782114 155.690047 
z
" style="fill:#000080;"/>
    <path clip-path="url(#pa081b3c58e)" d="M 195.072576 155.690047 
L 209.564538 155.690047 
L 202.074845 151.859487 
z
" style="fill:#000080;"/>
    <path clip-path="url(#pa081b3c58e)" d="M 187.659845 151.859487 
L 180.580615 155.690047 
L 195.072576 155.690047 
z
" style="fill:#000080;"/>
    <path clip-path="url(#pa081b3c58e)" d="M 218.072349 108.005653 
L 210.679997 98.790867 
L 210.647884 128.921884 
z
" style="fill:#49ffad;"/>
    <path clip-path="url(#pa081b3c58e)" d="M 218.003216 139.271167 
L 210.647884 128.921884 
L 209.564538 155.690047 
z
" style="fill:#0010ff;"/>
    <path clip-path="url(#pa081b3c58e)" d="M 71.890901 155.690047 
L 78.722013 159.561728 
L 79.547345 151.859487 
z
" style="fill:#000080;"/>
    <path clip-path="url(#pa081b3c58e)" d="M 79.547345 151.859487 
L 78.722013 159.561728 
L 86.382863 155.690047 
z
" style="fill:#000080;"/>
    <path clip-path="url(#pa081b3c58e)" d="M 132.274075 155.690047 
L 125.194845 151.859487 
L 124.859554 159.561728 
z
" style="fill:#000080;"/>
    <path clip-path="url(#pa081b3c58e)" d="M 125.194845 151.859487 
L 117.782114 155.690047 
L 124.859554 159.561728 
z
" style="fill:#000080;"/>
    <path clip-path="url(#pa081b3c58e)" d="M 140.824905 151.225013 
L 132.274075 155.690047 
L 140.629316 160.211053 
z
" style="fill:#000080;"/>
    <path clip-path="url(#pa081b3c58e)" d="M 140.629316 160.211053 
L 149.181364 155.690047 
L 140.824905 151.225013 
z
" style="fill:#000080;"/>
    <path clip-path="url(#pa081b3c58e)" d="M 94.450464 160.211053 
L 103.290152 155.690047 
L 95.217772 151.225013 
z
" style="fill:#000080;"/>
    <path clip-path="url(#pa081b3c58e)" d="M 95.217772 151.225013 
L 86.382863 155.690047 
L 94.450464 160.211053 
z
" style="fill:#000080;"/>
    <path clip-path="url(#pa081b3c58e)" d="M 172.029785 151.225013 
L 172.225374 160.211053 
L 180.580615 155.690047 
z
" style="fill:#000080;"/>
    <path clip-path="url(#pa081b3c58e)" d="M 163.673326 155.690047 
L 172.225374 160.211053 
L 172.029785 151.225013 
z
" style="fill:#000080;"/>
    <path clip-path="url(#pa081b3c58e)" d="M 225.46139 118.490463 
L 210.647884 128.921884 
L 218.003216 139.271167 
z
" style="fill:#0098ff;"/>
    <path clip-path="url(#pa081b3c58e)" d="M 218.072349 108.005653 
L 210.647884 128.921884 
L 225.46139 118.490463 
z
" style="fill:#1cffdb;"/>
    <path clip-path="url(#pa081b3c58e)" d="M 226.632292 151.124149 
L 218.003216 139.271167 
L 209.564538 155.690047 
z
" style="fill:#0000d6;"/>
    <path clip-path="url(#pa081b3c58e)" d="M 225.46139 118.490463 
L 218.003216 139.271167 
L 226.632292 151.124149 
z
" style="fill:#0054ff;"/>
    <path clip-path="url(#pa081b3c58e)" d="M 103.290152 155.690047 
L 110.289804 159.561728 
L 117.782114 155.690047 
z
" style="fill:#000080;"/>
    <path clip-path="url(#pa081b3c58e)" d="M 202.564886 159.561728 
L 209.564538 155.690047 
L 195.072576 155.690047 
z
" style="fill:#000080;"/>
    <path clip-path="url(#pa081b3c58e)" d="M 163.673326 155.690047 
L 149.181364 155.690047 
L 156.427345 159.561728 
z
" style="fill:#000080;"/>
    <path clip-path="url(#pa081b3c58e)" d="M 195.072576 155.690047 
L 180.580615 155.690047 
L 187.995136 159.561728 
z
" style="fill:#000080;"/>
    <path clip-path="url(#pa081b3c58e)" d="M 218.404226 160.211053 
L 226.632292 151.124149 
L 209.564538 155.690047 
z
" style="fill:#000096;"/>
    <path clip-path="url(#pa081b3c58e)" d="M 226.632292 151.124149 
L 234.132047 130.438577 
L 225.46139 118.490463 
z
" style="fill:#0080ff;"/>
    <path clip-path="url(#pa081b3c58e)" d="M 124.859554 159.561728 
L 117.782114 155.690047 
L 110.289804 159.561728 
z
" style="fill:#000080;"/>
    <path clip-path="url(#pa081b3c58e)" d="M 156.427345 159.561728 
L 149.181364 155.690047 
L 140.629316 160.211053 
z
" style="fill:#000080;"/>
    <path clip-path="url(#pa081b3c58e)" d="M 86.382863 155.690047 
L 78.722013 159.561728 
L 94.450464 160.211053 
z
" style="fill:#000080;"/>
    <path clip-path="url(#pa081b3c58e)" d="M 103.290152 155.690047 
L 94.450464 160.211053 
L 110.289804 159.561728 
z
" style="fill:#000080;"/>
    <path clip-path="url(#pa081b3c58e)" d="M 124.859554 159.561728 
L 140.629316 160.211053 
L 132.274075 155.690047 
z
" style="fill:#000080;"/>
    <path clip-path="url(#pa081b3c58e)" d="M 172.225374 160.211053 
L 163.673326 155.690047 
L 156.427345 159.561728 
z
" style="fill:#000080;"/>
    <path clip-path="url(#pa081b3c58e)" d="M 187.995136 159.561728 
L 180.580615 155.690047 
L 172.225374 160.211053 
z
" style="fill:#000080;"/>
    <path clip-path="url(#pa081b3c58e)" d="M 234.132677 159.561728 
L 234.132047 130.438577 
L 226.632292 151.124149 
z
" style="fill:#0000ff;"/>
    <path clip-path="url(#pa081b3c58e)" d="M 234.132677 159.561728 
L 226.632292 151.124149 
L 218.404226 160.211053 
z
" style="fill:#000096;"/>
    <path clip-path="url(#pa081b3c58e)" d="M 195.072576 155.690047 
L 187.995136 159.561728 
L 195.489684 163.475198 
z
" style="fill:#000080;"/>
    <path clip-path="url(#pa081b3c58e)" d="M 195.489684 163.475198 
L 202.564886 159.561728 
L 195.072576 155.690047 
z
" style="fill:#000080;"/>
    <path clip-path="url(#pa081b3c58e)" d="M 202.564886 159.561728 
L 211.408212 164.131553 
L 209.564538 155.690047 
z
" style="fill:#000080;"/>
    <path clip-path="url(#pa081b3c58e)" d="M 241.532628 142.278895 
L 234.132047 130.438577 
L 234.132677 159.561728 
z
" style="fill:#0024ff;"/>
    <path clip-path="url(#pa081b3c58e)" d="M 209.564538 155.690047 
L 211.408212 164.131553 
L 218.404226 160.211053 
z
" style="fill:#000080;"/>
    <path clip-path="url(#pa081b3c58e)" d="M 124.859554 159.561728 
L 110.289804 159.561728 
L 117.365006 163.475198 
z
" style="fill:#000080;"/>
    <path clip-path="url(#pa081b3c58e)" d="M 218.404226 160.211053 
L 226.069776 164.131553 
L 234.132677 159.561728 
z
" style="fill:#000080;"/>
    <path clip-path="url(#pa081b3c58e)" d="M 140.629316 160.211053 
L 147.874766 164.131553 
L 156.427345 159.561728 
z
" style="fill:#000080;"/>
    <path clip-path="url(#pa081b3c58e)" d="M 94.450464 160.211053 
L 78.722013 159.561728 
L 86.784914 164.131553 
z
" style="fill:#000080;"/>
    <path clip-path="url(#pa081b3c58e)" d="M 110.289804 159.561728 
L 94.450464 160.211053 
L 101.446479 164.131553 
z
" style="fill:#000080;"/>
    <path clip-path="url(#pa081b3c58e)" d="M 133.213201 164.131553 
L 140.629316 160.211053 
L 124.859554 159.561728 
z
" style="fill:#000080;"/>
    <path clip-path="url(#pa081b3c58e)" d="M 156.427345 159.561728 
L 164.979924 164.131553 
L 172.225374 160.211053 
z
" style="fill:#000080;"/>
    <path clip-path="url(#pa081b3c58e)" d="M 179.641489 164.131553 
L 187.995136 159.561728 
L 172.225374 160.211053 
z
" style="fill:#000080;"/>
    <path clip-path="url(#pa081b3c58e)" d="M 211.408212 164.131553 
L 226.069776 164.131553 
L 218.404226 160.211053 
z
" style="fill:#000080;"/>
    <path clip-path="url(#pa081b3c58e)" d="M 195.489684 163.475198 
L 187.995136 159.561728 
L 187.138155 168.094637 
z
" style="fill:#000080;"/>
    <path clip-path="url(#pa081b3c58e)" d="M 108.518482 168.094637 
L 117.365006 163.475198 
L 110.289804 159.561728 
z
" style="fill:#000080;"/>
    <path clip-path="url(#pa081b3c58e)" d="M 204.336208 168.094637 
L 202.564886 159.561728 
L 195.489684 163.475198 
z
" style="fill:#000080;"/>
    <path clip-path="url(#pa081b3c58e)" d="M 124.859554 159.561728 
L 117.365006 163.475198 
L 125.716535 168.094637 
z
" style="fill:#000080;"/>
    <path clip-path="url(#pa081b3c58e)" d="M 187.138155 168.094637 
L 187.995136 159.561728 
L 179.641489 164.131553 
z
" style="fill:#000080;"/>
    <path clip-path="url(#pa081b3c58e)" d="M 110.289804 159.561728 
L 101.446479 164.131553 
L 108.518482 168.094637 
z
" style="fill:#000080;"/>
    <path clip-path="url(#pa081b3c58e)" d="M 204.336208 168.094637 
L 211.408212 164.131553 
L 202.564886 159.561728 
z
" style="fill:#000080;"/>
    <path clip-path="url(#pa081b3c58e)" d="M 124.859554 159.561728 
L 125.716535 168.094637 
L 133.213201 164.131553 
z
" style="fill:#000080;"/>
    <path clip-path="url(#pa081b3c58e)" d="M 94.450464 160.211053 
L 93.777293 168.094637 
L 101.446479 164.131553 
z
" style="fill:#000080;"/>
    <path clip-path="url(#pa081b3c58e)" d="M 86.784914 164.131553 
L 93.777293 168.094637 
L 94.450464 160.211053 
z
" style="fill:#000080;"/>
    <path clip-path="url(#pa081b3c58e)" d="M 147.874766 164.131553 
L 140.629316 160.211053 
L 140.457724 168.094637 
z
" style="fill:#000080;"/>
    <path clip-path="url(#pa081b3c58e)" d="M 140.457724 168.094637 
L 140.629316 160.211053 
L 133.213201 164.131553 
z
" style="fill:#000080;"/>
    <path clip-path="url(#pa081b3c58e)" d="M 164.979924 164.131553 
L 172.396966 168.094637 
L 172.225374 160.211053 
z
" style="fill:#000080;"/>
    <path clip-path="url(#pa081b3c58e)" d="M 172.225374 160.211053 
L 172.396966 168.094637 
L 179.641489 164.131553 
z
" style="fill:#000080;"/>
    <path clip-path="url(#pa081b3c58e)" d="M 156.427345 159.561728 
L 147.874766 164.131553 
L 156.427345 168.759339 
z
" style="fill:#000080;"/>
    <path clip-path="url(#pa081b3c58e)" d="M 156.427345 168.759339 
L 164.979924 164.131553 
L 156.427345 159.561728 
z
" style="fill:#000080;"/>
    <path clip-path="url(#pa081b3c58e)" d="M 211.408212 164.131553 
L 219.077397 168.094637 
L 226.069776 164.131553 
z
" style="fill:#000080;"/>
    <path clip-path="url(#pa081b3c58e)" d="M 195.489684 163.475198 
L 187.138155 168.094637 
L 204.336208 168.094637 
z
" style="fill:#000080;"/>
    <path clip-path="url(#pa081b3c58e)" d="M 172.396966 168.094637 
L 187.138155 168.094637 
L 179.641489 164.131553 
z
" style="fill:#000080;"/>
    <path clip-path="url(#pa081b3c58e)" d="M 108.518482 168.094637 
L 101.446479 164.131553 
L 93.777293 168.094637 
z
" style="fill:#000080;"/>
    <path clip-path="url(#pa081b3c58e)" d="M 219.077397 168.094637 
L 211.408212 164.131553 
L 204.336208 168.094637 
z
" style="fill:#000080;"/>
    <path clip-path="url(#pa081b3c58e)" d="M 156.427345 168.759339 
L 172.396966 168.094637 
L 164.979924 164.131553 
z
" style="fill:#000080;"/>
    <path clip-path="url(#pa081b3c58e)" d="M 147.874766 164.131553 
L 140.457724 168.094637 
L 156.427345 168.759339 
z
" style="fill:#000080;"/>
    <path clip-path="url(#pa081b3c58e)" d="M 132.959681 172.101001 
L 140.457724 168.094637 
L 133.213201 164.131553 
z
" style="fill:#000080;"/>
    <path clip-path="url(#pa081b3c58e)" d="M 133.213201 164.131553 
L 125.716535 168.094637 
L 132.959681 172.101001 
z
" style="fill:#000080;"/>
    <path clip-path="url(#pa081b3c58e)" d="M 108.518482 168.094637 
L 116.866855 172.772986 
L 117.365006 163.475198 
z
" style="fill:#000080;"/>
    <path clip-path="url(#pa081b3c58e)" d="M 117.365006 163.475198 
L 116.866855 172.772986 
L 125.716535 168.094637 
z
" style="fill:#000080;"/>
    <path clip-path="url(#pa081b3c58e)" d="M 93.777293 168.094637 
L 100.846035 172.101001 
L 108.518482 168.094637 
z
" style="fill:#000080;"/>
    <path clip-path="url(#pa081b3c58e)" d="M 212.008655 172.101001 
L 219.077397 168.094637 
L 204.336208 168.094637 
z
" style="fill:#000080;"/>
    <path clip-path="url(#pa081b3c58e)" d="M 179.895009 172.101001 
L 187.138155 168.094637 
L 172.396966 168.094637 
z
" style="fill:#000080;"/>
    <path clip-path="url(#pa081b3c58e)" d="M 204.336208 168.094637 
L 187.138155 168.094637 
L 195.987835 172.772986 
z
" style="fill:#000080;"/>
    <path clip-path="url(#pa081b3c58e)" d="M 140.457724 168.094637 
L 149.009753 172.772986 
L 156.427345 168.759339 
z
" style="fill:#000080;"/>
    <path clip-path="url(#pa081b3c58e)" d="M 163.844937 172.772986 
L 172.396966 168.094637 
L 156.427345 168.759339 
z
" style="fill:#000080;"/>
    <path clip-path="url(#pa081b3c58e)" d="M 108.518482 168.094637 
L 100.846035 172.101001 
L 116.866855 172.772986 
z
" style="fill:#000080;"/>
    <path clip-path="url(#pa081b3c58e)" d="M 125.716535 168.094637 
L 116.866855 172.772986 
L 132.959681 172.101001 
z
" style="fill:#000080;"/>
    <path clip-path="url(#pa081b3c58e)" d="M 132.959681 172.101001 
L 149.009753 172.772986 
L 140.457724 168.094637 
z
" style="fill:#000080;"/>
    <path clip-path="url(#pa081b3c58e)" d="M 187.138155 168.094637 
L 179.895009 172.101001 
L 188.746884 176.830746 
z
" style="fill:#000080;"/>
    <path clip-path="url(#pa081b3c58e)" d="M 203.663594 176.830746 
L 212.008655 172.101001 
L 204.336208 168.094637 
z
" style="fill:#000080;"/>
    <path clip-path="url(#pa081b3c58e)" d="M 179.895009 172.101001 
L 172.396966 168.094637 
L 171.344055 176.830746 
z
" style="fill:#000080;"/>
    <path clip-path="url(#pa081b3c58e)" d="M 188.746884 176.830746 
L 195.987835 172.772986 
L 187.138155 168.094637 
z
" style="fill:#000080;"/>
    <path clip-path="url(#pa081b3c58e)" d="M 204.336208 168.094637 
L 195.987835 172.772986 
L 203.663594 176.830746 
z
" style="fill:#000080;"/>
    <path clip-path="url(#pa081b3c58e)" d="M 171.344055 176.830746 
L 172.396966 168.094637 
L 163.844937 172.772986 
z
" style="fill:#000080;"/>
    <path clip-path="url(#pa081b3c58e)" d="M 156.427345 168.759339 
L 149.009753 172.772986 
L 156.427345 176.830746 
z
" style="fill:#000080;"/>
    <path clip-path="url(#pa081b3c58e)" d="M 156.427345 176.830746 
L 163.844937 172.772986 
L 156.427345 168.759339 
z
" style="fill:#000080;"/>
    <path clip-path="url(#pa081b3c58e)" d="M 116.866855 172.772986 
L 100.846035 172.101001 
L 109.191096 176.830746 
z
" style="fill:#000080;"/>
    <path clip-path="url(#pa081b3c58e)" d="M 132.959681 172.101001 
L 116.866855 172.772986 
L 124.107806 176.830746 
z
" style="fill:#000080;"/>
    <path clip-path="url(#pa081b3c58e)" d="M 132.959681 172.101001 
L 141.510635 176.830746 
L 149.009753 172.772986 
z
" style="fill:#000080;"/>
    <path clip-path="url(#pa081b3c58e)" d="M 188.746884 176.830746 
L 179.895009 172.101001 
L 171.344055 176.830746 
z
" style="fill:#000080;"/>
    <path clip-path="url(#pa081b3c58e)" d="M 156.427345 176.830746 
L 149.009753 172.772986 
L 141.510635 176.830746 
z
" style="fill:#000080;"/>
    <path clip-path="url(#pa081b3c58e)" d="M 171.344055 176.830746 
L 163.844937 172.772986 
L 156.427345 176.830746 
z
" style="fill:#000080;"/>
    <path clip-path="url(#pa081b3c58e)" d="M 195.987835 172.772986 
L 196.425046 180.933351 
L 203.663594 176.830746 
z
" style="fill:#000080;"/>
    <path clip-path="url(#pa081b3c58e)" d="M 188.746884 176.830746 
L 196.425046 180.933351 
L 195.987835 172.772986 
z
" style="fill:#000080;"/>
    <path clip-path="url(#pa081b3c58e)" d="M 109.191096 176.830746 
L 116.429644 180.933351 
L 116.866855 172.772986 
z
" style="fill:#000080;"/>
    <path clip-path="url(#pa081b3c58e)" d="M 116.866855 172.772986 
L 116.429644 180.933351 
L 124.107806 176.830746 
z
" style="fill:#000080;"/>
    <path clip-path="url(#pa081b3c58e)" d="M 124.107806 176.830746 
L 132.656818 181.621531 
L 132.959681 172.101001 
z
" style="fill:#000080;"/>
    <path clip-path="url(#pa081b3c58e)" d="M 132.656818 181.621531 
L 141.510635 176.830746 
L 132.959681 172.101001 
z
" style="fill:#000080;"/>
    <path clip-path="url(#pa081b3c58e)" d="M 141.510635 176.830746 
L 148.927776 180.933351 
L 156.427345 176.830746 
z
" style="fill:#000080;"/>
    <path clip-path="url(#pa081b3c58e)" d="M 156.427345 176.830746 
L 163.926914 180.933351 
L 171.344055 176.830746 
z
" style="fill:#000080;"/>
    <path clip-path="url(#pa081b3c58e)" d="M 171.344055 176.830746 
L 180.197872 181.621531 
L 188.746884 176.830746 
z
" style="fill:#000080;"/>
    <path clip-path="url(#pa081b3c58e)" d="M 156.427345 176.830746 
L 148.927776 180.933351 
L 163.926914 180.933351 
z
" style="fill:#000080;"/>
    <path clip-path="url(#pa081b3c58e)" d="M 124.107806 176.830746 
L 116.429644 180.933351 
L 124.976382 185.777401 
z
" style="fill:#000080;"/>
    <path clip-path="url(#pa081b3c58e)" d="M 187.878308 185.777401 
L 196.425046 180.933351 
L 188.746884 176.830746 
z
" style="fill:#000080;"/>
    <path clip-path="url(#pa081b3c58e)" d="M 141.510635 176.830746 
L 140.072844 185.777401 
L 148.927776 180.933351 
z
" style="fill:#000080;"/>
    <path clip-path="url(#pa081b3c58e)" d="M 163.926914 180.933351 
L 172.781846 185.777401 
L 171.344055 176.830746 
z
" style="fill:#000080;"/>
    <path clip-path="url(#pa081b3c58e)" d="M 124.976382 185.777401 
L 132.656818 181.621531 
L 124.107806 176.830746 
z
" style="fill:#000080;"/>
    <path clip-path="url(#pa081b3c58e)" d="M 132.656818 181.621531 
L 140.072844 185.777401 
L 141.510635 176.830746 
z
" style="fill:#000080;"/>
    <path clip-path="url(#pa081b3c58e)" d="M 188.746884 176.830746 
L 180.197872 181.621531 
L 187.878308 185.777401 
z
" style="fill:#000080;"/>
    <path clip-path="url(#pa081b3c58e)" d="M 171.344055 176.830746 
L 172.781846 185.777401 
L 180.197872 181.621531 
z
" style="fill:#000080;"/>
    <path clip-path="url(#pa081b3c58e)" d="M 163.926914 180.933351 
L 148.927776 180.933351 
L 156.427345 185.081549 
z
" style="fill:#000080;"/>
    <path clip-path="url(#pa081b3c58e)" d="M 156.427345 185.081549 
L 148.927776 180.933351 
L 140.072844 185.777401 
z
" style="fill:#000080;"/>
    <path clip-path="url(#pa081b3c58e)" d="M 172.781846 185.777401 
L 163.926914 180.933351 
L 156.427345 185.081549 
z
" style="fill:#000080;"/>
    <path clip-path="url(#pa081b3c58e)" d="M 132.656818 181.621531 
L 124.976382 185.777401 
L 140.072844 185.777401 
z
" style="fill:#000080;"/>
    <path clip-path="url(#pa081b3c58e)" d="M 172.781846 185.777401 
L 187.878308 185.777401 
L 180.197872 181.621531 
z
" style="fill:#000080;"/>
    <path clip-path="url(#pa081b3c58e)" d="M 140.072844 185.777401 
L 147.571824 189.979758 
L 156.427345 185.081549 
z
" style="fill:#000080;"/>
    <path clip-path="url(#pa081b3c58e)" d="M 172.781846 185.777401 
L 156.427345 185.081549 
L 165.282866 189.979758 
z
" style="fill:#000080;"/>
    <path clip-path="url(#pa081b3c58e)" d="M 180.46376 189.979758 
L 187.878308 185.777401 
L 172.781846 185.777401 
z
" style="fill:#000080;"/>
    <path clip-path="url(#pa081b3c58e)" d="M 140.072844 185.777401 
L 124.976382 185.777401 
L 132.39093 189.979758 
z
" style="fill:#000080;"/>
    <path clip-path="url(#pa081b3c58e)" d="M 165.282866 189.979758 
L 156.427345 185.081549 
L 147.571824 189.979758 
z
" style="fill:#000080;"/>
    <path clip-path="url(#pa081b3c58e)" d="M 132.39093 189.979758 
L 139.88888 194.229385 
L 140.072844 185.777401 
z
" style="fill:#000080;"/>
    <path clip-path="url(#pa081b3c58e)" d="M 165.282866 189.979758 
L 172.96581 194.229385 
L 172.781846 185.777401 
z
" style="fill:#000080;"/>
    <path clip-path="url(#pa081b3c58e)" d="M 140.072844 185.777401 
L 139.88888 194.229385 
L 147.571824 189.979758 
z
" style="fill:#000080;"/>
    <path clip-path="url(#pa081b3c58e)" d="M 172.781846 185.777401 
L 172.96581 194.229385 
L 180.46376 189.979758 
z
" style="fill:#000080;"/>
    <path clip-path="url(#pa081b3c58e)" d="M 147.571824 189.979758 
L 156.427345 194.942308 
L 165.282866 189.979758 
z
" style="fill:#000080;"/>
    <path clip-path="url(#pa081b3c58e)" d="M 156.427345 194.942308 
L 147.571824 189.979758 
L 139.88888 194.229385 
z
" style="fill:#000080;"/>
    <path clip-path="url(#pa081b3c58e)" d="M 164.110899 199.248099 
L 172.96581 194.229385 
L 165.282866 189.979758 
z
" style="fill:#000080;"/>
    <path clip-path="url(#pa081b3c58e)" d="M 165.282866 189.979758 
L 156.427345 194.942308 
L 164.110899 199.248099 
z
" style="fill:#000080;"/>
    <path clip-path="url(#pa081b3c58e)" d="M 139.88888 194.229385 
L 148.743791 199.248099 
L 156.427345 194.942308 
z
" style="fill:#000080;"/>
    <path clip-path="url(#pa081b3c58e)" d="M 156.427345 194.942308 
L 148.743791 199.248099 
L 164.110899 199.248099 
z
" style="fill:#000080;"/>
    <path clip-path="url(#pa081b3c58e)" d="M 164.110899 199.248099 
L 148.743791 199.248099 
L 156.427345 203.602921 
z
" style="fill:#000080;"/>
   </g>
  </g>
 </g>
 <defs>
  <clipPath id="pa081b3c58e">
   <rect height="217.44" width="217.44" x="44.768967" y="7.2"/>
  </clipPath>
 </defs>
</svg>
