<svg width="2517" height="1343" xmlns="http://www.w3.org/2000/svg" xmlns:xlink="http://www.w3.org/1999/xlink" xml:space="preserve" overflow="hidden"><defs><clipPath id="clip0"><rect x="1310" y="357" width="2517" height="1343"/></clipPath><clipPath id="clip1"><rect x="1314" y="362" width="2506" height="1334"/></clipPath><clipPath id="clip2"><rect x="1314" y="362" width="2506" height="1334"/></clipPath><clipPath id="clip3"><rect x="1314" y="362" width="2506" height="1334"/></clipPath><clipPath id="clip4"><rect x="1314" y="362" width="2506" height="1334"/></clipPath><clipPath id="clip5"><rect x="1314" y="362" width="2506" height="1334"/></clipPath><clipPath id="clip6"><rect x="1314" y="362" width="2506" height="1334"/></clipPath><clipPath id="clip7"><rect x="1597" y="413" width="2152" height="1046"/></clipPath><clipPath id="clip8"><rect x="1314" y="362" width="2506" height="1334"/></clipPath><clipPath id="clip9"><rect x="1314" y="362" width="2506" height="1334"/></clipPath><clipPath id="clip10"><rect x="1314" y="362" width="2506" height="1334"/></clipPath><clipPath id="clip11"><rect x="1314" y="362" width="2506" height="1334"/></clipPath><clipPath id="clip12"><rect x="1314" y="362" width="2506" height="1334"/></clipPath><clipPath id="clip13"><rect x="1314" y="362" width="2506" height="1334"/></clipPath><clipPath id="clip14"><rect x="1314" y="362" width="2506" height="1334"/></clipPath><clipPath id="clip15"><rect x="1314" y="362" width="2506" height="1334"/></clipPath><clipPath id="clip16"><rect x="1314" y="362" width="2506" height="1334"/></clipPath><clipPath id="clip17"><rect x="1314" y="362" width="2506" height="1334"/></clipPath><clipPath id="clip18"><rect x="1314" y="362" width="2506" height="1334"/></clipPath><clipPath id="clip19"><rect x="1314" y="362" width="2506" height="1334"/></clipPath><clipPath id="clip20"><rect x="1314" y="362" width="2506" height="1334"/></clipPath><clipPath id="clip21"><rect x="1314" y="362" width="2506" height="1334"/></clipPath><clipPath id="clip22"><rect x="1314" y="362" width="2506" height="1334"/></clipPath><clipPath id="clip23"><rect x="1314" y="362" width="2506" height="1334"/></clipPath><clipPath id="clip24"><rect x="1314" y="362" width="2506" height="1334"/></clipPath><clipPath id="clip25"><rect x="1314" y="362" width="2506" height="1334"/></clipPath><clipPath id="clip26"><rect x="1314" y="362" width="2506" height="1334"/></clipPath><clipPath id="clip27"><rect x="1314" y="362" width="2506" height="1334"/></clipPath><clipPath id="clip28"><rect x="1314" y="362" width="2506" height="1334"/></clipPath><clipPath id="clip29"><rect x="1314" y="362" width="2506" height="1334"/></clipPath><clipPath id="clip30"><rect x="1314" y="362" width="2506" height="1334"/></clipPath><clipPath id="clip31"><rect x="1314" y="362" width="2506" height="1334"/></clipPath></defs><g clip-path="url(#clip0)" transform="translate(-1310 -357)"><rect x="1315" y="363" width="2506" height="1333" fill="#FFFFFF" fill-opacity="1"/><g clip-path="url(#clip1)"><path d="M1597.5 1309.54 3749.5 1309.54M1597.5 1160.54 3749.5 1160.54M1597.5 1010.53 3749.5 1010.53M1597.5 861.528 3749.5 861.528M1597.5 712.524 3749.5 712.524M1597.5 562.519 3749.5 562.519M1597.5 413.5 3749.5 413.5" stroke="#D9D9D9" stroke-width="3.4375" stroke-linecap="butt" stroke-linejoin="round" stroke-miterlimit="10" stroke-opacity="1" fill="none" fill-rule="nonzero"/></g><g clip-path="url(#clip2)"><path d="M1821.56 413.5 1821.56 1459.5M2045.57 413.5 2045.57 1459.5M2269.57 413.5 2269.57 1459.5M2493.58 413.5 2493.58 1459.5M2717.59 413.5 2717.59 1459.5M2942.6 413.5 2942.6 1459.5M3166.6 413.5 3166.6 1459.5M3390.61 413.5 3390.61 1459.5M3614.5 413.5 3614.5 1459.5" stroke="#D9D9D9" stroke-width="3.4375" stroke-linecap="butt" stroke-linejoin="round" stroke-miterlimit="10" stroke-opacity="1" fill="none" fill-rule="nonzero"/></g><g clip-path="url(#clip3)"><rect x="1597.5" y="413.5" width="2152" height="1046" stroke="#000000" stroke-width="3.4375" stroke-linecap="butt" stroke-linejoin="round" stroke-miterlimit="10" stroke-opacity="1" fill="none"/></g><g clip-path="url(#clip4)"><path d="M0 0 0.000360892 1046" stroke="#000000" stroke-width="3.4375" stroke-linecap="butt" stroke-linejoin="round" stroke-miterlimit="10" stroke-opacity="1" fill="none" fill-rule="evenodd" transform="matrix(1 0 0 -1 1597.5 1459.5)"/></g><g clip-path="url(#clip5)"><path d="M1597.5 1459.5 3749.5 1459.5" stroke="#000000" stroke-width="3.4375" stroke-linecap="butt" stroke-linejoin="round" stroke-miterlimit="10" stroke-opacity="1" fill="none" fill-rule="evenodd"/></g><g clip-path="url(#clip6)"><path d="M1652.15 570.347C1652.15 576.422 1647.23 581.347 1641.15 581.347 1635.08 581.347 1630.15 576.422 1630.15 570.347 1630.15 564.273 1635.08 559.348 1641.15 559.348 1647.23 559.348 1652.15 564.273 1652.15 570.347Z" stroke="#4472C4" stroke-width="3.4375" stroke-linecap="butt" stroke-linejoin="round" stroke-miterlimit="10" stroke-opacity="1" fill="#4472C4" fill-rule="nonzero" fill-opacity="1"/><path d="M1697.15 998.347C1697.15 1004.42 1692.23 1009.35 1686.15 1009.35 1680.08 1009.35 1675.15 1004.42 1675.15 998.347 1675.15 992.273 1680.08 987.348 1686.15 987.348 1692.23 987.348 1697.15 992.273 1697.15 998.347Z" stroke="#4472C4" stroke-width="3.4375" stroke-linecap="butt" stroke-linejoin="round" stroke-miterlimit="10" stroke-opacity="1" fill="#4472C4" fill-rule="nonzero" fill-opacity="1"/><path d="M1742.15 1104.35C1742.15 1110.42 1737.23 1115.35 1731.15 1115.35 1725.08 1115.35 1720.15 1110.42 1720.15 1104.35 1720.15 1098.27 1725.08 1093.35 1731.15 1093.35 1737.23 1093.35 1742.15 1098.27 1742.15 1104.35Z" stroke="#4472C4" stroke-width="3.4375" stroke-linecap="butt" stroke-linejoin="round" stroke-miterlimit="10" stroke-opacity="1" fill="#4472C4" fill-rule="nonzero" fill-opacity="1"/><path d="M1787.15 1178.35C1787.15 1184.42 1782.23 1189.35 1776.15 1189.35 1770.08 1189.35 1765.15 1184.42 1765.15 1178.35 1765.15 1172.27 1770.08 1167.35 1776.15 1167.35 1782.23 1167.35 1787.15 1172.27 1787.15 1178.35Z" stroke="#4472C4" stroke-width="3.4375" stroke-linecap="butt" stroke-linejoin="round" stroke-miterlimit="10" stroke-opacity="1" fill="#4472C4" fill-rule="nonzero" fill-opacity="1"/><path d="M1832.15 1213.35C1832.15 1219.42 1827.23 1224.35 1821.15 1224.35 1815.08 1224.35 1810.15 1219.42 1810.15 1213.35 1810.15 1207.27 1815.08 1202.35 1821.15 1202.35 1827.23 1202.35 1832.15 1207.27 1832.15 1213.35Z" stroke="#4472C4" stroke-width="3.4375" stroke-linecap="butt" stroke-linejoin="round" stroke-miterlimit="10" stroke-opacity="1" fill="#4472C4" fill-rule="nonzero" fill-opacity="1"/><path d="M1877.15 1242.35C1877.15 1248.42 1872.23 1253.35 1866.15 1253.35 1860.08 1253.35 1855.15 1248.42 1855.15 1242.35 1855.15 1236.27 1860.08 1231.35 1866.15 1231.35 1872.23 1231.35 1877.15 1236.27 1877.15 1242.35Z" stroke="#4472C4" stroke-width="3.4375" stroke-linecap="butt" stroke-linejoin="round" stroke-miterlimit="10" stroke-opacity="1" fill="#4472C4" fill-rule="nonzero" fill-opacity="1"/><path d="M1921.15 1300.35C1921.15 1306.42 1916.23 1311.35 1910.15 1311.35 1904.08 1311.35 1899.15 1306.42 1899.15 1300.35 1899.15 1294.27 1904.08 1289.35 1910.15 1289.35 1916.23 1289.35 1921.15 1294.27 1921.15 1300.35Z" stroke="#4472C4" stroke-width="3.4375" stroke-linecap="butt" stroke-linejoin="round" stroke-miterlimit="10" stroke-opacity="1" fill="#4472C4" fill-rule="nonzero" fill-opacity="1"/><path d="M1966.15 1290.35C1966.15 1296.42 1961.23 1301.35 1955.15 1301.35 1949.08 1301.35 1944.15 1296.42 1944.15 1290.35 1944.15 1284.27 1949.08 1279.35 1955.15 1279.35 1961.23 1279.35 1966.15 1284.27 1966.15 1290.35Z" stroke="#4472C4" stroke-width="3.4375" stroke-linecap="butt" stroke-linejoin="round" stroke-miterlimit="10" stroke-opacity="1" fill="#4472C4" fill-rule="nonzero" fill-opacity="1"/><path d="M2056.15 1300.35C2056.15 1306.42 2051.23 1311.35 2045.15 1311.35 2039.08 1311.35 2034.15 1306.42 2034.15 1300.35 2034.15 1294.27 2039.08 1289.35 2045.15 1289.35 2051.23 1289.35 2056.15 1294.27 2056.15 1300.35Z" stroke="#4472C4" stroke-width="3.4375" stroke-linecap="butt" stroke-linejoin="round" stroke-miterlimit="10" stroke-opacity="1" fill="#4472C4" fill-rule="nonzero" fill-opacity="1"/><path d="M2146.15 1363.35C2146.15 1369.42 2141.23 1374.35 2135.15 1374.35 2129.08 1374.35 2124.15 1369.42 2124.15 1363.35 2124.15 1357.27 2129.08 1352.35 2135.15 1352.35 2141.23 1352.35 2146.15 1357.27 2146.15 1363.35Z" stroke="#4472C4" stroke-width="3.4375" stroke-linecap="butt" stroke-linejoin="round" stroke-miterlimit="10" stroke-opacity="1" fill="#4472C4" fill-rule="nonzero" fill-opacity="1"/><path d="M2235.15 1305.35C2235.15 1311.42 2230.23 1316.35 2224.15 1316.35 2218.08 1316.35 2213.15 1311.42 2213.15 1305.35 2213.15 1299.27 2218.08 1294.35 2224.15 1294.35 2230.23 1294.35 2235.15 1299.27 2235.15 1305.35Z" stroke="#4472C4" stroke-width="3.4375" stroke-linecap="butt" stroke-linejoin="round" stroke-miterlimit="10" stroke-opacity="1" fill="#4472C4" fill-rule="nonzero" fill-opacity="1"/><path d="M2325.15 1384.35C2325.15 1390.42 2320.23 1395.35 2314.15 1395.35 2308.08 1395.35 2303.15 1390.42 2303.15 1384.35 2303.15 1378.27 2308.08 1373.35 2314.15 1373.35 2320.23 1373.35 2325.15 1378.27 2325.15 1384.35Z" stroke="#4472C4" stroke-width="3.4375" stroke-linecap="butt" stroke-linejoin="round" stroke-miterlimit="10" stroke-opacity="1" fill="#4472C4" fill-rule="nonzero" fill-opacity="1"/><path d="M2415.15 1389.35C2415.15 1395.42 2410.23 1400.35 2404.15 1400.35 2398.08 1400.35 2393.15 1395.42 2393.15 1389.35 2393.15 1383.27 2398.08 1378.35 2404.15 1378.35 2410.23 1378.35 2415.15 1383.27 2415.15 1389.35Z" stroke="#4472C4" stroke-width="3.4375" stroke-linecap="butt" stroke-linejoin="round" stroke-miterlimit="10" stroke-opacity="1" fill="#4472C4" fill-rule="nonzero" fill-opacity="1"/><path d="M2504.15 1397.35C2504.15 1403.42 2499.23 1408.35 2493.15 1408.35 2487.08 1408.35 2482.15 1403.42 2482.15 1397.35 2482.15 1391.27 2487.08 1386.35 2493.15 1386.35 2499.23 1386.35 2504.15 1391.27 2504.15 1397.35Z" stroke="#4472C4" stroke-width="3.4375" stroke-linecap="butt" stroke-linejoin="round" stroke-miterlimit="10" stroke-opacity="1" fill="#4472C4" fill-rule="nonzero" fill-opacity="1"/><path d="M2594.15 1393.35C2594.15 1399.42 2589.23 1404.35 2583.15 1404.35 2577.08 1404.35 2572.15 1399.42 2572.15 1393.35 2572.15 1387.27 2577.08 1382.35 2583.15 1382.35 2589.23 1382.35 2594.15 1387.27 2594.15 1393.35Z" stroke="#4472C4" stroke-width="3.4375" stroke-linecap="butt" stroke-linejoin="round" stroke-miterlimit="10" stroke-opacity="1" fill="#4472C4" fill-rule="nonzero" fill-opacity="1"/><path d="M2684.15 1401.35C2684.15 1407.42 2679.23 1412.35 2673.15 1412.35 2667.08 1412.35 2662.15 1407.42 2662.15 1401.35 2662.15 1395.27 2667.08 1390.35 2673.15 1390.35 2679.23 1390.35 2684.15 1395.27 2684.15 1401.35Z" stroke="#4472C4" stroke-width="3.4375" stroke-linecap="butt" stroke-linejoin="round" stroke-miterlimit="10" stroke-opacity="1" fill="#4472C4" fill-rule="nonzero" fill-opacity="1"/><path d="M2863.15 1397.35C2863.15 1403.42 2858.23 1408.35 2852.15 1408.35 2846.08 1408.35 2841.15 1403.42 2841.15 1397.35 2841.15 1391.27 2846.08 1386.35 2852.15 1386.35 2858.23 1386.35 2863.15 1391.27 2863.15 1397.35Z" stroke="#4472C4" stroke-width="3.4375" stroke-linecap="butt" stroke-linejoin="round" stroke-miterlimit="10" stroke-opacity="1" fill="#4472C4" fill-rule="nonzero" fill-opacity="1"/><path d="M3042.15 1414.35C3042.15 1420.42 3037.23 1425.35 3031.15 1425.35 3025.08 1425.35 3020.15 1420.42 3020.15 1414.35 3020.15 1408.27 3025.08 1403.35 3031.15 1403.35 3037.23 1403.35 3042.15 1408.27 3042.15 1414.35Z" stroke="#4472C4" stroke-width="3.4375" stroke-linecap="butt" stroke-linejoin="round" stroke-miterlimit="10" stroke-opacity="1" fill="#4472C4" fill-rule="nonzero" fill-opacity="1"/><path d="M3222.15 1414.35C3222.15 1420.42 3217.23 1425.35 3211.15 1425.35 3205.08 1425.35 3200.15 1420.42 3200.15 1414.35 3200.15 1408.27 3205.08 1403.35 3211.15 1403.35 3217.23 1403.35 3222.15 1408.27 3222.15 1414.35Z" stroke="#4472C4" stroke-width="3.4375" stroke-linecap="butt" stroke-linejoin="round" stroke-miterlimit="10" stroke-opacity="1" fill="#4472C4" fill-rule="nonzero" fill-opacity="1"/><path d="M3401.15 1418.35C3401.15 1424.42 3396.23 1429.35 3390.15 1429.35 3384.08 1429.35 3379.15 1424.42 3379.15 1418.35 3379.15 1412.27 3384.08 1407.35 3390.15 1407.35 3396.23 1407.35 3401.15 1412.27 3401.15 1418.35Z" stroke="#4472C4" stroke-width="3.4375" stroke-linecap="butt" stroke-linejoin="round" stroke-miterlimit="10" stroke-opacity="1" fill="#4472C4" fill-rule="nonzero" fill-opacity="1"/><path d="M3491.15 1413.35C3491.15 1419.42 3486.23 1424.35 3480.15 1424.35 3474.08 1424.35 3469.15 1419.42 3469.15 1413.35 3469.15 1407.27 3474.08 1402.35 3480.15 1402.35 3486.23 1402.35 3491.15 1407.27 3491.15 1413.35Z" stroke="#4472C4" stroke-width="3.4375" stroke-linecap="butt" stroke-linejoin="round" stroke-miterlimit="10" stroke-opacity="1" fill="#4472C4" fill-rule="nonzero" fill-opacity="1"/><path d="M3760.15 1419.35C3760.15 1425.42 3755.23 1430.35 3749.15 1430.35 3743.08 1430.35 3738.15 1425.42 3738.15 1419.35 3738.15 1413.27 3743.08 1408.35 3749.15 1408.35 3755.23 1408.35 3760.15 1413.27 3760.15 1419.35Z" stroke="#4472C4" stroke-width="3.4375" stroke-linecap="butt" stroke-linejoin="round" stroke-miterlimit="10" stroke-opacity="1" fill="#4472C4" fill-rule="nonzero" fill-opacity="1"/></g><g clip-path="url(#clip7)"><path d="M1644.93 577.228 1644.93 577.235C1645.08 579.127 1643.67 580.783 1641.77 580.934 1639.88 581.084 1638.22 579.672 1638.07 577.779L1638.07 577.772C1637.92 575.88 1639.34 574.224 1641.23 574.073 1643.12 573.923 1644.78 575.335 1644.93 577.228ZM1646.02 590.941 1646.02 590.948C1646.17 592.841 1644.76 594.497 1642.86 594.647 1640.97 594.798 1639.31 593.385 1639.16 591.493L1639.16 591.486C1639.01 589.593 1640.42 587.937 1642.32 587.787 1644.21 587.637 1645.87 589.049 1646.02 590.941ZM1647.11 604.655 1647.11 604.662C1647.26 606.554 1645.84 608.211 1643.95 608.361 1642.06 608.511 1640.4 607.099 1640.25 605.206L1640.25 605.2C1640.1 603.307 1641.51 601.651 1643.41 601.501 1645.3 601.35 1646.96 602.763 1647.11 604.655ZM1648.2 618.369 1648.2 618.376C1648.35 620.268 1646.93 621.924 1645.04 622.075 1643.15 622.225 1641.49 620.813 1641.34 618.92L1641.34 618.913C1641.19 617.021 1642.6 615.365 1644.5 615.214 1646.39 615.064 1648.05 616.476 1648.2 618.369ZM1649.24 632.129 1649.24 632.136C1649.37 634.03 1647.93 635.669 1646.04 635.795 1644.15 635.921 1642.51 634.488 1642.38 632.594L1642.38 632.587C1642.25 630.693 1643.69 629.055 1645.58 628.928 1647.48 628.802 1649.11 630.235 1649.24 632.129ZM1650.15 645.856 1650.16 645.863C1650.28 647.757 1648.85 649.395 1646.95 649.521 1645.06 649.648 1643.42 648.214 1643.3 646.32L1643.3 646.313C1643.17 644.419 1644.6 642.781 1646.5 642.655 1648.39 642.528 1650.03 643.961 1650.15 645.856ZM1651.07 659.582 1651.07 659.589C1651.2 661.483 1649.76 663.121 1647.87 663.248 1645.98 663.374 1644.34 661.941 1644.21 660.047L1644.21 660.04C1644.08 658.146 1645.52 656.507 1647.41 656.381 1649.31 656.255 1650.94 657.688 1651.07 659.582ZM1651.98 673.28 1651.98 673.287C1652.13 675.18 1650.71 676.83 1648.81 676.972 1646.92 677.114 1645.27 675.694 1645.13 673.801L1645.13 673.794C1644.99 671.901 1646.41 670.251 1648.3 670.109 1650.19 669.968 1651.84 671.387 1651.98 673.28ZM1653.01 686.999 1653.01 687.006C1653.15 688.899 1651.73 690.549 1649.84 690.69 1647.95 690.832 1646.3 689.413 1646.16 687.519L1646.16 687.513C1646.01 685.619 1647.43 683.97 1649.33 683.828 1651.22 683.686 1652.87 685.106 1653.01 686.999ZM1654.04 700.717 1654.04 700.724C1654.18 702.617 1652.76 704.267 1650.87 704.409 1648.98 704.551 1647.33 703.131 1647.19 701.238L1647.19 701.231C1647.04 699.338 1648.46 697.688 1650.36 697.546 1652.25 697.404 1653.9 698.824 1654.04 700.717ZM1655.1 714.309 1655.1 714.316C1655.31 716.203 1653.95 717.902 1652.06 718.112 1650.18 718.321 1648.48 716.962 1648.27 715.075L1648.27 715.068C1648.06 713.181 1649.42 711.482 1651.3 711.272 1653.19 711.062 1654.89 712.422 1655.1 714.309ZM1656.62 727.982 1656.62 727.989C1656.83 729.875 1655.47 731.575 1653.58 731.785 1651.7 731.994 1650 730.634 1649.79 728.748L1649.79 728.741C1649.58 726.854 1650.94 725.154 1652.82 724.945 1654.71 724.735 1656.41 726.095 1656.62 727.982ZM1658.14 741.654 1658.14 741.661C1658.35 743.548 1656.99 745.247 1655.1 745.457 1653.22 745.667 1651.52 744.307 1651.31 742.421L1651.31 742.414C1651.1 740.527 1652.46 738.827 1654.34 738.617 1656.23 738.408 1657.93 739.767 1658.14 741.654ZM1659.56 755.397 1659.56 755.404C1659.74 757.294 1658.35 758.97 1656.46 759.147 1654.57 759.324 1652.89 757.935 1652.71 756.045L1652.71 756.038C1652.54 754.148 1653.92 752.472 1655.81 752.295 1657.7 752.118 1659.38 753.507 1659.56 755.397ZM1660.84 769.093 1660.84 769.1C1661.02 770.99 1659.63 772.666 1657.74 772.844 1655.85 773.021 1654.17 771.633 1654 769.742L1654 769.736C1653.82 767.845 1655.21 766.169 1657.1 765.992 1658.99 765.815 1660.66 767.203 1660.84 769.093ZM1662.18 782.634 1662.18 782.641C1662.44 784.521 1661.12 786.256 1659.24 786.515 1657.36 786.775 1655.63 785.46 1655.37 783.579L1655.37 783.573C1655.11 781.692 1656.42 779.957 1658.3 779.698 1660.18 779.439 1661.92 780.753 1662.18 782.634ZM1664.06 796.262 1664.06 796.269C1664.32 798.149 1663 799.884 1661.12 800.143 1659.24 800.402 1657.51 799.088 1657.25 797.207L1657.25 797.2C1656.99 795.32 1658.3 793.585 1660.18 793.326 1662.06 793.067 1663.8 794.381 1664.06 796.262ZM1665.94 809.89 1665.94 809.896C1666.2 811.777 1664.88 813.512 1663 813.771 1661.12 814.03 1659.39 812.716 1659.13 810.835L1659.13 810.828C1658.87 808.948 1660.18 807.213 1662.06 806.954 1663.94 806.694 1665.68 808.009 1665.94 809.89ZM1667.47 823.651 1667.47 823.658C1667.68 825.545 1666.32 827.245 1664.44 827.454 1662.55 827.664 1660.85 826.305 1660.64 824.418L1660.64 824.411C1660.43 822.524 1661.79 820.824 1663.68 820.615 1665.56 820.405 1667.26 821.764 1667.47 823.651ZM1668.99 837.277 1668.99 837.284C1669.22 839.168 1667.89 840.886 1666 841.121 1664.12 841.357 1662.4 840.021 1662.17 838.137L1662.17 838.13C1661.93 836.246 1663.27 834.528 1665.15 834.293 1667.03 834.057 1668.75 835.393 1668.99 837.277ZM1670.69 850.928 1670.69 850.935C1670.93 852.818 1669.59 854.536 1667.71 854.772 1665.83 855.007 1664.11 853.671 1663.87 851.787L1663.87 851.781C1663.64 849.897 1664.97 848.179 1666.86 847.943 1668.74 847.708 1670.46 849.044 1670.69 850.928ZM1672.56 864.361 1672.56 864.368C1672.9 866.236 1671.67 868.025 1669.8 868.364 1667.93 868.704 1666.14 867.464 1665.8 865.597L1665.8 865.59C1665.46 863.722 1666.7 861.933 1668.57 861.593 1670.44 861.254 1672.22 862.493 1672.56 864.361ZM1675.02 877.896 1675.03 877.903C1675.37 879.771 1674.13 881.56 1672.26 881.899 1670.39 882.239 1668.6 880.999 1668.26 879.132L1668.26 879.125C1667.92 877.257 1669.16 875.468 1671.03 875.128 1672.9 874.789 1674.69 876.028 1675.02 877.896ZM1677.18 891.612 1677.18 891.619C1677.45 893.498 1676.15 895.239 1674.27 895.508 1672.39 895.776 1670.65 894.47 1670.38 892.591L1670.38 892.584C1670.11 890.704 1671.41 888.963 1673.29 888.695 1675.17 888.427 1676.91 889.733 1677.18 891.612ZM1679.14 905.178 1679.14 905.185C1679.43 907.06 1678.15 908.82 1676.28 909.116 1674.4 909.412 1672.64 908.132 1672.35 906.257L1672.35 906.25C1672.05 904.375 1673.33 902.614 1675.21 902.318 1677.08 902.023 1678.84 903.303 1679.14 905.178ZM1681.28 918.767 1681.28 918.773C1681.58 920.649 1680.3 922.409 1678.42 922.705 1676.55 923.001 1674.79 921.72 1674.49 919.845L1674.49 919.838C1674.2 917.963 1675.48 916.203 1677.35 915.907 1679.23 915.611 1680.99 916.891 1681.28 918.767ZM1684.07 931.969 1684.07 931.976C1684.51 933.824 1683.36 935.674 1681.51 936.108 1679.67 936.542 1677.81 935.396 1677.38 933.548L1677.38 933.541C1676.95 931.693 1678.09 929.843 1679.94 929.409 1681.79 928.975 1683.64 930.121 1684.07 931.969ZM1686.94 945.614 1686.94 945.621C1687.27 947.49 1686.03 949.273 1684.16 949.604 1682.29 949.934 1680.5 948.686 1680.17 946.817L1680.17 946.81C1679.84 944.94 1681.09 943.157 1682.96 942.827 1684.83 942.496 1686.61 943.744 1686.94 945.614ZM1689.37 959.074 1689.37 959.081C1689.74 960.942 1688.54 962.754 1686.68 963.127 1684.81 963.5 1683 962.294 1682.63 960.432L1682.63 960.426C1682.26 958.564 1683.46 956.753 1685.32 956.379 1687.18 956.006 1689 957.213 1689.37 959.074ZM1692.06 972.284 1692.06 972.291C1692.58 974.117 1691.52 976.018 1689.7 976.539 1687.87 977.059 1685.97 976 1685.45 974.174L1685.45 974.168C1684.93 972.342 1685.99 970.44 1687.81 969.92 1689.64 969.4 1691.54 970.458 1692.06 972.284ZM1695.84 985.512 1695.84 985.518C1696.36 987.344 1695.3 989.246 1693.48 989.766 1691.65 990.286 1689.75 989.228 1689.23 987.402L1689.23 987.395C1688.71 985.569 1689.77 983.668 1691.59 983.147 1693.42 982.627 1695.32 983.686 1695.84 985.512ZM1698.94 998.841 1698.94 998.847C1699.5 1000.66 1698.48 1002.59 1696.67 1003.14 1694.85 1003.7 1692.93 1002.68 1692.37 1000.87L1692.37 1000.86C1691.81 999.046 1692.83 997.123 1694.64 996.565 1696.46 996.007 1698.38 997.026 1698.94 998.841ZM1703.01 1012.17 1703.01 1012.18C1703.47 1014.02 1702.35 1015.89 1700.51 1016.35 1698.67 1016.81 1696.8 1015.69 1696.34 1013.85L1696.34 1013.84C1695.88 1012 1697 1010.13 1698.84 1009.67 1700.68 1009.21 1702.55 1010.33 1703.01 1012.17ZM1706.37 1025.44 1706.37 1025.44C1706.87 1027.28 1705.79 1029.17 1703.96 1029.67 1702.12 1030.17 1700.23 1029.09 1699.73 1027.25L1699.73 1027.25C1699.23 1025.42 1700.31 1023.53 1702.14 1023.03 1703.98 1022.53 1705.87 1023.61 1706.37 1025.44ZM1710.32 1038.19 1710.32 1038.19C1711.03 1039.96 1710.17 1041.96 1708.4 1042.66 1706.64 1043.36 1704.64 1042.5 1703.94 1040.74L1703.93 1040.73C1703.23 1038.97 1704.09 1036.97 1705.85 1036.27 1707.62 1035.56 1709.62 1036.42 1710.32 1038.19ZM1714.92 1051.46 1714.92 1051.47C1715.47 1053.28 1714.44 1055.2 1712.62 1055.75 1710.8 1056.29 1708.88 1055.26 1708.34 1053.44L1708.34 1053.43C1707.79 1051.61 1708.82 1049.7 1710.64 1049.15 1712.46 1048.61 1714.38 1049.64 1714.92 1051.46ZM1718.73 1064.22 1718.74 1064.23C1719.51 1065.96 1718.73 1067.99 1716.99 1068.77 1715.26 1069.54 1713.23 1068.76 1712.46 1067.02L1712.45 1067.02C1711.68 1065.28 1712.46 1063.25 1714.2 1062.48 1715.93 1061.71 1717.96 1062.49 1718.73 1064.22ZM1724.18 1077.08 1724.18 1077.08C1724.85 1078.86 1723.95 1080.84 1722.17 1081.51 1720.39 1082.17 1718.41 1081.27 1717.74 1079.49L1717.74 1079.48C1717.08 1077.71 1717.98 1075.73 1719.76 1075.06 1721.53 1074.39 1723.52 1075.3 1724.18 1077.08ZM1729.44 1089.56 1729.44 1089.56C1730.21 1091.3 1729.43 1093.33 1727.7 1094.1 1725.96 1094.87 1723.93 1094.09 1723.16 1092.36L1723.16 1092.35C1722.39 1090.62 1723.17 1088.58 1724.9 1087.81 1726.63 1087.04 1728.67 1087.82 1729.44 1089.56ZM1734.71 1102.48 1734.71 1102.49C1735.38 1104.27 1734.47 1106.25 1732.7 1106.91 1730.92 1107.58 1728.94 1106.68 1728.27 1104.9L1728.27 1104.89C1727.6 1103.12 1728.51 1101.13 1730.28 1100.47 1732.06 1099.8 1734.04 1100.71 1734.71 1102.48ZM1740.76 1114.62 1740.76 1114.63C1741.51 1116.37 1740.7 1118.39 1738.96 1119.14 1737.21 1119.89 1735.19 1119.08 1734.45 1117.34L1734.44 1117.33C1733.69 1115.58 1734.5 1113.56 1736.25 1112.82 1737.99 1112.07 1740.01 1112.88 1740.76 1114.62ZM1746.58 1126.37 1746.58 1126.37C1747.63 1127.95 1747.2 1130.09 1745.62 1131.14 1744.04 1132.19 1741.91 1131.76 1740.86 1130.18L1740.85 1130.18C1739.8 1128.6 1740.23 1126.46 1741.81 1125.41 1743.39 1124.36 1745.52 1124.79 1746.58 1126.37ZM1753.49 1138.72 1753.49 1138.72C1754.34 1140.42 1753.66 1142.48 1751.96 1143.34 1750.27 1144.19 1748.2 1143.5 1747.35 1141.81L1747.35 1141.8C1746.49 1140.1 1747.18 1138.04 1748.88 1137.18 1750.57 1136.33 1752.64 1137.02 1753.49 1138.72ZM1760.41 1150.28 1760.42 1150.29C1761.39 1151.91 1760.86 1154.03 1759.23 1155 1757.61 1155.98 1755.49 1155.45 1754.52 1153.82L1754.51 1153.81C1753.54 1152.19 1754.07 1150.07 1755.7 1149.1 1757.32 1148.12 1759.44 1148.65 1760.41 1150.28ZM1768.2 1161.59 1768.2 1161.59C1769.17 1163.22 1768.65 1165.33 1767.02 1166.31 1765.39 1167.28 1763.28 1166.75 1762.3 1165.13L1762.3 1165.12C1761.32 1163.49 1761.85 1161.38 1763.48 1160.4 1765.11 1159.43 1767.22 1159.96 1768.2 1161.59ZM1775.79 1171.91 1775.8 1171.92C1777.14 1173.26 1777.14 1175.44 1775.79 1176.78 1774.45 1178.12 1772.27 1178.12 1770.93 1176.77L1770.93 1176.77C1769.59 1175.42 1769.59 1173.25 1770.93 1171.91 1772.28 1170.57 1774.45 1170.57 1775.79 1171.91ZM1783.86 1182.98 1783.87 1182.99C1785.21 1184.33 1785.21 1186.51 1783.86 1187.85 1782.52 1189.19 1780.34 1189.19 1779 1187.84L1779 1187.84C1777.65 1186.49 1777.66 1184.32 1779 1182.98 1780.35 1181.64 1782.52 1181.64 1783.86 1182.98ZM1792.52 1193.64 1792.52 1193.64C1793.86 1194.99 1793.86 1197.16 1792.52 1198.5 1791.17 1199.85 1789 1199.84 1787.66 1198.5L1787.65 1198.49C1786.31 1197.15 1786.31 1194.97 1787.66 1193.63 1789 1192.29 1791.18 1192.29 1792.52 1193.64ZM1802.25 1203.37 1802.25 1203.37C1803.59 1204.71 1803.59 1206.89 1802.25 1208.23 1800.9 1209.57 1798.73 1209.57 1797.38 1208.23L1797.38 1208.22C1796.04 1206.88 1796.04 1204.7 1797.39 1203.36 1798.73 1202.02 1800.91 1202.02 1802.25 1203.37ZM1811.97 1213.09 1811.98 1213.1C1813.32 1214.44 1813.32 1216.62 1811.97 1217.96 1810.63 1219.3 1808.45 1219.3 1807.11 1217.95L1807.11 1217.95C1805.77 1216.61 1805.77 1214.43 1807.11 1213.09 1808.46 1211.75 1810.63 1211.75 1811.97 1213.09ZM1821.68 1222.08 1821.68 1222.09C1823.21 1223.22 1823.52 1225.38 1822.39 1226.9 1821.25 1228.42 1819.1 1228.73 1817.57 1227.6L1817.57 1227.59C1816.05 1226.46 1815.73 1224.31 1816.87 1222.78 1818 1221.26 1820.16 1220.95 1821.68 1222.08ZM1832.73 1230.85 1832.74 1230.86C1834.08 1232.2 1834.07 1234.38 1832.73 1235.72 1831.39 1237.06 1829.21 1237.06 1827.87 1235.71L1827.86 1235.71C1826.52 1234.36 1826.53 1232.19 1827.87 1230.84 1829.21 1229.5 1831.39 1229.51 1832.73 1230.85ZM1842.83 1238.92 1842.83 1238.93C1844.41 1239.98 1844.84 1242.12 1843.78 1243.69 1842.72 1245.27 1840.59 1245.69 1839.01 1244.64L1839 1244.64C1837.43 1243.58 1837 1241.44 1838.06 1239.87 1839.12 1238.29 1841.25 1237.87 1842.83 1238.92ZM1854.11 1246.78 1854.12 1246.78C1855.7 1247.84 1856.12 1249.97 1855.07 1251.55 1854.01 1253.13 1851.87 1253.55 1850.3 1252.5L1850.29 1252.49C1848.71 1251.44 1848.29 1249.3 1849.35 1247.72 1850.4 1246.15 1852.54 1245.72 1854.11 1246.78ZM1865.24 1254.04 1865.25 1254.04C1866.95 1254.89 1867.64 1256.95 1866.79 1258.65 1865.95 1260.35 1863.88 1261.04 1862.18 1260.2L1862.18 1260.19C1860.48 1259.35 1859.79 1257.28 1860.63 1255.58 1861.48 1253.88 1863.54 1253.19 1865.24 1254.04ZM1877.41 1261.31 1877.41 1261.31C1878.99 1262.37 1879.41 1264.5 1878.36 1266.08 1877.3 1267.66 1875.17 1268.08 1873.59 1267.02L1873.58 1267.02C1872 1265.96 1871.58 1263.83 1872.64 1262.25 1873.69 1260.67 1875.83 1260.25 1877.41 1261.31ZM1889.13 1268.46 1889.14 1268.46C1890.71 1269.52 1891.14 1271.65 1890.08 1273.23 1889.03 1274.81 1886.89 1275.23 1885.31 1274.17L1885.31 1274.17C1883.73 1273.11 1883.31 1270.98 1884.36 1269.4 1885.42 1267.82 1887.55 1267.4 1889.13 1268.46ZM1900.98 1274.41 1900.98 1274.41C1902.68 1275.26 1903.37 1277.32 1902.53 1279.02 1901.68 1280.72 1899.62 1281.41 1897.92 1280.56L1897.91 1280.56C1896.21 1279.71 1895.52 1277.65 1896.37 1275.95 1897.21 1274.25 1899.28 1273.56 1900.98 1274.41ZM1913.89 1279.96 1913.89 1279.97C1915.47 1281.02 1915.9 1283.16 1914.84 1284.73 1913.78 1286.31 1911.65 1286.73 1910.07 1285.68L1910.06 1285.67C1908.49 1284.62 1908.06 1282.48 1909.12 1280.91 1910.18 1279.33 1912.31 1278.91 1913.89 1279.96ZM1925.51 1285.23 1925.51 1285.24C1927.31 1285.83 1928.29 1287.78 1927.69 1289.58 1927.09 1291.38 1925.15 1292.36 1923.35 1291.76L1923.34 1291.76C1921.54 1291.16 1920.56 1289.21 1921.16 1287.41 1921.76 1285.61 1923.7 1284.63 1925.51 1285.23ZM1937.69 1290.78 1937.7 1290.78C1939.54 1291.24 1940.66 1293.11 1940.2 1294.95 1939.74 1296.79 1937.88 1297.91 1936.03 1297.45L1936.03 1297.45C1934.19 1296.99 1933.07 1295.12 1933.53 1293.28 1933.99 1291.44 1935.85 1290.32 1937.69 1290.78ZM1950.7 1295.63 1950.71 1295.63C1952.51 1296.23 1953.48 1298.18 1952.89 1299.98 1952.29 1301.78 1950.34 1302.76 1948.54 1302.16L1948.53 1302.16C1946.73 1301.56 1945.76 1299.61 1946.36 1297.81 1946.95 1296.01 1948.9 1295.03 1950.7 1295.63ZM1963.28 1300.43 1963.29 1300.43C1965.13 1300.89 1966.25 1302.76 1965.79 1304.6 1965.33 1306.44 1963.46 1307.56 1961.62 1307.1L1961.61 1307.1C1959.77 1306.64 1958.65 1304.77 1959.11 1302.93 1959.57 1301.09 1961.44 1299.97 1963.28 1300.43ZM1977.55 1304.74 1977.56 1304.74C1979.14 1305.8 1979.56 1307.93 1978.51 1309.51 1977.45 1311.09 1975.31 1311.51 1973.74 1310.46L1973.73 1310.45C1972.15 1309.4 1971.73 1307.26 1972.79 1305.68 1973.84 1304.11 1975.98 1303.68 1977.55 1304.74ZM1989.46 1309.22 1989.46 1309.22C1991.26 1309.82 1992.24 1311.76 1991.64 1313.56 1991.04 1315.37 1989.1 1316.34 1987.3 1315.74L1987.29 1315.74C1985.49 1315.14 1984.51 1313.2 1985.11 1311.4 1985.71 1309.59 1987.65 1308.62 1989.46 1309.22ZM2002.41 1312.96 2002.42 1312.96C2004.26 1313.42 2005.38 1315.29 2004.92 1317.13 2004.46 1318.97 2002.59 1320.09 2000.75 1319.63L2000.74 1319.63C1998.9 1319.17 1997.78 1317.3 1998.24 1315.46 1998.7 1313.62 2000.57 1312.5 2002.41 1312.96ZM2015.82 1317.01 2015.83 1317.01C2017.63 1317.61 2018.61 1319.55 2018.01 1321.35 2017.41 1323.16 2015.46 1324.13 2013.66 1323.53L2013.66 1323.53C2011.85 1322.93 2010.88 1320.99 2011.48 1319.18 2012.08 1317.38 2014.02 1316.41 2015.82 1317.01ZM2029.08 1320.09 2029.08 1320.09C2030.89 1320.69 2031.86 1322.63 2031.27 1324.44 2030.67 1326.24 2028.72 1327.22 2026.92 1326.62L2026.92 1326.62C2025.11 1326.02 2024.14 1324.08 2024.73 1322.27 2025.33 1320.47 2027.27 1319.49 2029.08 1320.09ZM2042.3 1323.83 2042.31 1323.83C2044.11 1324.43 2045.09 1326.38 2044.49 1328.18 2043.9 1329.98 2041.95 1330.96 2040.15 1330.36L2040.14 1330.36C2038.34 1329.76 2037.36 1327.82 2037.96 1326.02 2038.56 1324.21 2040.5 1323.24 2042.3 1323.83ZM2055.6 1326.93 2055.6 1326.93C2057.41 1327.53 2058.38 1329.47 2057.79 1331.28 2057.19 1333.08 2055.25 1334.06 2053.44 1333.46L2053.44 1333.46C2051.63 1332.86 2050.66 1330.92 2051.25 1329.11 2051.85 1327.31 2053.8 1326.33 2055.6 1326.93ZM2068.98 1329.72 2068.99 1329.73C2070.79 1330.32 2071.77 1332.27 2071.17 1334.07 2070.57 1335.87 2068.63 1336.85 2066.83 1336.25L2066.82 1336.25C2065.02 1335.65 2064.04 1333.71 2064.64 1331.91 2065.23 1330.1 2067.18 1329.13 2068.98 1329.72ZM2082.24 1332.81 2082.24 1332.81C2084.04 1333.41 2085.02 1335.35 2084.43 1337.16 2083.83 1338.96 2081.88 1339.94 2080.08 1339.34L2080.07 1339.34C2078.27 1338.74 2077.3 1336.8 2077.89 1334.99 2078.49 1333.19 2080.43 1332.21 2082.24 1332.81ZM2095.27 1335.68 2095.27 1335.68C2097.12 1336.13 2098.25 1337.98 2097.8 1339.83 2097.35 1341.67 2095.49 1342.81 2093.65 1342.36L2093.64 1342.36C2091.8 1341.91 2090.66 1340.05 2091.11 1338.2 2091.56 1336.36 2093.42 1335.23 2095.27 1335.68ZM2109.03 1337.74 2109.03 1337.74C2110.84 1338.34 2111.81 1340.28 2111.22 1342.09 2110.62 1343.89 2108.68 1344.87 2106.87 1344.27L2106.87 1344.27C2105.06 1343.67 2104.09 1341.73 2104.68 1339.92 2105.28 1338.12 2107.23 1337.14 2109.03 1337.74ZM2122.09 1340.63 2122.1 1340.63C2123.94 1341.08 2125.07 1342.94 2124.63 1344.79 2124.18 1346.63 2122.32 1347.76 2120.47 1347.31L2120.47 1347.31C2118.62 1346.86 2117.49 1345 2117.94 1343.16 2118.39 1341.31 2120.25 1340.18 2122.09 1340.63ZM2135.82 1342.67 2135.83 1342.67C2137.63 1343.27 2138.61 1345.21 2138.01 1347.02 2137.41 1348.82 2135.47 1349.8 2133.67 1349.2L2133.66 1349.2C2131.86 1348.6 2130.88 1346.66 2131.48 1344.85 2132.07 1343.05 2134.02 1342.07 2135.82 1342.67ZM2148.11 1345.11 2148.12 1345.11C2150.02 1345.11 2151.56 1346.65 2151.56 1348.54 2151.56 1350.44 2150.02 1351.98 2148.12 1351.98L2148.11 1351.98C2146.21 1351.98 2144.67 1350.44 2144.67 1348.54 2144.67 1346.65 2146.21 1345.11 2148.11 1345.11ZM2161.58 1347.11 2161.59 1347.11C2163.49 1347.11 2165.03 1348.65 2165.03 1350.54 2165.03 1352.44 2163.49 1353.98 2161.59 1353.98L2161.58 1353.98C2159.68 1353.98 2158.15 1352.44 2158.15 1350.54 2158.15 1348.65 2159.68 1347.11 2161.58 1347.11ZM2175.82 1349.56 2175.83 1349.57C2177.67 1350.01 2178.81 1351.87 2178.36 1353.72 2177.91 1355.56 2176.05 1356.69 2174.2 1356.25L2174.2 1356.24C2172.35 1355.8 2171.22 1353.94 2171.67 1352.09 2172.12 1350.25 2173.98 1349.12 2175.82 1349.56ZM2189.56 1351.58 2189.56 1351.59C2191.37 1352.18 2192.34 1354.13 2191.75 1355.93 2191.15 1357.73 2189.21 1358.71 2187.4 1358.11L2187.4 1358.11C2185.59 1357.51 2184.62 1355.57 2185.21 1353.77 2185.81 1351.96 2187.76 1350.99 2189.56 1351.58ZM2201.96 1353.11 2201.97 1353.11C2203.86 1353.11 2205.4 1354.65 2205.4 1356.54 2205.4 1358.44 2203.86 1359.98 2201.97 1359.98L2201.96 1359.98C2200.06 1359.98 2198.52 1358.44 2198.52 1356.54 2198.52 1354.65 2200.06 1353.11 2201.96 1353.11ZM2215.43 1355.11 2215.44 1355.11C2217.34 1355.11 2218.87 1356.65 2218.87 1358.54 2218.87 1360.44 2217.34 1361.98 2215.44 1361.98L2215.43 1361.98C2213.53 1361.98 2211.99 1360.44 2211.99 1358.54 2211.99 1356.65 2213.53 1355.11 2215.43 1355.11ZM2228.86 1357.11 2228.87 1357.11C2230.77 1357.11 2232.31 1358.65 2232.31 1360.54 2232.31 1362.44 2230.77 1363.98 2228.87 1363.98L2228.86 1363.98C2226.96 1363.98 2225.42 1362.44 2225.42 1360.54 2225.42 1358.65 2226.96 1357.11 2228.86 1357.11ZM2243.49 1358.56 2243.5 1358.56C2245.3 1359.16 2246.28 1361.1 2245.68 1362.91 2245.08 1364.71 2243.14 1365.69 2241.34 1365.09L2241.33 1365.09C2239.53 1364.49 2238.55 1362.55 2239.15 1360.74 2239.74 1358.94 2241.69 1357.96 2243.49 1358.56ZM2255.93 1360.11 2255.94 1360.11C2257.83 1360.11 2259.37 1361.65 2259.37 1363.54 2259.37 1365.44 2257.83 1366.98 2255.94 1366.98L2255.93 1366.98C2254.03 1366.98 2252.49 1365.44 2252.49 1363.54 2252.49 1361.65 2254.03 1360.11 2255.93 1360.11ZM2269.44 1362.11 2269.45 1362.11C2271.34 1362.11 2272.88 1363.65 2272.88 1365.54 2272.88 1367.44 2271.34 1368.98 2269.45 1368.98L2269.44 1368.98C2267.54 1368.98 2266 1367.44 2266 1365.54 2266 1363.65 2267.54 1362.11 2269.44 1362.11ZM2283.07 1363.11 2283.08 1363.11C2284.98 1363.11 2286.52 1364.65 2286.52 1366.55 2286.52 1368.44 2284.98 1369.98 2283.08 1369.98L2283.07 1369.98C2281.17 1369.98 2279.64 1368.44 2279.64 1366.55 2279.64 1364.65 2281.17 1363.11 2283.07 1363.11ZM2296.54 1365.11 2296.55 1365.11C2298.45 1365.11 2299.99 1366.65 2299.99 1368.55 2299.99 1370.44 2298.45 1371.98 2296.55 1371.98L2296.54 1371.98C2294.65 1371.98 2293.11 1370.44 2293.11 1368.55 2293.11 1366.65 2294.65 1365.11 2296.54 1365.11ZM2310.18 1366.11 2310.18 1366.11C2312.08 1366.11 2313.62 1367.65 2313.62 1369.55 2313.62 1371.44 2312.08 1372.98 2310.18 1372.98L2310.18 1372.98C2308.28 1372.98 2306.74 1371.44 2306.74 1369.55 2306.74 1367.65 2308.28 1366.11 2310.18 1366.11ZM2324.56 1367.75 2324.56 1367.75C2326.41 1368.2 2327.54 1370.06 2327.09 1371.9 2326.64 1373.75 2324.78 1374.88 2322.94 1374.43L2322.93 1374.43C2321.09 1373.98 2319.96 1372.12 2320.41 1370.27 2320.85 1368.43 2322.71 1367.3 2324.56 1367.75ZM2337.32 1369.11 2337.33 1369.11C2339.23 1369.11 2340.77 1370.65 2340.77 1372.55 2340.77 1374.44 2339.23 1375.98 2337.33 1375.98L2337.32 1375.98C2335.42 1375.98 2333.89 1374.44 2333.89 1372.55 2333.89 1370.65 2335.42 1369.11 2337.32 1369.11ZM2350.92 1370.11 2350.92 1370.11C2352.82 1370.11 2354.36 1371.65 2354.36 1373.55 2354.36 1375.44 2352.82 1376.98 2350.92 1376.98L2350.92 1376.98C2349.02 1376.98 2347.48 1375.44 2347.48 1373.55 2347.48 1371.65 2349.02 1370.11 2350.92 1370.11ZM2365.49 1371.89 2365.5 1371.9C2367.3 1372.49 2368.28 1374.44 2367.68 1376.24 2367.09 1378.04 2365.14 1379.02 2363.34 1378.42L2363.33 1378.42C2361.53 1377.82 2360.55 1375.88 2361.15 1374.08 2361.75 1372.27 2363.69 1371.3 2365.49 1371.89ZM2378.84 1372.82 2378.85 1372.82C2380.69 1373.27 2381.83 1375.13 2381.38 1376.97 2380.93 1378.82 2379.07 1379.95 2377.22 1379.5L2377.22 1379.5C2375.37 1379.05 2374.24 1377.19 2374.69 1375.35 2375.14 1373.5 2377 1372.37 2378.84 1372.82ZM2391.62 1374.11 2391.62 1374.11C2393.52 1374.11 2395.06 1375.65 2395.06 1377.55 2395.06 1379.44 2393.52 1380.98 2391.62 1380.98L2391.62 1380.98C2389.72 1380.98 2388.18 1379.44 2388.18 1377.55 2388.18 1375.65 2389.72 1374.11 2391.62 1374.11ZM2405.25 1375.11 2405.26 1375.11C2407.16 1375.11 2408.7 1376.65 2408.7 1378.55 2408.7 1380.44 2407.16 1381.98 2405.26 1381.98L2405.25 1381.98C2403.35 1381.98 2401.81 1380.44 2401.81 1378.55 2401.81 1376.65 2403.35 1375.11 2405.25 1375.11ZM2418.85 1376.11 2418.85 1376.11C2420.75 1376.11 2422.29 1377.65 2422.29 1379.55 2422.29 1381.44 2420.75 1382.98 2418.85 1382.98L2418.85 1382.98C2416.95 1382.98 2415.41 1381.44 2415.41 1379.55 2415.41 1377.65 2416.95 1376.11 2418.85 1376.11ZM2432.48 1377.11 2432.49 1377.11C2434.38 1377.11 2435.92 1378.65 2435.92 1380.55 2435.92 1382.44 2434.38 1383.98 2432.49 1383.98L2432.48 1383.98C2430.58 1383.98 2429.04 1382.44 2429.04 1380.55 2429.04 1378.65 2430.58 1377.11 2432.48 1377.11ZM2446.07 1378.11 2446.08 1378.11C2447.98 1378.11 2449.52 1379.65 2449.52 1381.55 2449.52 1383.44 2447.98 1384.98 2446.08 1384.98L2446.07 1384.98C2444.18 1384.98 2442.64 1383.44 2442.64 1381.55 2442.64 1379.65 2444.18 1378.11 2446.07 1378.11ZM2460.48 1379.23 2460.48 1379.23C2462.33 1379.68 2463.46 1381.54 2463.01 1383.38 2462.56 1385.23 2460.7 1386.36 2458.86 1385.91L2458.85 1385.91C2457.01 1385.46 2455.88 1383.6 2456.33 1381.75 2456.77 1379.91 2458.63 1378.78 2460.48 1379.23ZM2473.3 1380.11 2473.31 1380.11C2475.21 1380.11 2476.75 1381.65 2476.75 1383.55 2476.75 1385.44 2475.21 1386.98 2473.31 1386.98L2473.3 1386.98C2471.4 1386.98 2469.86 1385.44 2469.86 1383.55 2469.86 1381.65 2471.4 1380.11 2473.3 1380.11ZM2486.94 1381.11 2486.94 1381.11C2488.84 1381.11 2490.38 1382.65 2490.38 1384.55 2490.38 1386.44 2488.84 1387.98 2486.94 1387.98L2486.94 1387.98C2485.04 1387.98 2483.5 1386.44 2483.5 1384.55 2483.5 1382.65 2485.04 1381.11 2486.94 1381.11ZM2500.53 1382.11 2500.54 1382.11C2502.44 1382.11 2503.97 1383.65 2503.97 1385.55 2503.97 1387.44 2502.44 1388.98 2500.54 1388.98L2500.53 1388.98C2498.63 1388.98 2497.09 1387.44 2497.09 1385.55 2497.09 1383.65 2498.63 1382.11 2500.53 1382.11ZM2514.16 1383.11 2514.17 1383.11C2516.07 1383.11 2517.61 1384.65 2517.61 1386.55 2517.61 1388.44 2516.07 1389.98 2514.17 1389.98L2514.16 1389.98C2512.27 1389.98 2510.73 1388.44 2510.73 1386.55 2510.73 1384.65 2512.27 1383.11 2514.16 1383.11ZM2527.76 1384.11 2527.77 1384.11C2529.66 1384.11 2531.2 1385.65 2531.2 1387.55 2531.2 1389.44 2529.66 1390.98 2527.77 1390.98L2527.76 1390.98C2525.86 1390.98 2524.32 1389.44 2524.32 1387.55 2524.32 1385.65 2525.86 1384.11 2527.76 1384.11ZM2541.39 1385.11 2541.4 1385.11C2543.3 1385.11 2544.84 1386.65 2544.84 1388.55 2544.84 1390.44 2543.3 1391.98 2541.4 1391.98L2541.39 1391.98C2539.49 1391.98 2537.95 1390.44 2537.95 1388.55 2537.95 1386.65 2539.49 1385.11 2541.39 1385.11ZM2555.03 1386.11 2555.03 1386.11C2556.93 1386.11 2558.47 1387.65 2558.47 1389.55 2558.47 1391.44 2556.93 1392.98 2555.03 1392.98L2555.03 1392.98C2553.13 1392.98 2551.59 1391.44 2551.59 1389.55 2551.59 1387.65 2553.13 1386.11 2555.03 1386.11ZM2569.81 1386.66 2569.82 1386.67C2571.62 1387.27 2572.59 1389.21 2571.99 1391.01 2571.39 1392.82 2569.44 1393.79 2567.64 1393.19L2567.63 1393.19C2565.83 1392.59 2564.86 1390.64 2565.46 1388.84 2566.06 1387.04 2568.01 1386.06 2569.81 1386.66ZM2582.38 1387.11 2582.38 1387.11C2584.28 1387.11 2585.82 1388.65 2585.82 1390.55 2585.82 1392.44 2584.28 1393.98 2582.38 1393.98L2582.38 1393.98C2580.48 1393.98 2578.94 1392.44 2578.94 1390.55 2578.94 1388.65 2580.48 1387.11 2582.38 1387.11ZM2595.97 1388.11 2595.98 1388.11C2597.88 1388.11 2599.42 1389.65 2599.42 1391.55 2599.42 1393.44 2597.88 1394.98 2595.98 1394.98L2595.97 1394.98C2594.07 1394.98 2592.53 1393.44 2592.53 1391.55 2592.53 1389.65 2594.07 1388.11 2595.97 1388.11ZM2609.61 1389.11 2609.61 1389.11C2611.51 1389.11 2613.05 1390.65 2613.05 1392.55 2613.05 1394.44 2611.51 1395.98 2609.61 1395.98L2609.61 1395.98C2607.71 1395.98 2606.17 1394.44 2606.17 1392.55 2606.17 1390.65 2607.71 1389.11 2609.61 1389.11ZM2624.36 1389.85 2624.37 1389.85C2626.17 1390.45 2627.14 1392.4 2626.54 1394.2 2625.94 1396 2623.99 1396.97 2622.19 1396.37L2622.18 1396.37C2620.38 1395.77 2619.41 1393.82 2620.01 1392.02 2620.61 1390.22 2622.56 1389.25 2624.36 1389.85ZM2636.96 1390.11 2636.96 1390.11C2638.86 1390.11 2640.4 1391.65 2640.4 1393.55 2640.4 1395.44 2638.86 1396.98 2636.96 1396.98L2636.96 1396.98C2635.06 1396.98 2633.52 1395.44 2633.52 1393.55 2633.52 1391.65 2635.06 1390.11 2636.96 1390.11ZM2650.59 1391.11 2650.6 1391.11C2652.5 1391.11 2654.04 1392.65 2654.04 1394.55 2654.04 1396.44 2652.5 1397.98 2650.6 1397.98L2650.59 1397.98C2648.69 1397.98 2647.15 1396.44 2647.15 1394.55 2647.15 1392.65 2648.69 1391.11 2650.59 1391.11ZM2665.08 1391.88 2665.08 1391.88C2666.93 1392.33 2668.06 1394.18 2667.61 1396.03 2667.16 1397.87 2665.3 1399.01 2663.46 1398.56L2663.45 1398.56C2661.61 1398.11 2660.48 1396.25 2660.93 1394.4 2661.37 1392.56 2663.23 1391.43 2665.08 1391.88ZM2677.98 1392.11 2677.99 1392.11C2679.89 1392.11 2681.43 1393.65 2681.43 1395.55 2681.43 1397.44 2679.89 1398.98 2677.99 1398.98L2677.98 1398.98C2676.08 1398.98 2674.54 1397.44 2674.54 1395.55 2674.54 1393.65 2676.08 1392.11 2677.98 1392.11ZM2691.58 1393.11 2691.58 1393.11C2693.48 1393.11 2695.02 1394.65 2695.02 1396.55 2695.02 1398.44 2693.48 1399.98 2691.58 1399.98L2691.58 1399.98C2689.68 1399.98 2688.14 1398.44 2688.14 1396.55 2688.14 1394.65 2689.68 1393.11 2691.58 1393.11ZM2706.28 1394.15 2706.29 1394.15C2708.09 1394.76 2709.06 1396.7 2708.46 1398.5 2707.86 1400.3 2705.91 1401.28 2704.11 1400.68L2704.11 1400.67C2702.3 1400.07 2701.33 1398.13 2701.93 1396.33 2702.53 1394.53 2704.48 1393.55 2706.28 1394.15ZM2718.93 1394.11 2718.93 1394.11C2720.83 1394.11 2722.37 1395.65 2722.37 1397.55 2722.37 1399.44 2720.83 1400.98 2718.93 1400.98L2718.93 1400.98C2717.03 1400.98 2715.49 1399.44 2715.49 1397.55 2715.49 1395.65 2717.03 1394.11 2718.93 1394.11ZM2732.52 1395.11 2732.53 1395.11C2734.43 1395.11 2735.97 1396.65 2735.97 1398.55 2735.97 1400.44 2734.43 1401.98 2732.53 1401.98L2732.52 1401.98C2730.62 1401.98 2729.09 1400.44 2729.09 1398.55 2729.09 1396.65 2730.62 1395.11 2732.52 1395.11ZM2746.28 1395.11 2746.29 1395.11C2748.18 1395.11 2749.72 1396.65 2749.72 1398.55 2749.72 1400.44 2748.18 1401.98 2746.29 1401.98L2746.28 1401.98C2744.38 1401.98 2742.84 1400.44 2742.84 1398.55 2742.84 1396.65 2744.38 1395.11 2746.28 1395.11ZM2759.87 1396.11 2759.88 1396.11C2761.78 1396.11 2763.32 1397.65 2763.32 1399.55 2763.32 1401.44 2761.78 1402.98 2759.88 1402.98L2759.87 1402.98C2757.98 1402.98 2756.44 1401.44 2756.44 1399.55 2756.44 1397.65 2757.98 1396.11 2759.87 1396.11ZM2773.47 1397.11 2773.48 1397.11C2775.37 1397.11 2776.91 1398.65 2776.91 1400.55 2776.91 1402.44 2775.37 1403.98 2773.48 1403.98L2773.47 1403.98C2771.57 1403.98 2770.03 1402.44 2770.03 1400.55 2770.03 1398.65 2771.57 1397.11 2773.47 1397.11ZM2787.23 1397.11 2787.23 1397.11C2789.13 1397.11 2790.67 1398.65 2790.67 1400.55 2790.67 1402.44 2789.13 1403.98 2787.23 1403.98L2787.23 1403.98C2785.33 1403.98 2783.79 1402.44 2783.79 1400.55 2783.79 1398.65 2785.33 1397.11 2787.23 1397.11ZM2800.82 1398.11 2800.83 1398.11C2802.73 1398.11 2804.26 1399.65 2804.26 1401.55 2804.26 1403.44 2802.73 1404.98 2800.83 1404.98L2800.82 1404.98C2798.92 1404.98 2797.38 1403.44 2797.38 1401.55 2797.38 1399.65 2798.92 1398.11 2800.82 1398.11ZM2814.58 1398.11 2814.58 1398.11C2816.48 1398.11 2818.02 1399.65 2818.02 1401.55 2818.02 1403.44 2816.48 1404.98 2814.58 1404.98L2814.58 1404.98C2812.68 1404.98 2811.14 1403.44 2811.14 1401.55 2811.14 1399.65 2812.68 1398.11 2814.58 1398.11ZM2828.17 1399.11 2828.18 1399.11C2830.08 1399.11 2831.62 1400.65 2831.62 1402.55 2831.62 1404.44 2830.08 1405.98 2828.18 1405.98L2828.17 1405.98C2826.27 1405.98 2824.73 1404.44 2824.73 1402.55 2824.73 1400.65 2826.27 1399.11 2828.17 1399.11ZM2841.93 1399.11 2841.94 1399.11C2843.83 1399.11 2845.37 1400.65 2845.37 1402.55 2845.37 1404.44 2843.83 1405.98 2841.94 1405.98L2841.93 1405.98C2840.03 1405.98 2838.49 1404.44 2838.49 1402.55 2838.49 1400.65 2840.03 1399.11 2841.93 1399.11ZM2855.52 1400.11 2855.53 1400.11C2857.43 1400.11 2858.97 1401.65 2858.97 1403.55 2858.97 1405.44 2857.43 1406.98 2855.53 1406.98L2855.52 1406.98C2853.62 1406.98 2852.09 1405.44 2852.09 1403.55 2852.09 1401.65 2853.62 1400.11 2855.52 1400.11ZM2869.28 1400.11 2869.29 1400.11C2871.19 1400.11 2872.72 1401.65 2872.72 1403.55 2872.72 1405.44 2871.19 1406.98 2869.29 1406.98L2869.28 1406.98C2867.38 1406.98 2865.84 1405.44 2865.84 1403.55 2865.84 1401.65 2867.38 1400.11 2869.28 1400.11ZM2882.91 1401.11 2882.92 1401.11C2884.82 1401.11 2886.36 1402.65 2886.36 1404.55 2886.36 1406.44 2884.82 1407.98 2882.92 1407.98L2882.91 1407.98C2881.02 1407.98 2879.48 1406.44 2879.48 1404.55 2879.48 1402.65 2881.02 1401.11 2882.91 1401.11ZM2896.67 1401.11 2896.68 1401.11C2898.58 1401.11 2900.11 1402.65 2900.11 1404.55 2900.11 1406.44 2898.58 1407.98 2896.68 1407.98L2896.67 1407.98C2894.77 1407.98 2893.23 1406.44 2893.23 1404.55 2893.23 1402.65 2894.77 1401.11 2896.67 1401.11ZM2910.3 1402.11 2910.31 1402.11C2912.21 1402.11 2913.75 1403.65 2913.75 1405.55 2913.75 1407.44 2912.21 1408.98 2910.31 1408.98L2910.3 1408.98C2908.41 1408.98 2906.87 1407.44 2906.87 1405.55 2906.87 1403.65 2908.41 1402.11 2910.3 1402.11ZM2924.06 1402.11 2924.07 1402.11C2925.97 1402.11 2927.51 1403.65 2927.51 1405.55 2927.51 1407.44 2925.97 1408.98 2924.07 1408.98L2924.06 1408.98C2922.16 1408.98 2920.62 1407.44 2920.62 1405.55 2920.62 1403.65 2922.16 1402.11 2924.06 1402.11ZM2937.66 1403.11 2937.66 1403.11C2939.56 1403.11 2941.1 1404.65 2941.1 1406.55 2941.1 1408.44 2939.56 1409.98 2937.66 1409.98L2937.66 1409.98C2935.76 1409.98 2934.22 1408.44 2934.22 1406.55 2934.22 1404.65 2935.76 1403.11 2937.66 1403.11ZM2951.41 1403.11 2951.42 1403.11C2953.32 1403.11 2954.86 1404.65 2954.86 1406.55 2954.86 1408.44 2953.32 1409.98 2951.42 1409.98L2951.41 1409.98C2949.51 1409.98 2947.98 1408.44 2947.98 1406.55 2947.98 1404.65 2949.51 1403.11 2951.41 1403.11ZM2965.01 1404.11 2965.01 1404.11C2966.91 1404.11 2968.45 1405.65 2968.45 1407.55 2968.45 1409.44 2966.91 1410.98 2965.01 1410.98L2965.01 1410.98C2963.11 1410.98 2961.57 1409.44 2961.57 1407.55 2961.57 1405.65 2963.11 1404.11 2965.01 1404.11ZM2978.76 1404.11 2978.77 1404.11C2980.67 1404.11 2982.21 1405.65 2982.21 1407.55 2982.21 1409.44 2980.67 1410.98 2978.77 1410.98L2978.76 1410.98C2976.87 1410.98 2975.33 1409.44 2975.33 1407.55 2975.33 1405.65 2976.87 1404.11 2978.76 1404.11ZM2992.52 1404.11 2992.53 1404.11C2994.43 1404.11 2995.97 1405.65 2995.97 1407.55 2995.97 1409.44 2994.43 1410.98 2992.53 1410.98L2992.52 1410.98C2990.62 1410.98 2989.08 1409.44 2989.08 1407.55 2989.08 1405.65 2990.62 1404.11 2992.52 1404.11ZM3006.12 1405.11 3006.12 1405.11C3008.02 1405.11 3009.56 1406.65 3009.56 1408.55 3009.56 1410.44 3008.02 1411.98 3006.12 1411.98L3006.12 1411.98C3004.22 1411.98 3002.68 1410.44 3002.68 1408.55 3002.68 1406.65 3004.22 1405.11 3006.12 1405.11ZM3019.87 1405.11 3019.88 1405.11C3021.78 1405.11 3023.32 1406.65 3023.32 1408.55 3023.32 1410.44 3021.78 1411.98 3019.88 1411.98L3019.87 1411.98C3017.97 1411.98 3016.43 1410.44 3016.43 1408.55 3016.43 1406.65 3017.97 1405.11 3019.87 1405.11ZM3033.51 1406.11 3033.51 1406.11C3035.41 1406.11 3036.95 1407.65 3036.95 1409.55 3036.95 1411.44 3035.41 1412.98 3033.51 1412.98L3033.51 1412.98C3031.61 1412.98 3030.07 1411.44 3030.07 1409.55 3030.07 1407.65 3031.61 1406.11 3033.51 1406.11ZM3047.26 1406.11 3047.27 1406.11C3049.17 1406.11 3050.71 1407.65 3050.71 1409.55 3050.71 1411.44 3049.17 1412.98 3047.27 1412.98L3047.26 1412.98C3045.36 1412.98 3043.83 1411.44 3043.83 1409.55 3043.83 1407.65 3045.36 1406.11 3047.26 1406.11ZM3061.02 1406.11 3061.03 1406.11C3062.93 1406.11 3064.46 1407.65 3064.46 1409.55 3064.46 1411.44 3062.93 1412.98 3061.03 1412.98L3061.02 1412.98C3059.12 1412.98 3057.58 1411.44 3057.58 1409.55 3057.58 1407.65 3059.12 1406.11 3061.02 1406.11ZM3074.65 1407.11 3074.66 1407.11C3076.56 1407.11 3078.1 1408.65 3078.1 1410.55 3078.1 1412.44 3076.56 1413.98 3074.66 1413.98L3074.65 1413.98C3072.76 1413.98 3071.22 1412.44 3071.22 1410.55 3071.22 1408.65 3072.76 1407.11 3074.65 1407.11ZM3088.41 1407.11 3088.42 1407.11C3090.32 1407.11 3091.85 1408.65 3091.85 1410.55 3091.85 1412.44 3090.32 1413.98 3088.42 1413.98L3088.41 1413.98C3086.51 1413.98 3084.97 1412.44 3084.97 1410.55 3084.97 1408.65 3086.51 1407.11 3088.41 1407.11ZM3102.17 1407.11 3102.17 1407.11C3104.07 1407.11 3105.61 1408.65 3105.61 1410.55 3105.61 1412.44 3104.07 1413.98 3102.17 1413.98L3102.17 1413.98C3100.27 1413.98 3098.73 1412.44 3098.73 1410.55 3098.73 1408.65 3100.27 1407.11 3102.17 1407.11ZM3115.8 1408.11 3115.81 1408.11C3117.71 1408.11 3119.25 1409.65 3119.25 1411.55 3119.25 1413.44 3117.71 1414.98 3115.81 1414.98L3115.8 1414.98C3113.9 1414.98 3112.36 1413.44 3112.36 1411.55 3112.36 1409.65 3113.9 1408.11 3115.8 1408.11ZM3129.56 1408.11 3129.56 1408.11C3131.46 1408.11 3133 1409.65 3133 1411.55 3133 1413.44 3131.46 1414.98 3129.56 1414.98L3129.56 1414.98C3127.66 1414.98 3126.12 1413.44 3126.12 1411.55 3126.12 1409.65 3127.66 1408.11 3129.56 1408.11ZM3144.02 1409.11 3144.02 1409.11C3145.87 1409.56 3147 1411.42 3146.55 1413.26 3146.1 1415.11 3144.24 1416.24 3142.4 1415.79L3142.39 1415.79C3140.55 1415.34 3139.42 1413.48 3139.86 1411.63 3140.31 1409.79 3142.17 1408.66 3144.02 1409.11ZM3156.95 1409.11 3156.96 1409.11C3158.85 1409.11 3160.39 1410.65 3160.39 1412.55 3160.39 1414.44 3158.85 1415.98 3156.96 1415.98L3156.95 1415.98C3155.05 1415.98 3153.51 1414.44 3153.51 1412.55 3153.51 1410.65 3155.05 1409.11 3156.95 1409.11ZM3170.71 1409.11 3170.71 1409.11C3172.61 1409.11 3174.15 1410.65 3174.15 1412.55 3174.15 1414.44 3172.61 1415.98 3170.71 1415.98L3170.71 1415.98C3168.81 1415.98 3167.27 1414.44 3167.27 1412.55 3167.27 1410.65 3168.81 1409.11 3170.71 1409.11ZM3184.3 1410.11 3184.31 1410.11C3186.21 1410.11 3187.74 1411.65 3187.74 1413.55 3187.74 1415.45 3186.21 1416.98 3184.31 1416.98L3184.3 1416.98C3182.4 1416.98 3180.86 1415.45 3180.86 1413.55 3180.86 1411.65 3182.4 1410.11 3184.3 1410.11ZM3198.06 1410.11 3198.06 1410.11C3199.96 1410.11 3201.5 1411.65 3201.5 1413.55 3201.5 1415.45 3199.96 1416.98 3198.06 1416.98L3198.06 1416.98C3196.16 1416.98 3194.62 1415.45 3194.62 1413.55 3194.62 1411.65 3196.16 1410.11 3198.06 1410.11ZM3211.81 1410.11 3211.82 1410.11C3213.72 1410.11 3215.26 1411.65 3215.26 1413.55 3215.26 1415.45 3213.72 1416.98 3211.82 1416.98L3211.81 1416.98C3209.92 1416.98 3208.38 1415.45 3208.38 1413.55 3208.38 1411.65 3209.92 1410.11 3211.81 1410.11ZM3226.61 1410.59 3226.61 1410.59C3228.42 1411.19 3229.39 1413.14 3228.79 1414.94 3228.19 1416.74 3226.24 1417.72 3224.44 1417.11L3224.43 1417.11C3222.63 1416.51 3221.66 1414.57 3222.26 1412.76 3222.86 1410.96 3224.81 1409.99 3226.61 1410.59ZM3239.17 1411.11 3239.17 1411.11C3241.07 1411.11 3242.61 1412.65 3242.61 1414.55 3242.61 1416.45 3241.07 1417.98 3239.17 1417.98L3239.17 1417.98C3237.27 1417.98 3235.73 1416.45 3235.73 1414.55 3235.73 1412.65 3237.27 1411.11 3239.17 1411.11ZM3252.92 1411.11 3252.93 1411.11C3254.83 1411.11 3256.37 1412.65 3256.37 1414.55 3256.37 1416.45 3254.83 1417.98 3252.93 1417.98L3252.92 1417.98C3251.02 1417.98 3249.48 1416.45 3249.48 1414.55 3249.48 1412.65 3251.02 1411.11 3252.92 1411.11ZM3266.68 1411.11 3266.69 1411.11C3268.58 1411.11 3270.12 1412.65 3270.12 1414.55 3270.12 1416.45 3268.58 1417.98 3266.69 1417.98L3266.68 1417.98C3264.78 1417.98 3263.24 1416.45 3263.24 1414.55 3263.24 1412.65 3264.78 1411.11 3266.68 1411.11ZM3280.31 1412.11 3280.32 1412.11C3282.22 1412.11 3283.76 1413.65 3283.76 1415.55 3283.76 1417.45 3282.22 1418.98 3280.32 1418.98L3280.31 1418.98C3278.41 1418.98 3276.88 1417.45 3276.88 1415.55 3276.88 1413.65 3278.41 1412.11 3280.31 1412.11ZM3294.07 1412.11 3294.08 1412.11C3295.98 1412.11 3297.51 1413.65 3297.51 1415.55 3297.51 1417.45 3295.98 1418.98 3294.08 1418.98L3294.07 1418.98C3292.17 1418.98 3290.63 1417.45 3290.63 1415.55 3290.63 1413.65 3292.17 1412.11 3294.07 1412.11ZM3307.83 1412.11 3307.83 1412.11C3309.73 1412.11 3311.27 1413.65 3311.27 1415.55 3311.27 1417.45 3309.73 1418.98 3307.83 1418.98L3307.83 1418.98C3305.93 1418.98 3304.39 1417.45 3304.39 1415.55 3304.39 1413.65 3305.93 1412.11 3307.83 1412.11ZM3321.46 1413.11 3321.47 1413.11C3323.37 1413.11 3324.9 1414.65 3324.9 1416.55 3324.9 1418.45 3323.37 1419.98 3321.47 1419.98L3321.46 1419.98C3319.56 1419.98 3318.02 1418.45 3318.02 1416.55 3318.02 1414.65 3319.56 1413.11 3321.46 1413.11ZM3335.22 1413.11 3335.22 1413.11C3337.12 1413.11 3338.66 1414.65 3338.66 1416.55 3338.66 1418.45 3337.12 1419.98 3335.22 1419.98L3335.22 1419.98C3333.32 1419.98 3331.78 1418.45 3331.78 1416.55 3331.78 1414.65 3333.32 1413.11 3335.22 1413.11ZM3348.97 1413.11 3348.98 1413.11C3350.88 1413.11 3352.42 1414.65 3352.42 1416.55 3352.42 1418.45 3350.88 1419.98 3348.98 1419.98L3348.97 1419.98C3347.08 1419.98 3345.54 1418.45 3345.54 1416.55 3345.54 1414.65 3347.08 1413.11 3348.97 1413.11ZM3363.81 1413.32 3363.82 1413.33C3365.62 1413.93 3366.59 1415.87 3365.99 1417.67 3365.39 1419.48 3363.45 1420.45 3361.64 1419.85L3361.64 1419.85C3359.84 1419.25 3358.86 1417.3 3359.46 1415.5 3360.06 1413.7 3362.01 1412.72 3363.81 1413.32ZM3376.33 1414.11 3376.33 1414.11C3378.23 1414.11 3379.77 1415.65 3379.77 1417.55 3379.77 1419.45 3378.23 1420.98 3376.33 1420.98L3376.33 1420.98C3374.43 1420.98 3372.89 1419.45 3372.89 1417.55 3372.89 1415.65 3374.43 1414.11 3376.33 1414.11ZM3390.08 1414.11 3390.09 1414.11C3391.99 1414.11 3393.53 1415.65 3393.53 1417.55 3393.53 1419.45 3391.99 1420.98 3390.09 1420.98L3390.08 1420.98C3388.18 1420.98 3386.65 1419.45 3386.65 1417.55 3386.65 1415.65 3388.18 1414.11 3390.08 1414.11ZM3403.84 1414.11 3403.85 1414.11C3405.74 1414.11 3407.28 1415.65 3407.28 1417.55 3407.28 1419.45 3405.74 1420.98 3403.85 1420.98L3403.84 1420.98C3401.94 1420.98 3400.4 1419.45 3400.4 1417.55 3400.4 1415.65 3401.94 1414.11 3403.84 1414.11ZM3418.35 1414.69 3418.36 1414.69C3420.2 1415.14 3421.33 1417 3420.88 1418.84 3420.44 1420.69 3418.58 1421.82 3416.73 1421.37L3416.72 1421.37C3414.88 1420.92 3413.75 1419.06 3414.2 1417.22 3414.65 1415.37 3416.5 1414.24 3418.35 1414.69ZM3431.23 1415.11 3431.24 1415.11C3433.14 1415.11 3434.67 1416.65 3434.67 1418.55 3434.67 1420.45 3433.14 1421.98 3431.24 1421.98L3431.23 1421.98C3429.33 1421.98 3427.79 1420.45 3427.79 1418.55 3427.79 1416.65 3429.33 1415.11 3431.23 1415.11ZM3444.99 1415.11 3444.99 1415.11C3446.89 1415.11 3448.43 1416.65 3448.43 1418.55 3448.43 1420.45 3446.89 1421.98 3444.99 1421.98L3444.99 1421.98C3443.09 1421.98 3441.55 1420.45 3441.55 1418.55 3441.55 1416.65 3443.09 1415.11 3444.99 1415.11ZM3458.74 1415.11 3458.75 1415.11C3460.65 1415.11 3462.19 1416.65 3462.19 1418.55 3462.19 1420.45 3460.65 1421.98 3458.75 1421.98L3458.74 1421.98C3456.85 1421.98 3455.31 1420.45 3455.31 1418.55 3455.31 1416.65 3456.85 1415.11 3458.74 1415.11ZM3473.23 1415.91 3473.23 1415.91C3475.08 1416.36 3476.21 1418.22 3475.76 1420.06 3475.31 1421.91 3473.45 1423.04 3471.61 1422.59L3471.6 1422.59C3469.76 1422.14 3468.63 1420.28 3469.07 1418.43 3469.52 1416.59 3471.38 1415.46 3473.23 1415.91ZM3486.13 1416.11 3486.14 1416.11C3488.04 1416.11 3489.58 1417.65 3489.58 1419.55 3489.58 1421.45 3488.04 1422.98 3486.14 1422.98L3486.13 1422.98C3484.24 1422.98 3482.7 1421.45 3482.7 1419.55 3482.7 1417.65 3484.24 1416.11 3486.13 1416.11ZM3499.89 1416.11 3499.9 1416.11C3501.8 1416.11 3503.34 1417.65 3503.34 1419.55 3503.34 1421.45 3501.8 1422.98 3499.9 1422.98L3499.89 1422.98C3497.99 1422.98 3496.45 1421.45 3496.45 1419.55 3496.45 1417.65 3497.99 1416.11 3499.89 1416.11ZM3513.65 1416.11 3513.66 1416.11C3515.55 1416.11 3517.09 1417.65 3517.09 1419.55 3517.09 1421.45 3515.55 1422.98 3513.66 1422.98L3513.65 1422.98C3511.75 1422.98 3510.21 1421.45 3510.21 1419.55 3510.21 1417.65 3511.75 1416.11 3513.65 1416.11ZM3527.41 1416.11 3527.41 1416.11C3529.31 1416.11 3530.85 1417.65 3530.85 1419.55 3530.85 1421.45 3529.31 1422.98 3527.41 1422.98L3527.41 1422.98C3525.51 1422.98 3523.97 1421.45 3523.97 1419.55 3523.97 1417.65 3525.51 1416.11 3527.41 1416.11ZM3541 1417.11 3541.01 1417.11C3542.91 1417.11 3544.44 1418.65 3544.44 1420.55 3544.44 1422.45 3542.91 1423.98 3541.01 1423.98L3541 1423.98C3539.1 1423.98 3537.56 1422.45 3537.56 1420.55 3537.56 1418.65 3539.1 1417.11 3541 1417.11ZM3554.76 1417.11 3554.76 1417.11C3556.66 1417.11 3558.2 1418.65 3558.2 1420.55 3558.2 1422.45 3556.66 1423.98 3554.76 1423.98L3554.76 1423.98C3552.86 1423.98 3551.32 1422.45 3551.32 1420.55 3551.32 1418.65 3552.86 1417.11 3554.76 1417.11ZM3568.51 1417.11 3568.52 1417.11C3570.42 1417.11 3571.96 1418.65 3571.96 1420.55 3571.96 1422.45 3570.42 1423.98 3568.52 1423.98L3568.51 1423.98C3566.61 1423.98 3565.08 1422.45 3565.08 1420.55 3565.08 1418.65 3566.61 1417.11 3568.51 1417.11ZM3582.27 1417.11 3582.28 1417.11C3584.18 1417.11 3585.71 1418.65 3585.71 1420.55 3585.71 1422.45 3584.18 1423.98 3582.28 1423.98L3582.27 1423.98C3580.37 1423.98 3578.83 1422.45 3578.83 1420.55 3578.83 1418.65 3580.37 1417.11 3582.27 1417.11ZM3595.86 1418.11 3595.87 1418.11C3597.77 1418.11 3599.31 1419.65 3599.31 1421.55 3599.31 1423.45 3597.77 1424.98 3595.87 1424.98L3595.86 1424.98C3593.97 1424.98 3592.43 1423.45 3592.43 1421.55 3592.43 1419.65 3593.97 1418.11 3595.86 1418.11ZM3609.62 1418.11 3609.63 1418.11C3611.53 1418.11 3613.07 1419.65 3613.07 1421.55 3613.07 1423.45 3611.53 1424.98 3609.63 1424.98L3609.62 1424.98C3607.72 1424.98 3606.18 1423.45 3606.18 1421.55 3606.18 1419.65 3607.72 1418.11 3609.62 1418.11ZM3623.38 1418.11 3623.39 1418.11C3625.28 1418.11 3626.82 1419.65 3626.82 1421.55 3626.82 1423.45 3625.28 1424.98 3623.39 1424.98L3623.38 1424.98C3621.48 1424.98 3619.94 1423.45 3619.94 1421.55 3619.94 1419.65 3621.48 1418.11 3623.38 1418.11ZM3637.14 1418.11 3637.14 1418.11C3639.04 1418.11 3640.58 1419.65 3640.58 1421.55 3640.58 1423.45 3639.04 1424.98 3637.14 1424.98L3637.14 1424.98C3635.24 1424.98 3633.7 1423.45 3633.7 1421.55 3633.7 1419.65 3635.24 1418.11 3637.14 1418.11ZM3650.89 1418.11 3650.9 1418.11C3652.8 1418.11 3654.34 1419.65 3654.34 1421.55 3654.34 1423.45 3652.8 1424.98 3650.9 1424.98L3650.89 1424.98C3648.99 1424.98 3647.45 1423.45 3647.45 1421.55 3647.45 1419.65 3648.99 1418.11 3650.89 1418.11ZM3664.53 1419.11 3664.53 1419.11C3666.43 1419.11 3667.97 1420.65 3667.97 1422.55 3667.97 1424.45 3666.43 1425.98 3664.53 1425.98L3664.53 1425.98C3662.63 1425.98 3661.09 1424.45 3661.09 1422.55 3661.09 1420.65 3662.63 1419.11 3664.53 1419.11ZM3678.28 1419.11 3678.29 1419.11C3680.19 1419.11 3681.73 1420.65 3681.73 1422.55 3681.73 1424.45 3680.19 1425.98 3678.29 1425.98L3678.28 1425.98C3676.38 1425.98 3674.85 1424.45 3674.85 1422.55 3674.85 1420.65 3676.38 1419.11 3678.28 1419.11ZM3692.04 1419.11 3692.05 1419.11C3693.95 1419.11 3695.48 1420.65 3695.48 1422.55 3695.48 1424.45 3693.95 1425.98 3692.05 1425.98L3692.04 1425.98C3690.14 1425.98 3688.6 1424.45 3688.6 1422.55 3688.6 1420.65 3690.14 1419.11 3692.04 1419.11ZM3705.8 1419.11 3705.8 1419.11C3707.7 1419.11 3709.24 1420.65 3709.24 1422.55 3709.24 1424.45 3707.7 1425.98 3705.8 1425.98L3705.8 1425.98C3703.9 1425.98 3702.36 1424.45 3702.36 1422.55 3702.36 1420.65 3703.9 1419.11 3705.8 1419.11ZM3719.55 1419.11 3719.56 1419.11C3721.46 1419.11 3723 1420.65 3723 1422.55 3723 1424.45 3721.46 1425.98 3719.56 1425.98L3719.55 1425.98C3717.66 1425.98 3716.12 1424.45 3716.12 1422.55 3716.12 1420.65 3717.66 1419.11 3719.55 1419.11ZM3733.15 1420.11 3733.16 1420.11C3735.05 1420.11 3736.59 1421.65 3736.59 1423.55 3736.59 1425.45 3735.05 1426.98 3733.16 1426.98L3733.15 1426.98C3731.25 1426.98 3729.71 1425.45 3729.71 1423.55 3729.71 1421.65 3731.25 1420.11 3733.15 1420.11ZM3746.86 1420.09 3746.87 1420.09C3748.76 1420.07 3750.32 1421.59 3750.35 1423.49 3750.37 1425.38 3748.86 1426.94 3746.96 1426.97L3746.95 1426.97C3745.05 1426.99 3743.49 1425.47 3743.47 1423.58 3743.44 1421.68 3744.96 1420.12 3746.86 1420.09Z" fill="#4472C4" fill-rule="nonzero" fill-opacity="1"/></g><g clip-path="url(#clip8)"><rect x="2731.5" y="627.5" width="722" height="148" stroke="#000000" stroke-width="3.4375" stroke-linecap="butt" stroke-linejoin="round" stroke-miterlimit="10" stroke-opacity="1" fill="#FFFFFF" fill-opacity="1"/></g><g clip-path="url(#clip9)"><text fill="#595959" fill-opacity="1" font-family="Calibri,Calibri_MSFontService,sans-serif" font-style="normal" font-variant="normal" font-weight="400" font-stretch="normal" font-size="110" text-anchor="start" direction="ltr" writing-mode="lr-tb" unicode-bidi="normal" text-decoration="none" transform="matrix(1 0 0 1 2745.22 740)">y = 1180.4x</text></g><g clip-path="url(#clip10)"><text fill="#595959" fill-opacity="1" font-family="Calibri,Calibri_MSFontService,sans-serif" font-style="normal" font-variant="normal" font-weight="400" font-stretch="normal" font-size="73" text-anchor="start" direction="ltr" writing-mode="lr-tb" unicode-bidi="normal" text-decoration="none" transform="matrix(1 0 0 1 3250.41 707)">-</text></g><g clip-path="url(#clip11)"><text fill="#595959" fill-opacity="1" font-family="Calibri,Calibri_MSFontService,sans-serif" font-style="normal" font-variant="normal" font-weight="400" font-stretch="normal" font-size="73" text-anchor="start" direction="ltr" writing-mode="lr-tb" unicode-bidi="normal" text-decoration="none" transform="matrix(1 0 0 1 3272.87 707)">0.827</text></g><g clip-path="url(#clip12)"><text fill="#595959" fill-opacity="1" font-family="Calibri,Calibri_MSFontService,sans-serif" font-style="normal" font-variant="normal" font-weight="400" font-stretch="normal" font-size="41" text-anchor="start" direction="ltr" writing-mode="lr-tb" unicode-bidi="normal" text-decoration="none" transform="matrix(1 0 0 1 1537.91 1469)">0</text></g><g clip-path="url(#clip13)"><text fill="#595959" fill-opacity="1" font-family="Calibri,Calibri_MSFontService,sans-serif" font-style="normal" font-variant="normal" font-weight="400" font-stretch="normal" font-size="41" text-anchor="start" direction="ltr" writing-mode="lr-tb" unicode-bidi="normal" text-decoration="none" transform="matrix(1 0 0 1 1496.11 1320)">200</text></g><g clip-path="url(#clip14)"><text fill="#595959" fill-opacity="1" font-family="Calibri,Calibri_MSFontService,sans-serif" font-style="normal" font-variant="normal" font-weight="400" font-stretch="normal" font-size="41" text-anchor="start" direction="ltr" writing-mode="lr-tb" unicode-bidi="normal" text-decoration="none" transform="matrix(1 0 0 1 1496.11 1171)">400</text></g><g clip-path="url(#clip15)"><text fill="#595959" fill-opacity="1" font-family="Calibri,Calibri_MSFontService,sans-serif" font-style="normal" font-variant="normal" font-weight="400" font-stretch="normal" font-size="41" text-anchor="start" direction="ltr" writing-mode="lr-tb" unicode-bidi="normal" text-decoration="none" transform="matrix(1 0 0 1 1496.11 1021)">600</text></g><g clip-path="url(#clip16)"><text fill="#595959" fill-opacity="1" font-family="Calibri,Calibri_MSFontService,sans-serif" font-style="normal" font-variant="normal" font-weight="400" font-stretch="normal" font-size="41" text-anchor="start" direction="ltr" writing-mode="lr-tb" unicode-bidi="normal" text-decoration="none" transform="matrix(1 0 0 1 1496.11 872)">800</text></g><g clip-path="url(#clip17)"><text fill="#595959" fill-opacity="1" font-family="Calibri,Calibri_MSFontService,sans-serif" font-style="normal" font-variant="normal" font-weight="400" font-stretch="normal" font-size="41" text-anchor="start" direction="ltr" writing-mode="lr-tb" unicode-bidi="normal" text-decoration="none" transform="matrix(1 0 0 1 1475.21 722)">1000</text></g><g clip-path="url(#clip18)"><text fill="#595959" fill-opacity="1" font-family="Calibri,Calibri_MSFontService,sans-serif" font-style="normal" font-variant="normal" font-weight="400" font-stretch="normal" font-size="41" text-anchor="start" direction="ltr" writing-mode="lr-tb" unicode-bidi="normal" text-decoration="none" transform="matrix(1 0 0 1 1475.21 573)">1200</text></g><g clip-path="url(#clip19)"><text fill="#595959" fill-opacity="1" font-family="Calibri,Calibri_MSFontService,sans-serif" font-style="normal" font-variant="normal" font-weight="400" font-stretch="normal" font-size="41" text-anchor="start" direction="ltr" writing-mode="lr-tb" unicode-bidi="normal" text-decoration="none" transform="matrix(1 0 0 1 1475.21 423)">1400</text></g><g clip-path="url(#clip20)"><text fill="#595959" fill-opacity="1" font-family="Calibri,Calibri_MSFontService,sans-serif" font-style="normal" font-variant="normal" font-weight="400" font-stretch="normal" font-size="41" text-anchor="start" direction="ltr" writing-mode="lr-tb" unicode-bidi="normal" text-decoration="none" transform="matrix(1 0 0 1 1586.62 1525)">0</text></g><g clip-path="url(#clip21)"><text fill="#595959" fill-opacity="1" font-family="Calibri,Calibri_MSFontService,sans-serif" font-style="normal" font-variant="normal" font-weight="400" font-stretch="normal" font-size="41" text-anchor="start" direction="ltr" writing-mode="lr-tb" unicode-bidi="normal" text-decoration="none" transform="matrix(1 0 0 1 1810.82 1525)">5</text></g><g clip-path="url(#clip22)"><text fill="#595959" fill-opacity="1" font-family="Calibri,Calibri_MSFontService,sans-serif" font-style="normal" font-variant="normal" font-weight="400" font-stretch="normal" font-size="41" text-anchor="start" direction="ltr" writing-mode="lr-tb" unicode-bidi="normal" text-decoration="none" transform="matrix(1 0 0 1 2024.56 1525)">10</text></g><g clip-path="url(#clip23)"><text fill="#595959" fill-opacity="1" font-family="Calibri,Calibri_MSFontService,sans-serif" font-style="normal" font-variant="normal" font-weight="400" font-stretch="normal" font-size="41" text-anchor="start" direction="ltr" writing-mode="lr-tb" unicode-bidi="normal" text-decoration="none" transform="matrix(1 0 0 1 2248.76 1525)">15</text></g><g clip-path="url(#clip24)"><text fill="#595959" fill-opacity="1" font-family="Calibri,Calibri_MSFontService,sans-serif" font-style="normal" font-variant="normal" font-weight="400" font-stretch="normal" font-size="41" text-anchor="start" direction="ltr" writing-mode="lr-tb" unicode-bidi="normal" text-decoration="none" transform="matrix(1 0 0 1 2472.95 1525)">20</text></g><g clip-path="url(#clip25)"><text fill="#595959" fill-opacity="1" font-family="Calibri,Calibri_MSFontService,sans-serif" font-style="normal" font-variant="normal" font-weight="400" font-stretch="normal" font-size="41" text-anchor="start" direction="ltr" writing-mode="lr-tb" unicode-bidi="normal" text-decoration="none" transform="matrix(1 0 0 1 2697.14 1525)">25</text></g><g clip-path="url(#clip26)"><text fill="#595959" fill-opacity="1" font-family="Calibri,Calibri_MSFontService,sans-serif" font-style="normal" font-variant="normal" font-weight="400" font-stretch="normal" font-size="41" text-anchor="start" direction="ltr" writing-mode="lr-tb" unicode-bidi="normal" text-decoration="none" transform="matrix(1 0 0 1 2921.34 1525)">30</text></g><g clip-path="url(#clip27)"><text fill="#595959" fill-opacity="1" font-family="Calibri,Calibri_MSFontService,sans-serif" font-style="normal" font-variant="normal" font-weight="400" font-stretch="normal" font-size="41" text-anchor="start" direction="ltr" writing-mode="lr-tb" unicode-bidi="normal" text-decoration="none" transform="matrix(1 0 0 1 3145.53 1525)">35</text></g><g clip-path="url(#clip28)"><text fill="#595959" fill-opacity="1" font-family="Calibri,Calibri_MSFontService,sans-serif" font-style="normal" font-variant="normal" font-weight="400" font-stretch="normal" font-size="41" text-anchor="start" direction="ltr" writing-mode="lr-tb" unicode-bidi="normal" text-decoration="none" transform="matrix(1 0 0 1 3369.72 1525)">40</text></g><g clip-path="url(#clip29)"><text fill="#595959" fill-opacity="1" font-family="Calibri,Calibri_MSFontService,sans-serif" font-style="normal" font-variant="normal" font-weight="400" font-stretch="normal" font-size="41" text-anchor="start" direction="ltr" writing-mode="lr-tb" unicode-bidi="normal" text-decoration="none" transform="matrix(1 0 0 1 3593.92 1525)">45</text></g><g clip-path="url(#clip30)"><text fill="#595959" fill-opacity="1" font-family="Calibri,Calibri_MSFontService,sans-serif" font-style="normal" font-variant="normal" font-weight="400" font-stretch="normal" font-size="73" text-anchor="start" direction="ltr" writing-mode="lr-tb" unicode-bidi="normal" text-decoration="none" transform="matrix(6.12323e-17 -1 1 6.12323e-17 1441.96 1055)">Time (s)</text></g><g clip-path="url(#clip31)"><text fill="#595959" fill-opacity="1" font-family="Calibri,Calibri_MSFontService,sans-serif" font-style="normal" font-variant="normal" font-weight="400" font-stretch="normal" font-size="73" text-anchor="start" direction="ltr" writing-mode="lr-tb" unicode-bidi="normal" text-decoration="none" transform="matrix(1 0 0 1 2589.42 1620)">Cores</text></g><rect x="1315.5" y="363.5" width="2506" height="1333" stroke="#D9D9D9" stroke-width="3.4375" stroke-linecap="butt" stroke-linejoin="round" stroke-miterlimit="10" stroke-opacity="1" fill="none"/></g></svg>